<?xml version="1.0" encoding="UTF-8" standalone="no"?>
<!-- Created with Inkscape (http://www.inkscape.org/) -->

<svg
   width="129.27548mm"
   height="127.15831mm"
   viewBox="0 0 129.27548 127.15831"
   version="1.1"
   id="svg1"
   inkscape:version="1.3.2 (091e20e, 2023-11-25, custom)"
   sodipodi:docname="musique.svg"
   xmlns:inkscape="http://www.inkscape.org/namespaces/inkscape"
   xmlns:sodipodi="http://sodipodi.sourceforge.net/DTD/sodipodi-0.dtd"
   xmlns="http://www.w3.org/2000/svg"
   xmlns:svg="http://www.w3.org/2000/svg">
  <sodipodi:namedview
     id="namedview1"
     pagecolor="#ffffff"
     bordercolor="#000000"
     borderopacity="0.25"
     inkscape:showpageshadow="2"
     inkscape:pageopacity="0.0"
     inkscape:pagecheckerboard="0"
     inkscape:deskcolor="#d1d1d1"
     inkscape:document-units="mm"
     inkscape:zoom="1.3843855"
     inkscape:cx="293.27091"
     inkscape:cy="286.40866"
     inkscape:window-width="1920"
     inkscape:window-height="991"
     inkscape:window-x="-9"
     inkscape:window-y="-9"
     inkscape:window-maximized="1"
     inkscape:current-layer="layer1" />
  <defs
     id="defs1" />
  <g
     inkscape:label="Calque 1"
     inkscape:groupmode="layer"
     id="layer1"
     transform="translate(-30.188925,-80.166764)">
    <rect
       style="fill:#ffffff;stroke:#4675f4;stroke-width:3.43933;stroke-linecap:round;stroke-linejoin:round"
       id="rect1"
       width="40.916412"
       height="35.75618"
       x="31.90859"
       y="169.84923"
       ry="17.87809" />
    <path
       style="fill:#ffffff;stroke:#4675f4;stroke-width:3.26501;stroke-linecap:round;stroke-linejoin:round"
       d="M 61.158299,180.79922 60.011582,103.20463 155.57143,81.799228 v 79.888032 l -9.91548,0.1897 -1.55171,-59.05457 -73.963313,17.96525 0.191119,60.01158 z"
       id="path1"
       sodipodi:nodetypes="ccccccccc" />
    <rect
       style="fill:#ffffff;stroke:#4675f4;stroke-width:3.43933;stroke-linecap:round;stroke-linejoin:round"
       id="rect1-3"
       width="40.916412"
       height="35.75618"
       x="116.82833"
       y="152.98558"
       ry="17.87809" />
    <path
       style="fill:#ffffff;stroke:#4675f4;stroke-width:8.91382;stroke-linecap:round;stroke-linejoin:round"
       d="m 177.69617,769.68184 c -20.89042,-2.69004 -37.91246,-14.40546 -47.27816,-32.53917 -5.1185,-9.91036 -6.49905,-15.81632 -6.49905,-27.80269 0,-11.98637 1.38055,-17.89233 6.49905,-27.80269 8.10926,-15.70102 22.2938,-26.84731 39.69356,-31.19143 5.79412,-1.44659 8.34703,-1.62612 23.47612,-1.65092 14.06361,-0.0231 17.98286,0.20349 22.85111,1.32084 3.23184,0.74176 6.27925,1.59784 6.77204,1.9024 0.65354,0.40391 0.99042,5.02231 1.24505,17.06913 0.38922,18.41418 0.58503,19.20524 5.06149,20.4484 1.49359,0.41478 9.28268,0.75596 17.3091,0.75818 l 14.59347,0.004 0.76322,2.70879 c 1.6586,5.88663 2.3605,13.09343 1.95229,20.04499 -1.55592,26.496 -20.17827,48.88027 -45.98813,55.27825 -4.96947,1.23189 -8.96275,1.57297 -20.94793,1.78926 -8.1444,0.14698 -16.92086,-0.005 -19.50323,-0.33736 z"
       id="path2"
       transform="scale(0.26458333)" />
    <path
       style="fill:#ffffff;stroke:#4675f4;stroke-width:8.91382;stroke-linecap:round;stroke-linejoin:round"
       d="m 176.1293,764.63213 c -6.39858,-1.17405 -11.81719,-3.06594 -18.29754,-6.38856 -11.40115,-5.8456 -21.95325,-18.11781 -26.36069,-30.65777 -3.15501,-8.97659 -3.67767,-23.69541 -1.16779,-32.88649 3.97623,-14.56074 14.9,-27.92917 28.44703,-34.81328 11.05298,-5.61671 18.89332,-6.8693 39.50216,-6.31093 14.37051,0.38935 19.62898,1.07376 20.62438,2.68435 0.285,0.46114 0.69851,7.06699 0.91892,14.67967 0.4237,14.63436 0.95643,17.73279 3.51765,20.45907 2.38513,2.53886 5.4439,3.07316 20.60255,3.59885 16.15206,0.56015 14.53491,-0.6252 15.17835,11.12551 1.26947,23.18391 -10.75576,43.4445 -31.70629,53.42002 -9.7533,4.64399 -12.59762,5.1388 -31.27214,5.44024 -9.13763,0.14749 -18.13159,-0.0103 -19.98659,-0.35068 z"
       id="path3"
       transform="scale(0.26458333)" />
    <path
       style="fill:#ffffff;stroke:#4675f4;stroke-width:8.91382;stroke-linecap:round;stroke-linejoin:round"
       d="m 172.2786,758.73775 c -9.67133,-2.7251 -16.70227,-6.80123 -23.47612,-13.61009 -6.86144,-6.89691 -10.82997,-13.09927 -13.1926,-20.61849 -2.31285,-7.36083 -2.31975,-23.05902 -0.0133,-30.33837 2.4062,-7.59425 6.3562,-13.75653 13.26802,-20.69908 5.26229,-5.28569 7.27407,-6.75452 13.01343,-9.50137 10.23855,-4.90015 12.123,-5.19432 33.27515,-5.19432 10.19728,0 18.70001,0.16253 18.89495,0.36117 0.19495,0.19865 0.67607,6.5774 1.06916,14.17502 0.77841,15.04504 1.63975,18.47998 5.54118,22.09759 2.98232,2.76537 6.60061,3.50852 20.51366,4.21326 7.00213,0.35468 12.85482,0.65449 13.00597,0.66625 0.15115,0.0118 0.11759,4.32835 -0.0746,9.59242 -0.38594,10.57259 -2.16679,17.43129 -6.49088,24.99867 -2.92124,5.11235 -9.95771,12.55755 -15.29127,16.1795 -11.07434,7.52044 -18.83607,9.21042 -41.98422,9.14137 -10.66716,-0.0318 -13.91021,-0.29465 -18.05855,-1.46353 z"
       id="path4"
       transform="scale(0.26458333)" />
    <path
       style="fill:#ffffff;stroke:#4675f4;stroke-width:8.91382;stroke-linecap:round;stroke-linejoin:round"
       d="m 174.63619,754.4675 c -14.6341,-3.66966 -28.81325,-16.19825 -33.93713,-29.9866 -1.38939,-3.73883 -1.60007,-5.73249 -1.60007,-15.14092 0,-9.41226 0.21069,-11.40428 1.6044,-15.16918 3.89688,-10.52682 13.60194,-20.94811 24.29476,-26.08772 8.20295,-3.94283 12.42817,-4.57883 30.54325,-4.59752 l 13.87236,-0.0143 0.3613,2.34761 c 0.19872,1.29118 0.55988,6.13283 0.80258,10.75921 0.75983,14.48373 3.03427,20.43107 9.17878,24.00122 3.75608,2.1824 8.94768,3.13136 20.70563,3.78472 l 8.95139,0.49741 -0.42036,7.42293 c -0.73257,12.93629 -4.72221,21.28656 -14.56004,30.474 -5.53344,5.16763 -11.82547,8.83015 -18.4582,10.74433 -4.66297,1.34571 -36.82614,2.09637 -41.33865,0.96481 z"
       id="path5"
       transform="scale(0.26458333)" />
    <path
       style="fill:#ffffff;stroke:#4675f4;stroke-width:8.91382;stroke-linecap:round;stroke-linejoin:round"
       d="m 171.80365,748.4371 c -6.90662,-2.84082 -10.85341,-5.51796 -16.66929,-11.30691 -4.30639,-4.28644 -6.20384,-6.86025 -8.27922,-11.23043 -2.55818,-5.38679 -2.70692,-6.10433 -2.98273,-14.38882 -0.4853,-14.57739 1.79029,-20.4598 11.744,-30.3583 6.57655,-6.54008 13.63582,-10.53414 20.94832,-11.85234 2.35738,-0.42496 9.72648,-0.77265 16.37579,-0.77265 h 12.08966 l 0.41772,4.87581 c 0.92829,10.83551 1.93037,17.51419 3.12951,20.85763 1.74053,4.85291 7.43857,10.5252 12.12124,12.06645 4.51621,1.48646 12.34516,2.61838 18.23868,2.63696 3.56836,0.0112 4.63644,0.27263 5.00149,1.22394 0.86418,2.25201 -1.01358,11.61705 -3.3157,16.53656 -3.22504,6.89178 -12.17195,15.71905 -19.66261,19.3997 -6.57161,3.22906 -12.61132,3.97118 -32.42921,3.9847 -11.59204,0.008 -12.9801,-0.13086 -16.72765,-1.6723 z"
       id="path6"
       transform="scale(0.26458333)" />
    <path
       style="fill:#ffffff;stroke:#4675f4;stroke-width:8.91382;stroke-linecap:round;stroke-linejoin:round"
       d="m 170.52913,742.46371 c -7.07572,-3.44221 -16.44558,-12.50509 -19.35763,-18.72342 -1.90613,-4.07031 -2.00785,-4.81815 -2.00785,-14.76148 0,-10.13707 0.0669,-10.60175 2.07881,-14.44684 3.16964,-6.0576 12.00616,-14.37573 18.88366,-17.77586 l 5.68565,-2.81089 12.36714,-0.24959 12.36715,-0.2496 0.91123,7.98057 c 1.54789,13.55648 3.65013,18.9609 9.39409,24.15022 5.23028,4.72524 10.75635,6.69777 21.58347,7.70421 3.28932,0.30576 6.15956,0.73489 6.37829,0.95363 0.80753,0.80753 -2.00447,9.61198 -4.12565,12.91755 -3.10507,4.83884 -11.16844,12.1814 -15.89945,14.47817 -5.71855,2.77617 -11.25297,3.45553 -28.08972,3.44804 l -14.80801,-0.007 z"
       id="path7"
       transform="scale(0.26458333)" />
    <path
       style="fill:#ffffff;stroke:#4675f4;stroke-width:8.91382;stroke-linecap:round;stroke-linejoin:round"
       d="m 172.60606,738.05308 c -4.43384,-2.23729 -14.93695,-12.16398 -17.00539,-16.07211 -1.04497,-1.9744 -1.39832,-4.55082 -1.61309,-11.7618 -0.26172,-8.78739 -0.18328,-9.4211 1.62317,-13.11333 2.36307,-4.82995 10.14751,-12.31764 16.4979,-15.86898 l 4.64284,-2.59642 h 9.72779 9.72779 l 1.17029,7.7898 c 1.75803,11.7019 3.40532,15.43379 9.50512,21.5336 5.83136,5.83135 9.43053,7.53322 19.72986,9.32927 3.42842,0.59787 6.32602,1.17955 6.43909,1.29263 0.11309,0.11308 -0.54403,1.81717 -1.46024,3.78686 -1.87033,4.02084 -10.32366,12.45582 -14.70356,14.67163 -4.70826,2.38193 -9.90073,2.99529 -25.35687,2.99529 -14.91462,0 -15.00726,-0.01 -18.9247,-1.98644 z"
       id="path8"
       transform="scale(0.26458333)" />
    <path
       style="fill:#ffffff;stroke:#4675f4;stroke-width:8.91382;stroke-linecap:round;stroke-linejoin:round"
       d="m 175.03543,733.84727 c -3.44106,-1.74341 -13.59591,-11.46039 -14.94256,-14.29826 -1.60297,-3.37801 -1.65666,-16.9269 -0.0803,-20.24896 1.43306,-3.01994 8.33294,-9.75856 13.33302,-13.02142 3.87948,-2.53159 4.09904,-2.58179 11.29159,-2.58179 h 7.33519 l 1.24581,6.91912 c 1.6673,9.25999 4.7603,15.35644 10.67014,21.03136 5.3488,5.13619 10.22227,7.78442 17.24327,9.36996 l 5.09552,1.15072 -4.58167,4.62396 c -7.54142,7.61102 -8.17943,7.79589 -27.69663,8.02518 -14.11964,0.16589 -16.9591,0.0203 -18.91343,-0.96987 z"
       id="path9"
       transform="scale(0.26458333)" />
    <path
       style="fill:#ffffff;stroke:#4675f4;stroke-width:8.91382;stroke-linecap:round;stroke-linejoin:round"
       d="m 175.09576,727.86401 c -1.54944,-1.13449 -4.68622,-4.03585 -6.97063,-6.44745 l -4.15346,-4.38474 v -7.68145 -7.68146 l 3.76411,-3.98 c 2.07026,-2.18899 5.28309,-5.09502 7.13961,-6.45783 3.04496,-2.23521 3.84571,-2.47785 8.1772,-2.47785 3.23664,0 4.87698,0.2943 5.03265,0.90293 0.12702,0.49661 0.75869,3.09976 1.40371,5.78478 1.74575,7.26696 4.47007,12.38549 9.41656,17.69207 4.75628,5.10254 11.48232,9.90146 14.94289,10.66153 2.5586,0.56196 2.64191,1.06728 0.50663,3.07287 -2.55978,2.4043 -7.09048,3.02271 -22.28423,3.04166 l -14.15788,0.0177 z"
       id="path10"
       transform="scale(0.26458333)" />
    <path
       style="fill:#ffffff;stroke:#4675f4;stroke-width:8.91382;stroke-linecap:round;stroke-linejoin:round"
       d=""
       id="path11"
       transform="scale(0.26458333)" />
    <path
       style="fill:#ffffff;stroke:#4675f4;stroke-width:8.91382;stroke-linecap:round;stroke-linejoin:round"
       d=""
       id="path12"
       transform="scale(0.26458333)" />
    <path
       style="fill:#ffffff;stroke:#4675f4;stroke-width:8.91382;stroke-linecap:round;stroke-linejoin:round"
       d=""
       id="path13"
       transform="scale(0.26458333)" />
    <path
       style="fill:#ffffff;stroke:#4675f4;stroke-width:8.91382;stroke-linecap:round;stroke-linejoin:round"
       d="m 173.8845,719.9764 -4.85644,-4.89394 v -5.8537 -5.85369 l 5.06994,-4.78272 c 4.22195,-3.98278 5.48485,-4.78272 7.55064,-4.78272 2.25129,0 2.55027,0.2505 3.23297,2.70878 0.41374,1.48983 0.75408,2.99319 0.75629,3.3408 0.008,1.31407 3.84229,9.1196 4.47936,9.1196 0.36648,0 0.46065,0.3328 0.20926,0.73955 -0.25139,0.40675 2.78573,3.98235 6.74915,7.94576 l 7.20621,7.20622 h -12.77047 -12.77048 z"
       id="path14"
       transform="scale(0.26458333)" />
    <path
       style="fill:#ffffff;stroke:#4675f4;stroke-width:8.91382;stroke-linecap:round;stroke-linejoin:round"
       d="m 177.48843,716.35801 c -3.23119,-3.28052 -3.40277,-3.65634 -3.38029,-7.40401 0.0226,-3.76149 0.17392,-4.07649 3.20256,-6.66551 3.36227,-2.87422 3.50516,-2.85597 4.3085,0.55041 0.7379,3.1289 5.23271,10.93236 8.1694,14.18292 l 2.52252,2.79212 h -5.70936 -5.70936 z"
       id="path15"
       transform="scale(0.26458333)" />
    <path
       style="fill:#ffffff;stroke:#4675f4;stroke-width:8.91382;stroke-linecap:round;stroke-linejoin:round"
       d=""
       id="path16"
       transform="scale(0.26458333)" />
    <path
       style="fill:#ffffff;stroke:#4675f4;stroke-width:8.91382;stroke-linecap:round;stroke-linejoin:round"
       d=""
       id="path17"
       transform="scale(0.26458333)" />
    <path
       style="fill:#ffffff;stroke:#4675f4;stroke-width:8.91382;stroke-linecap:round;stroke-linejoin:round"
       d=""
       id="path18"
       transform="scale(0.26458333)" />
    <path
       style="fill:#ffffff;stroke:#4675f4;stroke-width:8.91382;stroke-linecap:round;stroke-linejoin:round"
       d="m 501.79565,706.09797 c -18.86029,-2.37879 -36.32541,-14.12915 -45.64282,-30.70807 -1.33967,-2.38373 -3.50079,-7.42206 -4.8025,-11.1963 -2.28727,-6.63184 -2.36703,-7.25032 -2.37552,-18.41973 -0.009,-11.41329 0.0235,-11.64943 2.57686,-18.92883 8.34231,-23.78307 27.17216,-38.70622 52.28197,-41.43484 11.04549,-1.20029 31.34626,-0.45393 39.08855,1.43708 21.29525,5.20126 37.58894,20.85375 44.04606,42.31272 1.72399,5.72934 1.95621,7.70157 1.95621,16.61387 0,8.91231 -0.23222,10.88453 -1.95621,16.61387 -6.45347,21.44685 -22.63955,37.00672 -44.04606,42.34197 -4.69795,1.17089 -8.87055,1.5132 -21.02999,1.72522 -8.34306,0.14548 -17.3865,-0.0151 -20.09655,-0.35696 z"
       id="path19"
       transform="scale(0.26458333)" />
    <path
       style="fill:#ffffff;stroke:#4675f4;stroke-width:8.91382;stroke-linecap:round;stroke-linejoin:round"
       d="m 502.38896,701.35299 c -0.79458,-0.1838 -3.17708,-0.68512 -5.29444,-1.11406 -9.60312,-1.94542 -20.56519,-8.1884 -28.03223,-15.96454 -5.63362,-5.86683 -8.74848,-10.78528 -12.25973,-19.35845 l -2.81052,-6.86225 0.002,-12.27982 c 0.002,-12.16085 0.0243,-12.3358 2.33388,-18.05855 6.67651,-16.54336 18.20433,-28.47878 32.69341,-33.84937 9.26664,-3.43482 16.61943,-4.28842 33.23232,-3.85798 16.84135,0.43636 22.20111,1.46366 31.15869,5.97219 14.32334,7.20922 24.25708,19.26104 29.22579,35.4573 1.83269,5.97393 1.83269,22.69889 0,28.67283 -6.09441,19.86567 -20.19916,33.95395 -39.56586,39.51967 -4.5384,1.30427 -7.69531,1.55787 -22.26331,1.78848 -9.33627,0.14778 -17.62515,0.11833 -18.41972,-0.0655 z"
       id="path20"
       transform="scale(0.26458333)" />
    <path
       style="fill:#ffffff;stroke:#4675f4;stroke-width:8.91382;stroke-linecap:round;stroke-linejoin:round"
       d="m 497.08772,695.2776 c -7.9356,-2.14864 -16.10053,-6.80231 -22.55511,-12.85547 -6.478,-6.07513 -9.17141,-9.99487 -13.05044,-18.99236 l -2.79491,-6.48285 0.0152,-10.64292 c 0.0134,-9.37299 0.22271,-11.23082 1.75399,-15.56998 2.79225,-7.91236 7.25339,-14.71902 14.05092,-21.43842 8.19811,-8.10389 15.96858,-11.97563 27.71193,-13.80783 6.3406,-0.98926 33.14853,-0.39519 38.45376,0.85214 13.11,3.08234 26.42741,13.59081 32.71634,25.81572 5.01038,9.73957 5.57575,12.2028 5.50385,23.97941 -0.0566,9.28025 -0.26702,11.0137 -1.84594,15.20973 -3.11166,8.26933 -7.05174,14.4649 -12.83672,20.18505 -6.37392,6.30251 -12.55267,10.11841 -20.64816,12.752 -5.45323,1.77402 -6.77558,1.89543 -23.47612,2.15552 -15.93222,0.24812 -18.22613,0.13245 -22.99862,-1.15974 z"
       id="path21"
       transform="scale(0.26458333)" />
    <path
       style="fill:#ffffff;stroke:#4675f4;stroke-width:8.91382;stroke-linecap:round;stroke-linejoin:round"
       d="m 498.41608,690.65178 c -13.04576,-3.7774 -25.23692,-14.04048 -31.22511,-26.28671 l -3.08615,-6.31138 -0.2293,-10.86978 c -0.21531,-10.20614 -0.11622,-11.17025 1.62305,-15.79105 4.01172,-10.65818 13.93039,-21.89295 23.59837,-26.72964 8.63808,-4.32146 13.62547,-5.0159 32.73693,-4.55827 14.63664,0.35048 17.22565,0.59199 21.20528,1.97811 10.71643,3.73256 21.45961,13.35449 26.81745,24.01856 3.7246,7.41331 4.66451,12.4408 4.21797,22.56162 -0.28164,6.38348 -0.72497,8.86089 -2.25474,12.60005 -5.36439,13.11201 -15.99588,23.4923 -28.70461,28.02641 -5.14199,1.83451 -5.97338,1.90925 -23.39005,2.10269 -13.21313,0.14676 -18.93073,-0.052 -21.30909,-0.74061 z"
       id="path22"
       transform="scale(0.26458333)" />
    <path
       style="fill:#ffffff;stroke:#4675f4;stroke-width:8.91382;stroke-linecap:round;stroke-linejoin:round"
       d="m 496.75308,684.82851 c -10.42015,-4.28473 -19.56641,-12.40849 -24.99843,-22.20374 l -2.9355,-5.29342 -0.01,-10.78238 -0.01,-10.78238 2.96601,-6.12778 c 3.91466,-8.08767 13.05462,-17.56984 20.14894,-20.90333 7.43219,-3.49225 11.6849,-4.00132 30.14877,-3.6089 14.69355,0.31229 16.85174,0.51545 20.29206,1.91018 9.66708,3.9191 18.43432,12.26199 23.38727,22.25529 3.0612,6.17643 3.10456,6.37029 3.35085,14.98132 0.27381,9.57333 -0.64709,13.7179 -4.66691,21.00374 -3.25136,5.89304 -12.04327,14.15065 -18.33638,17.22206 -7.4231,3.62291 -10.76859,4.08964 -29.17287,4.06989 -15.16115,-0.0163 -16.18667,-0.10479 -20.16471,-1.74055 z"
       id="path23"
       transform="scale(0.26458333)" />
    <path
       style="fill:#ffffff;stroke:#4675f4;stroke-width:8.91382;stroke-linecap:round;stroke-linejoin:round"
       d="m 495.52671,678.82642 c -6.49401,-3.22484 -15.8599,-12.08374 -19.38163,-18.33246 -2.26223,-4.01395 -2.28864,-4.17547 -2.28864,-13.99703 0,-9.71998 0.0503,-10.03848 2.31315,-14.63489 3.51561,-7.14121 11.63423,-15.38284 18.48958,-18.76972 l 5.4918,-2.71321 h 19.17755 19.17755 l 4.69522,2.43868 c 6.75443,3.50822 14.76343,11.8432 18.32427,19.07011 l 2.76775,5.61726 -0.26394,9.19075 c -0.26046,9.06961 -0.30084,9.2601 -3.06348,14.4517 -4.83898,9.09347 -15.31575,17.53418 -24.3485,19.61659 -1.74225,0.40166 -10.48143,0.73529 -19.42042,0.7414 l -16.2527,0.0111 z"
       id="path24"
       transform="scale(0.26458333)" />
    <path
       style="fill:#ffffff;stroke:#4675f4;stroke-width:8.91382;stroke-linecap:round;stroke-linejoin:round"
       d="m 497.57744,674.23548 c -5.27211,-2.88612 -11.59455,-8.54258 -15.54209,-13.90495 l -3.12251,-4.24162 v -9.39046 c 0,-9.07997 0.0727,-9.52693 2.19991,-13.51791 2.69172,-5.05019 9.69,-12.08559 15.45498,-15.53695 l 4.29156,-2.56926 h 17.94447 17.94448 l 3.76828,1.90774 c 5.21528,2.6403 13.50413,11.11379 16.30868,16.67197 2.12576,4.2129 2.26718,4.98112 2.26056,12.27982 -0.006,6.78155 -0.24017,8.28653 -1.81434,11.66811 -2.44343,5.24888 -10.93696,13.64021 -16.59833,16.39859 l -4.33405,2.11168 -17.33621,0.1809 -17.33621,0.18089 z"
       id="path25"
       transform="scale(0.26458333)" />
    <path
       style="fill:#ffffff;stroke:#4675f4;stroke-width:8.91382;stroke-linecap:round;stroke-linejoin:round"
       d="m 497.98631,668.65598 c -2.346,-1.51857 -6.45957,-5.13374 -9.14127,-8.0337 l -4.87581,-5.27266 v -8.79992 c 0,-8.47045 0.0779,-8.92015 2.07974,-12.01129 2.4014,-3.70808 8.54483,-9.75073 12.71537,-12.5068 l 2.87647,-1.90088 h 17.40586 17.40586 l 3.33615,2.20977 c 4.15461,2.7519 10.91729,9.98534 12.81714,13.70937 1.74915,3.4286 2.03402,15.18873 0.45922,18.95707 -1.43894,3.4432 -8.18281,10.49824 -13.04569,13.64762 l -4.26546,2.76246 h -16.75106 -16.75106 z"
       id="path26"
       transform="scale(0.26458333)" />
    <path
       style="fill:#ffffff;stroke:#4675f4;stroke-width:8.91382;stroke-linecap:round;stroke-linejoin:round"
       d="m 500.94427,664.77694 c -1.19186,-0.84586 -4.36114,-3.67106 -7.04283,-6.27824 l -4.87581,-4.74032 v -7.88216 -7.88217 l 6.40346,-6.40346 6.40347,-6.40347 h 17.07048 17.07047 l 5.34923,5.08125 c 6.86717,6.52313 7.65729,8.22326 7.65729,16.47642 v 6.53133 l -4.09872,4.4271 c -2.25429,2.4349 -5.48213,5.37891 -7.17298,6.54225 l -3.07427,2.11515 -15.76138,-0.0229 c -14.90009,-0.0216 -15.8798,-0.10692 -17.92841,-1.5608 z"
       id="path27"
       transform="scale(0.26458333)" />
    <path
       style="fill:#ffffff;stroke:#4675f4;stroke-width:8.91382;stroke-linecap:round;stroke-linejoin:round"
       d="m 499.06818,656.4905 -4.98616,-4.81374 v -5.86018 -5.86019 l 4.89394,-4.85644 4.89394,-4.85643 h 15.21313 15.21314 l 4.81373,4.98616 4.81373,4.98616 v 5.73046 5.73046 l -4.98616,4.81374 -4.98616,4.81373 h -14.94848 -14.94848 z"
       id="path28"
       transform="scale(0.26458333)" />
    <path
       style="fill:#ffffff;stroke:#4675f4;stroke-width:8.91382;stroke-linecap:round;stroke-linejoin:round"
       d="m 502.56954,652.94082 c -3.23905,-3.09027 -3.43112,-3.4851 -3.43112,-7.05324 0,-3.55707 0.20358,-3.98024 3.45594,-7.1837 l 3.45593,-3.40397 h 13.22121 13.2212 l 3.15859,3.43113 c 2.89259,3.14218 3.161,3.75581 3.18727,7.28669 0.0274,3.68872 -0.1198,3.99225 -3.40245,7.01415 l -3.43112,3.15859 -13.00216,0.0119 -13.00216,0.0119 z"
       id="path29"
       transform="scale(0.26458333)" />
    <path
       style="fill:#ffffff;stroke:#4675f4;stroke-width:8.91382;stroke-linecap:round;stroke-linejoin:round"
       d="m 505.76541,649.51961 c -2.14932,-2.28785 -1.98565,-4.88365 0.45537,-7.2223 2.02195,-1.93716 2.04831,-1.941 13.3109,-1.941 h 11.28494 l 1.49711,1.90327 c 1.97402,2.50956 1.90525,5.40724 -0.17471,7.36126 -1.5728,1.47756 -2.35692,1.5706 -13.23742,1.5706 -11.15541,0 -11.62129,-0.0593 -13.13619,-1.67183 z"
       id="path30"
       transform="scale(0.26458333)" />
    <path
       style="fill:#ffffff;stroke:#4675f4;stroke-width:0.787877;stroke-linecap:round;stroke-linejoin:round"
       d="m 513.86959,646.66574 c -3.78845,-0.0487 -4.68443,-0.10162 -4.89171,-0.28921 -0.20413,-0.18473 -0.1395,-0.33959 0.34317,-0.82226 0.37199,-0.37199 0.51371,-0.47189 0.71828,-0.50631 0.79298,-0.13345 2.72196,-0.17248 10.25176,-0.20747 l 8.33689,-0.0387 0.26475,0.39646 c 0.34125,0.51103 0.4279,0.80735 0.29527,1.00978 -0.13579,0.20723 -0.29111,0.25287 -1.12153,0.32956 -1.52824,0.14115 -8.37416,0.20296 -14.19688,0.12819 z"
       id="path32"
       transform="scale(0.26458333)" />
    <path
       style="fill:#ffffff;stroke:#4675f4;stroke-width:0.787877;stroke-linecap:round;stroke-linejoin:round"
       d="m 512.7842,646.22682 c -1.40463,-0.027 -2.73701,-0.0708 -2.96084,-0.0972 l -0.40698,-0.048 0.28723,-0.28723 c 0.20969,-0.20969 0.36265,-0.30232 0.56659,-0.34313 0.456,-0.0913 5.677,-0.17567 12.10848,-0.19577 l 6.01908,-0.0188 0.18974,0.286 c 0.26254,0.39576 0.24926,0.4837 -0.0811,0.53663 -1.01429,0.16255 -10.64619,0.26519 -15.72223,0.16755 z"
       id="path33"
       transform="scale(0.26458333)" />
    <path
       style="fill:#ffffff;stroke:#4675f4;stroke-width:0.0492423;stroke-linecap:round;stroke-linejoin:round"
       d="m 516.68084,645.86783 c -0.58065,-10e-4 -2.00662,-0.01 -2.01816,-0.0118 l -0.011,-0.002 v -0.0691 -0.0691 l 0.0728,-0.002 c 0.04,-10e-4 0.15273,-0.003 0.25039,-0.005 0.94787,-0.0116 1.17947,-0.0143 1.4984,-0.0179 1.42111,-0.0158 3.2709,-0.029 5.01396,-0.0358 0.56953,-0.002 1.23528,-0.005 1.47945,-0.006 l 0.44393,-0.002 v 0.0912 0.0912 l -0.19254,0.003 c -1.59601,0.0222 -4.4403,0.0406 -5.80705,0.0374 -0.21508,-4.9e-4 -0.54369,-10e-4 -0.73024,-0.002 z"
       id="path34"
       transform="scale(0.26458333)" />
    <path
       style="fill:#ffffff;stroke:#4675f4;stroke-width:0.0492423;stroke-linecap:round;stroke-linejoin:round"
       d="m 515.88874,645.83856 c -0.32153,-0.002 -0.72511,-0.005 -0.89685,-0.006 l -0.31225,-0.003 v -0.0431 -0.0431 l 0.0289,-0.002 c 0.033,-0.003 0.35149,-0.007 1.31584,-0.0183 1.95276,-0.0227 3.51083,-0.0335 6.69692,-0.0463 l 0.66141,-0.003 v 0.064 0.064 l -0.0768,0.002 c -0.0752,0.002 -0.42613,0.007 -1.17218,0.0144 -0.39623,0.004 -1.05686,0.01 -1.94533,0.0163 -0.7139,0.005 -3.55654,0.008 -4.29967,0.004 z"
       id="path35"
       transform="scale(0.26458333)" />
    <path
       style="fill:#ffffff;stroke:#4675f4;stroke-width:0.0492423;stroke-linecap:round;stroke-linejoin:round"
       d="m 515.54357,645.81051 c -0.30946,-0.002 -0.62415,-0.005 -0.69932,-0.006 l -0.13667,-0.003 v -0.017 -0.017 l 0.11472,-0.003 c 0.0631,-10e-4 0.26646,-0.004 0.45191,-0.006 0.18546,-0.002 0.40723,-0.005 0.49282,-0.006 1.34499,-0.0192 4.12721,-0.0391 6.69392,-0.0478 0.34567,-10e-4 0.6882,-0.003 0.76117,-0.004 l 0.13268,-0.002 v 0.0379 0.0379 l -0.0289,0.002 c -0.0595,0.005 -1.44265,0.0188 -2.97186,0.0303 -0.71491,0.005 -4.12473,0.008 -4.81044,0.004 z"
       id="path36"
       transform="scale(0.26458333)" />
    <path
       style="fill:#ffffff;stroke:#4675f4;stroke-width:0.0492423;stroke-linecap:round;stroke-linejoin:round"
       d="m 515.64931,645.78302 c -0.0356,-0.003 1.03354,-0.0159 2.02713,-0.0242 1.24579,-0.0104 2.53322,-0.0182 3.9166,-0.0238 0.52893,-0.002 1.13542,-0.005 1.34776,-0.006 l 0.38607,-0.002 v 0.0118 0.0118 l -0.11672,0.003 c -0.13399,0.003 -0.61811,0.008 -1.25798,0.0144 -0.24361,0.002 -0.63866,0.006 -0.87789,0.008 -0.94726,0.009 -5.34238,0.0154 -5.42497,0.008 z"
       id="path37"
       transform="scale(0.26458333)" />
    <path
       style="fill:#ffffff;stroke:#4675f4;stroke-width:0.393939;stroke-linecap:round;stroke-linejoin:round"
       d="m 515.18713,645.75569 c -0.0444,-0.0176 -0.0387,-0.0228 0.0265,-0.0246 0.0457,-10e-4 0.17499,-0.0114 0.28731,-0.0227 0.11588,-0.0116 0.19293,-0.008 0.17814,0.007 -0.0346,0.037 -0.42013,0.0683 -0.49199,0.0399 z"
       id="path38"
       transform="scale(0.26458333)" />
    <path
       style="fill:#ffffff;stroke:#4675f4;stroke-width:0.393939;stroke-linecap:round;stroke-linejoin:round"
       d="m 514.26065,645.83453 c 0.0307,-0.008 0.081,-0.008 0.11173,0 0.0307,0.008 0.006,0.0146 -0.0559,0.0146 -0.0615,0 -0.0866,-0.007 -0.0559,-0.0146 z"
       id="path39"
       transform="scale(0.26458333)" />
    <path
       style="fill:#ffffff;stroke:#4675f4;stroke-width:0.139278;stroke-linecap:round;stroke-linejoin:round"
       d="m 513.21845,645.83544 c -0.97329,-0.0172 -1.71739,-0.0362 -1.75507,-0.0447 -0.0284,-0.006 -0.004,-0.009 0.0847,-0.0102 0.0683,-7e-4 0.28922,-0.006 0.49097,-0.012 0.20175,-0.006 0.64616,-0.0159 0.98758,-0.0223 0.34142,-0.006 0.71831,-0.0143 0.83753,-0.0176 l 0.21677,-0.006 -0.0164,0.0393 c -0.009,0.0216 -0.0164,0.0497 -0.0164,0.0623 0,0.0263 0.0166,0.0261 -0.82956,0.0111 z"
       id="path40"
       transform="scale(0.26458333)" />
    <path
       style="fill:#ffffff;stroke:#4675f4;stroke-width:0.139278;stroke-linecap:round;stroke-linejoin:round"
       d="m 514.26998,645.83971 c -0.004,-0.004 -0.008,-0.0321 -0.008,-0.0621 v -0.0546 h 0.0503 c 0.0485,0 0.0507,0.002 0.062,0.0423 0.0212,0.0761 0.0182,0.0818 -0.0427,0.0818 -0.03,0 -0.0579,-0.003 -0.0621,-0.008 z"
       id="path41"
       transform="scale(0.26458333)" />
    <path
       style="fill:#ffffff;stroke:#4675f4;stroke-width:0.139278;stroke-linecap:round;stroke-linejoin:round"
       d="m 514.58031,645.79927 c -0.008,-0.0264 -0.0169,-0.0543 -0.0202,-0.0621 -0.004,-0.01 0.005,-0.0141 0.0287,-0.0141 0.0347,0 0.0348,2.5e-4 0.0348,0.0621 0,0.0766 -0.0227,0.084 -0.0433,0.0141 z"
       id="path42"
       transform="scale(0.26458333)" />
    <path
       style="fill:#ffffff;stroke:#4675f4;stroke-width:0.393939;stroke-linecap:round;stroke-linejoin:round"
       d="m 523.87017,645.80248 c 0.0311,-0.008 0.0742,-0.008 0.0958,0.001 0.0216,0.009 -0.004,0.0154 -0.0565,0.0147 -0.0527,-6.5e-4 -0.0704,-0.008 -0.0393,-0.0159 z"
       id="path43"
       transform="scale(0.26458333)" />
    <path
       style="fill:#ffffff;stroke:#4675f4;stroke-width:0.393939;stroke-linecap:round;stroke-linejoin:round"
       d="m 523.44658,645.7448 c 0,-0.0718 0.0128,-0.0798 0.12701,-0.0798 0.12389,0 0.12612,0.002 0.0906,0.0798 -0.0264,0.0578 -0.0613,0.0798 -0.12701,0.0798 -0.0754,0 -0.0906,-0.0134 -0.0906,-0.0798 z"
       id="path44"
       transform="scale(0.26458333)" />
    <path
       style="fill:#ffffff;stroke:#4675f4;stroke-width:0.393939;stroke-linecap:round;stroke-linejoin:round"
       d="m 524.16752,645.74023 c -0.0111,-0.0289 -0.0162,-0.0557 -0.0114,-0.0598 0.0242,-0.0203 4.01511,-0.0359 4.01511,-0.0157 0,0.0379 -2.40415,0.12617 -3.46824,0.12736 -0.44892,5e-4 -0.51793,-0.006 -0.53547,-0.0519 z"
       id="path45"
       transform="scale(0.26458333)" />
    <path
       style="fill:#ffffff;stroke:#4675f4;stroke-width:0.393939;stroke-linecap:round;stroke-linejoin:round"
       d="m 523.52145,645.74342 c -0.0104,-0.0271 -0.0103,-0.0579 2.3e-4,-0.0684 0.0276,-0.0276 0.1191,0.0556 0.0983,0.0893 -0.0272,0.0441 -0.0776,0.0334 -0.0985,-0.021 z"
       id="path46"
       transform="scale(0.26458333)" />
    <path
       style="fill:#ffffff;stroke:#4675f4;stroke-width:0.393939;stroke-linecap:round;stroke-linejoin:round"
       d=""
       id="path47"
       transform="scale(0.26458333)" />
    <path
       style="fill:#ffffff;stroke:#4675f4;stroke-width:6.30302;stroke-linecap:round;stroke-linejoin:round"
       d=""
       id="path48"
       transform="scale(0.26458333)" />
    <path
       style="fill:#ffffff;stroke:#4675f4;stroke-width:0.278557;stroke-linecap:round;stroke-linejoin:round"
       d="m 523.55697,645.74764 c 0.0155,-0.006 0.0409,-0.006 0.0564,0 0.0155,0.006 0.003,0.0114 -0.0282,0.0114 -0.031,0 -0.0437,-0.005 -0.0282,-0.0114 z"
       id="path49"
       transform="scale(0.26458333)" />
    <rect
       style="fill:#4675f4;fill-opacity:1;stroke:#4675f4;stroke-width:3.26501;stroke-linecap:round;stroke-linejoin:round"
       id="rect49"
       width="18.538609"
       height="15.576255"
       x="127.95463"
       y="163.12067"
       ry="7.7881274" />
    <rect
       style="fill:#4675f4;fill-opacity:1;stroke:#4675f4;stroke-width:3.26501;stroke-linecap:round;stroke-linejoin:round"
       id="rect50"
       width="17.200773"
       height="9.2693043"
       x="41.377411"
       y="183.4749"
       ry="4.6346521" />
    <rect
       style="fill:#4675f4;fill-opacity:1;stroke:#4675f4;stroke-width:3.26501;stroke-linecap:round;stroke-linejoin:round"
       id="rect51"
       width="6.8803086"
       height="21.596525"
       x="61.158302"
       y="159.39383"
       ry="3.4401543" />
    <rect
       style="fill:#4675f4;fill-opacity:1;stroke:#4675f4;stroke-width:3.26501;stroke-linecap:round;stroke-linejoin:round"
       id="rect52"
       width="8.4092665"
       height="54.851353"
       x="60.776062"
       y="104.16022"
       ry="3.4401543" />
    <rect
       style="fill:#4675f4;fill-opacity:1;stroke:#4675f4;stroke-width:3.26501;stroke-linecap:round;stroke-linejoin:round"
       id="rect53"
       width="8.0270271"
       height="58.100384"
       x="146.01544"
       y="102.05791"
       ry="3.4401543" />
    <rect
       style="fill:#4675f4;fill-opacity:1;stroke:#4675f4;stroke-width:3.26501;stroke-linecap:round;stroke-linejoin:round"
       id="rect54"
       width="12.23166"
       height="14.907335"
       x="67.656372"
       y="103.01351"
       ry="3.4401543" />
    <rect
       style="fill:#4675f4;fill-opacity:1;stroke:#4675f4;stroke-width:3.26501;stroke-linecap:round;stroke-linejoin:round"
       id="rect55"
       width="34.974903"
       height="8.982625"
       x="91.355209"
       y="97.853279"
       ry="3.4401543" />
    <rect
       style="fill:#4675f4;fill-opacity:1;stroke:#4675f4;stroke-width:3.26501;stroke-linecap:round;stroke-linejoin:round"
       id="rect56"
       width="41.281857"
       height="9.5559845"
       x="112.5695"
       y="92.310814"
       ry="3.4401543" />
    <rect
       style="fill:#4675f4;fill-opacity:1;stroke:#4675f4;stroke-width:3.26501;stroke-linecap:round;stroke-linejoin:round"
       id="rect57"
       width="8.4092665"
       height="4.3957529"
       x="124.61004"
       y="101.67567"
       ry="2.1978765" />
    <rect
       style="fill:#4675f4;fill-opacity:1;stroke:#4675f4;stroke-width:3.26501;stroke-linecap:round;stroke-linejoin:round"
       id="rect58"
       width="32.681469"
       height="3.057915"
       x="80.843628"
       y="106.45367"
       ry="1.5289575" />
    <rect
       style="fill:#4675f4;fill-opacity:1;stroke:#4675f4;stroke-width:3.26501;stroke-linecap:round;stroke-linejoin:round"
       id="rect59"
       width="3.631274"
       height="4.7779922"
       x="78.550194"
       y="112.18726"
       ry="1.5289575" />
    <rect
       style="fill:#4675f4;fill-opacity:1;stroke:#4675f4;stroke-width:3.26501;stroke-linecap:round;stroke-linejoin:round"
       id="rect60"
       width="22.552124"
       height="3.2490349"
       x="79.505791"
       y="109.32047"
       ry="1.5289575" />
    <rect
       style="fill:#4675f4;fill-opacity:1;stroke:#4675f4;stroke-width:3.26501;stroke-linecap:round;stroke-linejoin:round"
       id="rect61"
       width="7.0714288"
       height="4.9691119"
       x="81.799232"
       y="111.80502"
       ry="1.5289575" />
    <rect
       style="fill:#4675f4;fill-opacity:1;stroke:#4675f4;stroke-width:3.26501;stroke-linecap:round;stroke-linejoin:round"
       id="rect62"
       width="14.333977"
       height="3.2490349"
       x="76.065636"
       y="101.67567"
       ry="1.5289575" />
    <rect
       style="fill:#4675f4;fill-opacity:1;stroke:#4675f4;stroke-width:3.26501;stroke-linecap:round;stroke-linejoin:round"
       id="rect63"
       width="14.525096"
       height="2.2934363"
       x="99.764473"
       y="94.986488"
       ry="1.1467181" />
    <rect
       style="fill:#4675f4;fill-opacity:1;stroke:#4675f4;stroke-width:3.26501;stroke-linecap:round;stroke-linejoin:round"
       id="rect64"
       width="9.7471046"
       height="2.2934363"
       x="82.181465"
       y="98.426636"
       ry="1.1467181" />
    <rect
       style="fill:#4675f4;fill-opacity:1;stroke:#4675f4;stroke-width:3.26501;stroke-linecap:round;stroke-linejoin:round"
       id="rect65"
       width="28.859072"
       height="1.7200772"
       x="125.1834"
       y="89.444016"
       ry="0.86003858" />
    <rect
       style="fill:#4675f4;fill-opacity:1;stroke:#4675f4;stroke-width:3.26501;stroke-linecap:round;stroke-linejoin:round"
       id="rect66"
       width="12.805019"
       height="1.7200772"
       x="141.42857"
       y="86.00386"
       ry="0.86003858" />
    <rect
       style="fill:#4675f4;fill-opacity:1;stroke:#4675f4;stroke-width:3.26501;stroke-linecap:round;stroke-linejoin:round"
       id="rect67"
       width="2.6756756"
       height="1.9111969"
       x="151.55791"
       y="83.328178"
       ry="0.86003858" />
    <rect
       style="fill:#4675f4;fill-opacity:1;stroke:#4675f4;stroke-width:3.26501;stroke-linecap:round;stroke-linejoin:round"
       id="rect68"
       width="3.631274"
       height="0.38223937"
       x="138.37065"
       y="88.297295"
       ry="0.19111969" />
    <rect
       style="fill:#4675f4;fill-opacity:1;stroke:#4675f4;stroke-width:3.26501;stroke-linecap:round;stroke-linejoin:round"
       id="rect69"
       width="4.5868726"
       height="0.76447874"
       x="133.78378"
       y="87.532822"
       ry="0.19111969" />
  </g>
</svg>
