<?xml version="1.0" encoding="UTF-8" standalone="no"?>
<!-- Created with Inkscape (http://www.inkscape.org/) -->

<svg
   width="72.228188mm"
   height="55.736931mm"
   viewBox="0 0 72.228188 55.736931"
   version="1.1"
   id="svg1"
   inkscape:version="1.3.2 (091e20e, 2023-11-25, custom)"
   sodipodi:docname="pc.svg"
   xmlns:inkscape="http://www.inkscape.org/namespaces/inkscape"
   xmlns:sodipodi="http://sodipodi.sourceforge.net/DTD/sodipodi-0.dtd"
   xmlns="http://www.w3.org/2000/svg"
   xmlns:svg="http://www.w3.org/2000/svg">
  <sodipodi:namedview
     id="namedview1"
     pagecolor="#ffffff"
     bordercolor="#000000"
     borderopacity="0.25"
     inkscape:showpageshadow="2"
     inkscape:pageopacity="0.0"
     inkscape:pagecheckerboard="0"
     inkscape:deskcolor="#d1d1d1"
     inkscape:document-units="mm"
     inkscape:zoom="0.97890839"
     inkscape:cx="143.01645"
     inkscape:cy="153.74268"
     inkscape:window-width="1920"
     inkscape:window-height="991"
     inkscape:window-x="-9"
     inkscape:window-y="-9"
     inkscape:window-maximized="1"
     inkscape:current-layer="layer1" />
  <defs
     id="defs1" />
  <g
     inkscape:label="Calque 1"
     inkscape:groupmode="layer"
     id="layer1"
     transform="translate(-59.088451,-109.69221)">
    <path
       style="fill:#ffffff;stroke:#4675f4;stroke-width:3.2576;stroke-opacity:1"
       d="m 74.594728,112.43469 54.606092,-1.08139 0.26899,31.09006 -54.875082,0.27035 z"
       id="path1" />
    <path
       style="fill:#ffffff;stroke:#4675f4;stroke-width:3.26501;stroke-opacity:1"
       d="m 74.868684,144.87225 -12.70335,18.6496 54.597376,0.27029 11.62222,-18.6496 z"
       id="path2"
       sodipodi:nodetypes="ccccc" />
    <path
       style="fill:#ffffff;stroke:#4675f4;stroke-width:12.606;stroke-opacity:1"
       d="m 293.86827,611.65091 c -25.18768,-0.15221 -45.64414,-0.63925 -45.4588,-1.08232 0.18535,-0.44306 8.84136,-13.30602 19.2356,-28.58436 l 18.8986,-27.77879 42.39416,0.13461 c 23.31679,0.074 65.24611,0.41505 93.17628,0.75781 l 50.78211,0.62319 -17.58187,28.30736 -17.58187,28.30735 -49.03421,-0.20405 c -26.96881,-0.11223 -69.64231,-0.32859 -94.83,-0.4808 z"
       id="path3"
       transform="scale(0.26458333)" />
    <path
       style="fill:#ffffff;stroke:#4675f4;stroke-width:12.606;stroke-opacity:1"
       d="m 274.02973,604.50294 c -6.88267,-0.17673 -12.4803,-0.65196 -12.43918,-1.05605 0.0411,-0.4041 6.38255,-9.92863 14.09206,-21.16564 l 14.01728,-20.43092 55.62847,-0.24484 c 30.59565,-0.13466 68.99856,0.0952 85.33979,0.51077 l 29.71133,0.75561 -13.17103,21.19708 -13.17104,21.19709 -73.74687,-0.22089 c -40.56078,-0.12148 -79.37815,-0.36548 -86.26081,-0.54221 z"
       id="path4"
       transform="scale(0.26458333)" />
    <path
       style="fill:#ffffff;stroke:#4675f4;stroke-width:12.606;stroke-opacity:1"
       d="m 274.39366,596.83828 c 0.40694,-0.70231 4.88307,-7.40113 9.94695,-14.88627 l 9.20706,-13.60933 76.34943,0.32924 c 41.99219,0.18107 76.66516,0.64522 77.05104,1.03142 0.38588,0.3862 -3.13871,6.91909 -7.83243,14.51752 l -8.53405,13.81533 -78.46395,0.0395 c -62.49352,0.0315 -78.31335,-0.22039 -77.72405,-1.23742 z"
       id="path5"
       transform="scale(0.26458333)" />
    <path
       style="fill:#ffffff;stroke:#4675f4;stroke-width:12.606;stroke-opacity:1"
       d="m 288.64533,588.15514 c 1.00423,-1.54509 3.24065,-4.98455 4.96983,-7.64324 l 3.14397,-4.83399 69.7808,-0.0184 c 55.54924,-0.0146 69.62722,0.24208 69.02772,1.25858 -0.41419,0.70232 -2.55115,4.15003 -4.74882,7.6616 l -3.99572,6.38466 h -70.00183 -70.00182 z"
       id="path6"
       transform="scale(0.26458333)" />
    <path
       style="fill:#ffffff;stroke:#4675f4;stroke-width:12.606;stroke-opacity:1"
       d="m 330.28825,584.0694 c 17.31731,-0.15706 45.35875,-0.15696 62.31431,2.4e-4 16.95555,0.15719 2.78684,0.2857 -31.48603,0.28557 -34.27287,-1.3e-4 -48.1456,-0.12874 -30.82828,-0.28581 z"
       id="path7"
       transform="scale(0.26458333)" />
    <rect
       style="fill:#ffffff;stroke:#4675f4;stroke-width:3.26501;stroke-opacity:1"
       id="rect9"
       width="42.164314"
       height="3.2434087"
       x="76.220108"
       y="151.08879"
       ry="1.6217043" />
  </g>
</svg>
