<?xml version="1.0" encoding="UTF-8" standalone="no"?>
<!-- Created with Inkscape (http://www.inkscape.org/) -->

<svg
   width="192.48239mm"
   height="199.94238mm"
   viewBox="0 0 192.48239 199.94238"
   version="1.1"
   id="svg1"
   inkscape:version="1.3.2 (091e20e, 2023-11-25, custom)"
   sodipodi:docname="pdp_noir.svg"
   xml:space="preserve"
   xmlns:inkscape="http://www.inkscape.org/namespaces/inkscape"
   xmlns:sodipodi="http://sodipodi.sourceforge.net/DTD/sodipodi-0.dtd"
   xmlns="http://www.w3.org/2000/svg"
   xmlns:svg="http://www.w3.org/2000/svg"><sodipodi:namedview
     id="namedview1"
     pagecolor="#797979"
     bordercolor="#000000"
     borderopacity="0"
     inkscape:showpageshadow="2"
     inkscape:pageopacity="0.0"
     inkscape:pagecheckerboard="true"
     inkscape:deskcolor="#ffffff"
     inkscape:document-units="mm"
     showguides="true"
     inkscape:zoom="3.9156336"
     inkscape:cx="479.36048"
     inkscape:cy="675.62501"
     inkscape:window-width="1920"
     inkscape:window-height="991"
     inkscape:window-x="-9"
     inkscape:window-y="-9"
     inkscape:window-maximized="1"
     inkscape:current-layer="layer1"
     inkscape:lockguides="false" /><defs
     id="defs1" /><g
     inkscape:label="Calque 1"
     inkscape:groupmode="layer"
     id="layer1"
     transform="translate(-8.5657622,-56.624244)"><path
       style="fill:#000000"
       d="m 110.10372,247.31776 c -0.48752,0.18962 -1.96558,1.39139 -5.21913,1.13838 -7.425025,-0.5774 -13.727677,0.73224 -21.911227,-2.01373 -13.06601,-4.38426 -29.615111,-6.27575 -40.673231,-15.43653 -3.71075,-3.07406 -11.6313,-11.17015 -14.75281,-15.07976 -6.30258,-7.89382 -11.59645,-16.67764 -15.41803,-25.58227 -1.36865,-3.1891 -2.6079314,-9.29916 -2.6079314,-9.86051 0,-0.19669 0.086192,-1.06486 1.3595014,-2.04605 1.27331,-0.9812 2.4937,-1.98018 2.71198,-2.21997 0.21828,-0.23979 0.71179,-0.56972 1.09669,-0.73318 0.80354,-0.34125 2.11175,-2.88848 2.1418,-4.17033 0.0102,-0.43656 -0.48976,-1.91135 -1.11111,-3.27731 -1.22896,-2.70175 -1.33794,-4.07117 -0.43379,-5.45109 0.51161,-0.7808 5.0861,-3.14571 6.63123,-3.4282 0.76993,-0.14075 1.49089,-0.6053 2.7115,-1.74712 2.46308,-2.30409 5.24562,-4.04451 6.40882,-4.00859 3.37161,0.10414 6.87135,0.79937 9.67475,1.9219 3.06319,1.22656 3.71004,1.25603 5.2333,0.23846 1.61888,-1.08144 5.96822,-5.74821 6.71995,-7.21039 0.31695,-0.61648 1.41828,-2.04457 2.4474,-3.17353 1.02912,-1.12895 1.87113,-2.16295 1.87113,-2.29778 0,-0.13483 -0.67349,-0.0134 -1.49663,0.26978 -1.82113,0.62656 -3.5903,0.66126 -4.46581,0.0876 -0.76417,-0.50071 -0.92309,-1.34257 -0.18913,-1.00191 1.56654,0.72708 4.52511,-0.49646 7.17771,-2.9684 0.96359,-0.89796 1.69245,-1.6924 1.61969,-1.76542 -0.0728,-0.073 -0.84667,-0.0149 -1.71979,0.12926 -2.47673,0.40881 -6.35871,0.11615 -8.21168,-0.61908 -0.95592,-0.3793 -1.60535,-0.80332 -1.65928,-1.08338 -0.0731,-0.37979 0.0482,-0.43279 0.69484,-0.30347 2.03394,0.40679 6.82992,-1.9074 9.15292,-4.41652 1.29317,-1.39678 1.88793,-2.34499 1.27997,-2.04061 -3.58732,1.79599 -4.54048,2.17016 -5.79296,2.27402 -1.17937,0.0978 -1.41694,0.0455 -1.41694,-0.31213 0,-0.31688 0.24992,-0.42964 0.95221,-0.42964 1.39246,0 2.43938,-0.59712 4.70155,-2.68156 2.32628,-2.14353 2.77331,-3.22136 0.6301,-1.51922 -0.76399,0.60676 -1.86531,1.32128 -2.4474,1.58784 -1.13699,0.52067 -3.04271,0.66578 -3.04271,0.23169 0,-0.14552 0.32743,-0.26575 0.72761,-0.26717 1.2286,-0.004 3.28307,-1.15173 5.77291,-3.22403 2.24909,-1.87192 3.49812,-3.26711 3.19564,-3.56959 -0.0746,-0.0746 -0.571,0.008 -1.10304,0.18355 -1.3134,0.43346 -5.41812,0.0462 -5.41812,-0.51113 0,-0.11492 0.62508,-0.21506 1.38907,-0.22251 1.51681,-0.0148 3.41563,-0.58551 3.57903,-1.0757 0.0657,-0.19708 -0.23628,-0.30926 -0.83256,-0.30926 -1.09754,0 -2.12352,-0.40423 -3.16365,-1.24647 -0.41135,-0.33308 -0.96231,-0.60561 -1.22437,-0.60561 -0.46682,0 -1.25401,-0.69836 -1.03456,-0.91781 0.0612,-0.0612 0.57719,-0.006 1.14665,0.12223 0.61878,0.13956 1.57018,0.1321 2.36453,-0.0186 1.68606,-0.31975 2.20992,-0.77337 0.89313,-0.77337 -0.52653,0 -1.14565,-0.0723 -1.37583,-0.1606 -0.67755,-0.26 -0.4793,-0.645 0.30908,-0.60027 1.8616,0.10563 5.18215,-1.78909 9.04989,-5.16391 2.68999,-2.34717 3.16509,-3.09088 1.38802,-2.17276 -2.01499,1.04104 -4.02436,1.46619 -6.15354,1.302 -1.26473,-0.0975 -2.22009,-0.30453 -2.39869,-0.51973 -0.16325,-0.1967 -0.25248,-0.36008 -0.19828,-0.36305 3.06285,-0.16796 4.18577,-0.33996 6.01699,-0.92164 1.29539,-0.41148 2.11646,-0.80117 1.97856,-0.93907 -0.12964,-0.12965 -1.72579,-0.31538 -3.54698,-0.41274 -3.03119,-0.16204 -3.41959,-0.1291 -4.59189,0.38946 -1.47192,0.6511 -1.47793,0.65236 -1.47793,0.30864 0,-0.14182 0.78418,-0.70736 1.74263,-1.25678 l 1.74262,-0.99892 -1.41189,-0.1323 c -1.88923,-0.17701 -1.68723,-0.6244 0.36861,-0.8164 2.13616,-0.19951 3.14799,-0.59069 5.09866,-1.97114 1.58667,-1.12286 5.59857,-5.063535 5.3788,-5.283304 -0.064,-0.06398 -1.04432,0.369928 -2.17852,0.96425 -1.13419,0.594321 -3.06377,1.408777 -4.28794,1.809902 -2.2921,0.751055 -3.73451,0.751899 -5.13383,0.003 -0.65647,-0.351331 -0.71277,-0.931547 -0.0624,-0.642737 0.25466,0.113082 0.96623,0.256649 1.58126,0.319036 1.24424,0.126214 1.15204,0.243004 2.04035,-2.584691 0.55619,-1.77047 2.07065,-4.847492 2.96457,-6.023312 0.41728,-0.548872 0.59817,-1.048699 0.49601,-1.370572 -0.12691,-0.399864 0.43416,-1.026308 2.6623,-2.972522 2.68516,-2.345396 7.72032,-6.152371 9.5701,-7.235735 0.47294,-0.27699 0.85989,-0.581671 0.85989,-0.677069 0,-0.0954 -0.58059,-0.25047 -1.29021,-0.344604 -1.88213,-0.249672 -4.37927,-1.606666 -6.01483,-3.268566 -1.44896,-1.472301 -1.80059,-2.126371 -0.96319,-1.791671 0.25466,0.101786 0.76068,0.221014 1.12448,0.264952 0.3638,0.04394 1.43537,0.410175 2.38125,0.813859 2.03308,0.867678 5.5012,1.174502 6.61159,0.584927 0.78937,-0.419127 0.91089,-1.707499 0.35487,-3.762213 -0.23708,-0.876057 -0.2663,-1.396388 -0.0884,-1.574271 0.17788,-0.177883 0.2657,-0.160763 0.2657,0.0518 0,0.734905 0.43809,0.224221 0.88353,-1.029928 0.62691,-1.765105 0.77881,-1.550093 0.30547,0.432388 -0.20702,0.867074 -0.38064,1.894785 -0.38582,2.283802 -0.0121,0.905247 1.17979,2.335405 1.94627,2.335405 0.89887,0 6.03116,-3.473681 6.59846,-4.466023 0.26641,-0.466004 1.57609,-1.807454 2.91042,-2.980999 1.93281,-1.699919 3.03722,-2.423575 5.4322,-3.55942 2.010278,-0.953402 3.544148,-1.497408 4.630198,-1.642161 l 1.62406,-0.216462 -0.92604,-0.399361 c -0.50932,-0.219649 -1.52135,-0.55725 -2.24896,-0.750224 -1.85523,-0.492044 -2.17176,-0.900134 -0.56722,-0.731299 0.73788,0.07764 2.20216,0.589042 3.43958,1.201273 1.50141,0.74284 2.75129,1.148343 4.12225,1.3374 1.08214,0.149228 2.04877,0.221113 2.14806,0.159747 0.0993,-0.06137 0.25464,-0.575003 0.34521,-1.141412 0.15497,-0.969114 0.71433,-1.788368 1.01545,-1.487249 0.0747,0.07474 -0.041,0.673327 -0.2573,1.330201 -0.21625,0.656873 -0.33066,1.256845 -0.25423,1.333269 0.0764,0.07642 0.78293,0.205418 1.57001,0.286652 1.32394,0.136643 1.48942,0.08953 2.21067,-0.62944 0.42878,-0.427426 1.37492,-1.126278 2.10252,-1.553003 l 1.32292,-0.775864 8.99583,-0.04403 c 4.94771,-0.02422 10.12693,-0.115989 11.50938,-0.203936 3.0852,-0.196271 3.67429,0.06101 2.2206,0.96983 -0.56649,0.354157 -2.00924,1.050995 -3.20613,1.54853 -1.19688,0.497534 -2.17915,0.993905 -2.18281,1.103045 -0.012,0.358067 6.25455,0.209838 8.17087,-0.193273 2.89014,-0.60796 3.77359,-0.322067 7.4784,2.420085 1.26196,0.934053 3.14548,2.112439 4.18561,2.618636 3.58689,1.745638 15.94871,10.450934 15.49085,10.908792 -0.0686,0.06858 -1.52774,-0.887391 -3.2426,-2.12437 -5.22461,-3.768674 -8.30413,-5.819872 -8.4774,-5.646601 -0.0907,0.09067 0.42327,0.784017 1.1421,1.540762 1.23543,1.30059 7.99124,8.040774 8.98345,8.962663 0.25387,0.235885 1.33033,1.326429 2.39213,2.423432 3.00359,3.103181 6.6236,4.795466 10.98025,5.133055 1.68812,0.13081 2.19834,0.06665 3.28203,-0.41272 0.70575,-0.312184 1.34797,-0.502816 1.42716,-0.423627 0.0792,0.07919 -0.21309,0.501046 -0.6495,0.937458 -0.75761,0.757609 -0.94237,0.805654 -4.08747,1.06288 -1.8117,0.148171 -3.39829,0.298304 -3.52575,0.333627 -0.12747,0.03532 0.52738,0.703503 1.45521,1.484843 2.86458,2.412317 8.36618,8.371825 8.03309,8.701712 -0.0967,0.09581 -1.52249,-1.254541 -3.16832,-3.000791 -1.64583,-1.74625 -3.05494,-3.114506 -3.13135,-3.04057 -0.0764,0.07394 0.71857,1.264561 1.76662,2.645833 1.61737,2.131582 5.18122,7.583274 6.14643,9.402284 0.15785,0.29748 0.6219,1.42857 1.03122,2.51354 1.11229,2.94825 3.32366,6.60613 6.69066,11.06713 0.91962,1.21842 1.59748,2.28986 1.50636,2.38097 -0.27866,0.27867 -2.08744,-2.02151 -4.80712,-6.11309 -1.485,-2.23409 -2.62953,-3.72038 -2.6812,-3.4818 -0.28992,1.33864 1.05849,12.43818 2.07535,17.0834 0.71526,3.26747 0.88577,3.64379 2.26377,4.99619 0.64625,0.63424 1.17499,1.24744 1.17499,1.36266 0,0.35519 -0.59481,0.2321 -1.10365,-0.22839 -0.26612,-0.24083 -0.48385,-0.31494 -0.48385,-0.16468 0,0.15025 0.17859,0.42141 0.39687,0.60257 0.49482,0.41065 0.51229,0.79375 0.0362,0.79375 -0.36744,0 -2.43769,-2.12256 -2.98174,-3.05708 -0.44302,-0.761 -0.65573,-0.3492 -0.35723,0.6916 0.32863,1.14589 0.3391,4.03037 0.0158,4.36308 -0.13432,0.13825 -0.28315,0.59936 -0.33073,1.0247 -0.1119,1.00039 -0.74796,1.24672 -0.74796,0.28966 0,-0.38548 -0.32742,-1.91345 -0.7276,-3.39548 l -0.72761,-2.69461 -0.22356,2.38125 c -0.26236,2.79465 0.0726,5.54712 1.03331,8.49007 0.73202,2.24248 0.74578,2.31879 0.3771,2.09093 -0.42674,-0.26374 -1.25773,-2.04709 -1.4625,-3.13859 -0.11389,-0.60711 -0.28293,-0.90424 -0.43049,-0.75669 -0.39088,0.39089 0.45374,6.56709 1.23293,9.01561 0.65998,2.07394 0.70947,2.84244 0.14636,2.2727 -0.4938,-0.49962 -2.42175,-6.30388 -3.07008,-9.24278 -0.16996,-0.77041 -0.1857,-0.75486 -0.53555,0.52917 -1.17903,4.3274 -1.20821,4.58952 -0.77077,6.92398 0.59234,3.16113 1.37209,5.00005 2.68469,6.33151 1.29989,1.31855 1.08311,1.80776 -0.32509,0.73367 -0.98606,-0.7521 -2.48599,-3.07293 -2.49032,-3.85323 -0.001,-0.24608 -0.13832,-0.53136 -0.30435,-0.63397 -0.50405,-0.31152 -0.10318,3.55554 0.51414,4.95969 0.62208,1.41498 0.48412,1.79499 -0.3628,0.99935 -0.32266,-0.30312 -0.98633,-0.7507 -1.47483,-0.99461 -0.65407,-0.32658 -1.09741,-0.87934 -1.68194,-2.09707 -0.83264,-1.73462 -1.19165,-2.05417 -1.18909,-1.05838 0.002,0.67618 0.3895,3.14297 0.66544,4.23333 0.27353,1.08082 -0.27137,0.89575 -0.779,-0.26458 -0.23873,-0.54571 -0.67828,-1.37732 -0.97676,-1.84804 -0.45319,-0.71469 -0.56751,-1.44772 -0.69316,-4.44444 l -0.15046,-3.58859 -1.74577,1.70866 c -3.17951,3.1119 -5.45362,4.72971 -7.8312,5.57111 -0.7276,0.25749 -1.65058,0.64245 -2.05106,0.85548 -0.41084,0.21853 -0.87204,0.29462 -1.05834,0.17461 -0.1816,-0.11699 -0.65491,-0.21316 -1.05179,-0.21372 -0.8468,-0.001 -1.1072,-0.4794 -0.33673,-0.61838 0.29105,-0.0525 0.64228,-0.20296 0.78053,-0.33436 0.15031,-0.14286 -0.97303,-0.2389 -2.79452,-0.2389 -3.02601,0 -3.04942,0.005 -3.59122,0.73764 -0.97809,1.32293 -1.24884,5.95778 -0.76061,13.0207 0.22633,3.27422 0.53387,6.46995 0.68342,7.10163 0.23349,0.98621 0.19712,1.26951 -0.25735,2.00485 -0.61174,0.98983 -2.92439,2.35529 -3.56969,2.10767 -0.65433,-0.25109 -0.34715,-0.72771 0.59291,-0.91998 1.10734,-0.22647 2.08946,-0.89344 2.30209,-1.56336 0.0949,-0.29904 -0.0189,-1.30723 -0.25296,-2.24043 -0.55911,-2.22941 -0.88141,-10.55285 -0.59443,-15.35149 0.175,-2.92619 0.32852,-3.87508 0.73275,-4.52914 0.28126,-0.45508 0.51138,-1.02173 0.51138,-1.25921 0,-0.29091 0.22919,-0.43179 0.70246,-0.43179 0.68571,0 0.69104,-0.0126 0.22358,-0.52917 -0.62532,-0.69097 -1.4358,-0.66964 -2.51345,0.0661 -1.48689,1.0152 -1.64045,1.46057 -1.00596,2.91765 0.68489,1.57281 0.43498,1.89241 -0.60751,0.77694 -0.43708,-0.46768 -0.87796,-0.85053 -0.97972,-0.85079 -0.10177,-2.6e-4 -0.52338,-0.53604 -0.93693,-1.19063 l -0.7519,-1.19015 -0.76261,0.59531 c -0.5734,0.44762 -0.72829,0.75073 -0.62431,1.22174 0.1423,0.64458 -0.56283,1.72689 -0.96368,1.47916 -0.11649,-0.072 -0.1422,-0.57521 -0.0571,-1.11824 0.15157,-0.96757 0.14417,-0.97806 -0.36962,-0.52375 -0.70374,0.62228 -0.94677,0.30414 -0.4708,-0.61629 0.50199,-0.97074 0.49203,-1.01603 -0.18463,-0.83908 -0.48155,0.12593 -0.54758,0.06 -0.42171,-0.42138 0.0821,-0.31388 0.0551,-0.62888 -0.06,-0.69999 -0.11506,-0.0711 -0.29176,-0.69632 -0.39265,-1.38933 -0.10089,-0.69301 -0.35276,-1.52373 -0.5597,-1.84603 -0.47765,-0.74393 -0.51194,-2.54535 -0.0455,-2.3922 0.18191,0.0597 0.36966,0.4566 0.41724,0.88194 0.0476,0.42534 0.18981,0.87987 0.31608,1.01006 0.37804,0.38978 0.61765,-1.14512 0.32674,-2.09301 -0.14753,-0.48067 -0.20673,-1.1956 -0.13158,-1.58875 0.11859,-0.62038 0.0665,-0.69254 -0.39425,-0.5463 -0.48966,0.15541 -0.53374,0.0425 -0.56758,-1.45421 -0.0202,-0.8925 -0.0803,-1.69923 -0.13352,-1.79275 -0.0533,-0.0935 -0.008,-0.70581 0.10112,-1.36065 0.12656,-0.76118 0.2099,-0.93382 0.23108,-0.47864 0.0182,0.3916 0.15217,0.78558 0.2977,0.87552 0.14552,0.0899 0.26508,0.36485 0.26569,0.61092 0.001,0.52569 1.15018,2.86193 1.71349,3.48439 0.21484,0.23738 1.20524,2.00516 2.20091,3.92839 0.99566,1.92322 2.04533,3.81158 2.33259,4.19634 l 0.52231,0.69957 1.25496,-1.75867 c 1.32591,-1.8581 2.55105,-4.24921 2.55538,-4.98733 0.001,-0.24254 -0.14625,-0.4941 -0.32815,-0.55902 -0.22603,-0.0807 -0.12133,-0.35135 0.33073,-0.855 0.65222,-0.72665 0.65324,-0.73493 0.0731,-0.59203 -0.32363,0.0797 -1.0644,0.038 -1.64617,-0.0928 -0.87154,-0.19583 -1.24841,-0.13829 -2.14079,0.32685 -1.52978,0.79736 -1.86565,0.36148 -0.87925,-1.14107 1.2244,-1.86509 1.3721,-2.12226 2.2083,-3.84488 0.43855,-0.90344 0.79736,-1.962 0.79736,-2.35235 0,-0.68538 -0.0371,-0.66759 -1.08082,0.51813 -1.82367,2.0718 -1.95871,1.31216 -0.17191,-0.96714 0.43305,-0.55241 0.72773,-1.06402 0.65484,-1.1369 -0.0729,-0.0729 -0.67386,0.23284 -1.33551,0.67938 -0.95273,0.64299 -1.52351,0.82446 -2.74365,0.87232 -1.52286,0.0597 -1.53972,0.0523 -1.45921,-0.63945 0.0711,-0.61128 -0.0628,-0.7516 -1.05833,-1.1084 -0.62688,-0.22469 -1.70533,-0.48259 -2.39655,-0.57311 -0.69123,-0.0905 -1.25677,-0.22464 -1.25677,-0.29806 0,-0.35184 0.60459,-1.14741 1.84609,-2.4292 1.33003,-1.37321 3.97474,-6.15933 3.97474,-7.19307 0,-0.24331 0.0863,-0.52873 0.19189,-0.63427 0.27919,-0.27919 0.81478,-3.09045 0.73636,-3.86506 -0.0368,-0.3638 -0.0822,-0.89317 -0.10073,-1.17638 -0.0292,-0.44502 -0.16114,-0.39147 -0.97203,0.39447 -2.11045,2.04553 -3.16871,4.89556 -2.95821,7.9668 0.0782,1.14138 0.052,2.13102 -0.0583,2.1992 -0.48972,0.30266 -1.17269,-0.67631 -1.45374,-2.08379 l -0.30195,-1.51222 -0.84442,1.30316 c -1.11421,1.71952 -1.56609,2.08556 -2.13237,1.72732 -0.29908,-0.1892 -0.62845,-0.19363 -1.02424,-0.0138 -0.78089,0.35487 -1.97681,-0.15236 -2.93663,-1.24553 -0.4067,-0.46321 -1.50748,-1.39162 -2.44617,-2.06313 -1.6774,-1.19996 -3.20141,-2.93932 -4.06223,-4.63624 -0.35002,-0.68999 -0.59745,-0.85989 -1.25227,-0.85989 -1.00701,0 -3.87771,1.4832 -4.59431,2.37374 -1.36311,1.69398 -6.86502,7.68042 -7.05879,7.68042 -0.19271,0 -1.74471,2.00832 -2.86308,3.70489 -0.68812,1.04388 -1.69369,2.22083 -2.4474,2.86451 -0.40018,0.34177 -0.7276,0.83067 -0.7276,1.08645 0,0.25579 -0.41672,0.89414 -0.92604,1.41858 -0.50933,0.52443 -0.92604,1.07848 -0.92604,1.23121 0,0.15273 -0.1786,0.2777 -0.39688,0.2777 -0.4918,0 -0.5022,-0.25845 -0.0375,-0.93332 0.38592,-0.5605 0.82871,-2.40256 0.72289,-3.00726 -0.0355,-0.20279 0.0401,-0.44091 0.16796,-0.52917 0.21666,-0.14954 0.46844,-2.25892 1.17062,-9.80752 0.15515,-1.66786 0.23581,-4.18459 0.17925,-5.59274 -0.11598,-2.88759 -0.2028,-3.07636 -3.60395,-7.83584 -1.36901,-1.91575 -1.81766,-2.37561 -2.09396,-2.1463 -0.26363,0.21879 -0.48328,0.17272 -0.87748,-0.18402 -0.77163,-0.69831 -0.86655,-0.35937 -0.26851,0.95875 0.57622,1.27003 0.66883,1.82533 0.3044,1.82533 -0.1294,0 -0.84528,-1.24891 -1.59084,-2.77536 -1.25892,-2.57748 -1.44495,-2.8204 -2.609,-3.40698 -1.89123,-0.95303 -2.72126,-1.0488 -4.74072,-0.547 -2.53329,0.62947 -4.551938,1.72271 -5.664468,3.06769 -1.20456,1.45626 -4.07548,6.36515 -4.80081,8.20875 -0.68946,1.75243 -0.72025,4.38111 -0.0815,6.96228 0.54098,2.18622 2.32714,6.05385 3.16288,6.84864 0.32369,0.30783 0.98227,1.57172 1.46351,2.80865 1.03203,2.6526 2.29519,4.67281 3.04823,4.87513 0.296268,0.0796 1.099578,0.14635 1.785138,0.14834 1.85028,0.005 2.38592,-0.70353 2.65242,-3.51034 0.12474,-1.31385 0.59681,-0.76689 0.68002,0.78791 0.11574,2.16252 -0.0657,2.60564 -1.5083,3.68261 -1.04631,0.78113 -1.48616,1.38512 -2.36162,3.24282 -0.5917,1.2556 -1.334188,3.23541 -1.649958,4.39957 -0.31577,1.16417 -0.60389,2.14998 -0.64027,2.1907 -0.0364,0.0407 -0.31763,-1.00436 -0.62502,-2.3224 -0.37997,-1.62927 -1.06597,-3.38933 -2.14288,-5.49799 -1.49429,-2.92593 -1.72717,-3.22891 -4.11264,-5.35052 -1.39076,-1.23692 -2.67518,-2.24895 -2.85427,-2.24895 -0.34445,0 -0.35926,0.35544 -0.0774,1.85781 0.27182,1.44896 -0.43499,1.50125 -1.82694,0.13517 -0.91279,-0.89584 -1.18824,-1.04387 -1.36944,-0.73592 -0.12475,0.21201 -0.50447,0.53133 -0.84382,0.7096 -0.52485,0.27572 -0.6698,0.25191 -0.97056,-0.1594 -0.19445,-0.26593 -0.44227,-0.3948 -0.55071,-0.28636 -0.27091,0.27092 0.33508,5.5906 0.81863,7.18625 0.55035,1.81611 0.50238,1.94711 -0.3974,1.08507 -0.43504,-0.4168 -0.87359,-0.67521 -0.97454,-0.57425 -0.10096,0.10095 -0.0427,0.32444 0.12953,0.49664 0.36454,0.36455 0.4176,1.00101 0.0834,1.00101 -0.12631,0 -1.27497,-1.31875 -2.55258,-2.93056 -3.35695,-4.23505 -3.1209,-4.0871 -3.43548,-2.15327 -0.18028,1.10827 -0.43319,1.74907 -0.79375,2.01121 -0.47408,0.34467 -0.52744,0.67852 -0.51255,3.20705 l 0.0166,2.82232 -0.73396,-0.14679 c -0.40368,-0.0807 -0.80726,-0.0282 -0.89684,0.11675 -0.091,0.14726 -0.70842,-0.19362 -1.39932,-0.77258 -0.92829,-0.77787 -1.55208,-1.6724 -2.50287,-3.58914 -0.69654,-1.40417 -1.38115,-2.48214 -1.52136,-2.39548 -0.37831,0.23381 -0.30874,2.71948 0.12232,4.37022 0.45074,1.72609 0.79256,2.56385 1.37215,3.36288 0.88869,1.22518 -0.2666,0.59698 -1.7978,-0.97757 -1.47272,-1.51441 -1.54344,-1.55308 -1.90254,-1.0404 -0.31175,0.44509 -0.31777,0.73577 -0.0367,1.77131 0.18496,0.68136 0.38041,1.41744 0.43434,1.63572 0.21571,0.87309 -0.66578,0.32948 -0.99155,-0.61149 -0.19201,-0.55459 -0.83613,-1.56165 -1.4314,-2.2379 -0.59526,-0.67626 -1.40264,-1.79995 -1.79419,-2.49711 -0.39154,-0.69715 -0.81108,-1.26767 -0.93231,-1.26782 -0.12123,-1.4e-4 -0.18663,1.06724 -0.14533,2.37197 0.0413,1.30473 0.009,2.4387 -0.0726,2.51993 -0.4575,0.4575 -1.36456,-2.00877 -1.84793,-5.02446 -0.42838,-2.67264 -0.41923,-2.67025 -2.59792,-0.68071 -0.64902,0.59267 -1.38724,1.07759 -1.64048,1.07759 -0.25324,0 -1.28717,0.98226 -2.29762,2.18281 -1.01044,1.20055 -2.38947,2.71743 -3.0645,3.37084 -0.85803,0.83056 -1.34414,1.58142 -1.61557,2.49542 -0.21354,0.71906 -0.38826,1.39087 -0.38826,1.4929 0,0.26621 6.06731,3.15803 6.62583,3.15803 0.12458,0 1.47473,0.5887 3.00033,1.30823 1.5256,0.71953 3.34734,1.56704 4.04831,1.88336 0.70097,0.31633 1.98887,0.90585 2.86199,1.31005 0.87313,0.4042 2.86406,1.27938 4.42429,1.94484 3.74607,1.59776 4.95637,2.22378 8.34283,4.31532 2.98365,1.84276 8.01624,5.80705 8.70352,6.85598 0.22154,0.33811 0.95815,0.93331 1.63692,1.32266 2.62265,1.50443 3.94269,2.5015 5.62906,4.25181 1.84087,1.91067 2.81005,3.53246 3.5398,5.92334 0.55044,1.80342 1.49029,3.95733 1.72676,3.95733 0.0981,0 0.35951,-0.20836 0.58092,-0.46303 0.59705,-0.6867 0.73629,-3.3235 0.46496,-8.80478 -0.13307,-2.68807 -0.25713,-5.95897 -0.27569,-7.26865 -0.0346,-2.44492 -0.64715,-4.88093 -1.42207,-5.65585 -0.33479,-0.33479 -0.54166,-0.25368 -1.63211,0.63986 -1.68984,1.38469 -3.30564,3.14282 -3.89757,4.2409 -0.26883,0.49871 -0.59991,0.83807 -0.73572,0.75414 -0.38267,-0.23651 0.0229,-1.8652 0.98085,-3.93847 1.27881,-2.76781 2.34051,-5.79704 3.56087,-10.15975 1.23837,-4.42715 1.46709,-5.06313 1.82089,-5.06313 0.38898,0 0.4934,0.27528 0.9584,2.52649 0.31917,1.54519 1.084328,3.42159 2.957818,7.25344 1.39,2.84297 2.9723,6.12153 3.51622,7.2857 0.54393,1.16417 1.88111,3.96214 2.97153,6.21771 1.09041,2.25557 2.96112,6.3037 4.15713,8.99583 2.9446,6.62809 4.36839,9.44139 6.71213,13.26268 0.6807,1.10983 1.23764,2.24842 1.23764,2.53018 0,1.16104 3.13462,2.99256 5.12172,2.99256 0.47785,0 1.51512,-0.32742 2.30506,-0.7276 1.26555,-0.64113 1.49366,-0.88484 1.91931,-2.05053 0.26569,-0.7276 1.09049,-2.37548 1.8329,-3.66196 1.25259,-2.17054 1.34661,-2.4557 1.3052,-3.9585 -0.0245,-0.89071 -0.16148,-1.98126 -0.30428,-2.42346 -0.15205,-0.47081 -0.18032,-1.70852 -0.0682,-2.98667 l 0.19143,-2.18269 1.97139,2.28505 c 1.08426,1.25677 2.30796,2.48973 2.71934,2.7399 0.84542,0.51413 1.84147,0.42113 2.4032,-0.22438 0.39681,-0.456 1.17851,-2.70266 1.25613,-3.6102 0.0725,-0.84771 -0.0447,-1.61915 -0.19091,-1.25677 -0.24751,0.6134 -0.81428,0.33693 -1.81645,-0.8861 -0.5828,-0.71122 -1.47553,-1.4219 -2.14854,-1.71039 -1.63534,-0.70098 -1.5082,-1.15239 0.27281,-0.96857 2.00842,0.20729 5.33282,1.78766 5.92123,2.81487 0.27045,0.47213 0.75803,0.86823 1.18429,0.96209 0.88798,0.19552 1.17858,0.59424 0.59602,0.81779 -0.24899,0.0955 -0.75714,-0.0738 -1.19668,-0.39874 -1.13868,-0.84187 -1.48388,-0.72616 -1.66968,0.55967 -0.43512,3.0112 -1.71363,4.95948 -3.25642,4.96233 -0.72779,0.001 -1.05865,0.17112 -3.06338,1.57191 -1.01836,0.71158 -3.32041,4.36472 -4.49999,7.14108 -0.82821,1.94934 -2.01443,3.32102 -3.43467,3.97167 -0.82211,0.37663 -1.27817,0.40936 -2.77813,0.1994 -0.98701,-0.13816 -2.11823,-0.24149 -2.51384,-0.22963 -0.55379,0.0166 -0.90377,-0.23454 -1.52113,-1.0916 -0.44102,-0.61225 -1.72196,-1.76802 -2.84653,-2.56839 -1.12458,-0.80036 -3.23804,-2.6882 -4.69658,-4.19519 -1.45854,-1.50699 -3.12814,-3.07331 -3.71023,-3.48071 -0.58208,-0.40741 -1.30766,-0.97746 -1.61239,-1.26679 -0.68821,-0.65342 -2.10846,-1.40347 -2.29822,-1.2137 -0.19006,0.19005 -1.59896,-0.55395 -2.02803,-1.07095 -0.54406,-0.65555 -1.6965,-0.49152 -2.82237,0.40172 -1.317958,1.04563 -1.502948,1.39665 -1.283408,2.43521 0.22316,1.05569 0.913248,2.2361 2.521848,4.31363 0.68637,0.88646 1.45684,2.01756 1.71215,2.51354 0.25531,0.49598 1.49557,2.4496 2.75614,4.34137 2.62327,3.93682 3.07416,4.88788 3.44952,7.27604 0.14866,0.94588 0.57161,2.96995 0.93987,4.49792 0.36827,1.52797 0.77112,3.43297 0.89523,4.23333 0.24845,1.60216 1.02818,4.11217 1.72987,5.56859 0.29404,0.61029 1.20604,0.78352 1.73101,1.65729 0.90857,1.51225 0.16315,0.31777 0.88399,1.57134 0.15658,0.27231 0.83652,0.49728 0.98692,1.75705 0.21489,1.80009 0.54419,0.76995 0.65846,1.42533 0.43745,2.50874 0.22835,0.91413 0.25317,1.75815 0.0223,0.75923 0.27431,0.77409 0.27769,1.09063 0.005,0.44838 0.001,0.7906 0.0514,1.35644 0.0437,0.49403 -0.20374,0.60609 -0.36618,1.04536 -0.12398,0.33904 -0.06,0.86676 -0.9269,1.31178 -0.88907,0.45641 -0.97221,0.0849 -1.74098,0.65834 l -1.14068,0.85081 c -1.02185,1.21833 -1.23897,0.9918 -0.80293,1.03329 -0.75222,0.2672 -0.83352,0.82287 -1.95669,1.00966 z m 25.1365,-50.47166 c 0.3124,-0.29104 0.75157,-0.52916 0.97593,-0.52916 0.62789,0 0.50806,-0.23852 -0.85114,-1.69423 -0.6925,-0.74166 -1.46016,-1.64614 -1.70592,-2.00994 -0.44118,-0.65309 -0.447,-0.63907 -0.4607,1.10886 -0.008,0.97368 0.10834,1.84586 0.25772,1.93819 0.14938,0.0923 0.24966,0.3077 0.22285,0.47863 -0.0777,0.49543 0.32666,1.23682 0.67459,1.23682 0.17527,0 0.57428,-0.23812 0.88667,-0.52917 z m -0.90918,-0.44097 c 0.097,-0.097 0.25576,-0.097 0.35277,0 0.097,0.097 0.0176,0.17639 -0.17638,0.17639 -0.19403,0 -0.27341,-0.0794 -0.17639,-0.17639 z m -0.88195,-2.60173 c 0,-0.0728 0.0595,-0.1323 0.13229,-0.1323 0.0728,0 0.1323,0.0595 0.1323,0.1323 0,0.0728 -0.0595,0.13229 -0.1323,0.13229 -0.0728,0 -0.13229,-0.0595 -0.13229,-0.13229 z m -21.97901,2.05052 c -0.0162,-0.6352 -0.0456,-0.6604 -0.23148,-0.19844 -0.11708,0.29104 -0.16122,0.61846 -0.0981,0.7276 0.22412,0.38741 0.3479,0.18865 0.32956,-0.52916 z m -3.2446,-1.30087 c -0.097,-0.097 -0.17639,-0.0176 -0.17639,0.17639 0,0.19403 0.0794,0.2734 0.17639,0.17639 0.097,-0.097 0.097,-0.25577 0,-0.35278 z m 1.5875,-0.79375 c -0.097,-0.097 -0.17639,-0.0176 -0.17639,0.17639 0,0.19403 0.0794,0.2734 0.17639,0.17639 0.097,-0.097 0.097,-0.25577 0,-0.35278 z m -4.39289,-0.94809 c 0.009,-0.1819 0.0712,-1.81901 0.13769,-3.63802 0.16599,-4.5421 0.31768,-6.98012 0.51699,-8.30922 0.13229,-0.88216 0.0494,-1.32234 -0.38261,-2.03092 l -0.55151,-0.90465 -0.0387,1.98437 c -0.12254,6.27899 -0.0685,13.22916 0.10289,13.22916 0.10914,1e-5 0.20601,-0.14882 0.21527,-0.33072 z m 3.07694,-1.18559 c -0.0671,-0.25743 -0.12638,-0.11087 -0.13177,0.32569 -0.005,0.43656 0.0495,0.64719 0.12196,0.46806 0.0725,-0.17913 0.0769,-0.53632 0.01,-0.79375 z m -5.14143,-0.36505 c -0.19681,-0.7526 -0.33408,-0.60264 -0.32954,0.36001 0.003,0.58464 0.0771,0.74465 0.23215,0.49988 0.12546,-0.19801 0.16928,-0.58496 0.0974,-0.85989 z m 6.81016,0.95533 c 0,-0.0728 -0.0595,-0.1323 -0.13229,-0.1323 -0.0728,0 -0.13229,0.0595 -0.13229,0.1323 0,0.0728 0.0595,0.13229 0.13229,0.13229 0.0728,0 0.13229,-0.0595 0.13229,-0.13229 z m -6.96736,-3.48369 c -0.097,-0.097 -0.17639,-0.0176 -0.17639,0.17639 0,0.19403 0.0794,0.27341 0.17639,0.17639 0.097,-0.097 0.097,-0.25576 0,-0.35278 z m 0.17198,-2.46944 c 0.10512,-0.79502 0.0796,-1.0148 -0.0769,-0.66146 -0.22375,0.50532 -0.37506,2.19215 -0.17603,1.96233 0.0525,-0.0606 0.16632,-0.64603 0.2529,-1.30087 z m 5.39123,-0.98715 c -0.0671,-0.25743 -0.12638,-0.11087 -0.13177,0.32569 -0.005,0.43656 0.0495,0.64719 0.12197,0.46806 0.0725,-0.17913 0.0769,-0.53632 0.01,-0.79375 z m -5.29166,-1.32292 c -0.0671,-0.25743 -0.12639,-0.11087 -0.13178,0.3257 -0.005,0.43656 0.0495,0.64718 0.12197,0.46805 0.0725,-0.17913 0.0769,-0.53632 0.01,-0.79375 z m -1.5875,-2.38125 c -0.0671,-0.25743 -0.12639,-0.11087 -0.13178,0.3257 -0.005,0.43656 0.0495,0.64718 0.12197,0.46805 0.0725,-0.17913 0.0769,-0.53632 0.01,-0.79375 z m 0.22455,-10.02731 c -0.17912,-0.9548 -0.84998,-1.13476 -0.75243,-0.20185 0.0288,0.27538 0.0714,2.46522 0.0948,4.86631 0.0233,2.4011 0.11884,4.48469 0.21224,4.63021 0.24319,0.37891 0.6536,-8.18501 0.44543,-9.29467 z m 1.44417,8.23634 c 0,-0.0728 -0.0595,-0.13229 -0.13229,-0.13229 -0.0728,0 -0.13229,0.0595 -0.13229,0.13229 0,0.0728 0.0595,0.13229 0.13229,0.13229 0.0728,0 0.13229,-0.0595 0.13229,-0.13229 z m -0.0882,-1.36702 c -0.097,-0.097 -0.17639,-0.0176 -0.17639,0.17639 0,0.19403 0.0794,0.27341 0.17639,0.17639 0.097,-0.097 0.097,-0.25576 0,-0.35278 z m 0.41735,-1.99566 c 0.0685,-0.46703 0.0328,-1.15163 -0.0795,-1.52135 -0.17372,-0.57203 -0.20754,-0.50785 -0.22689,0.43062 -0.0125,0.60656 -0.095,1.29117 -0.18334,1.52135 -0.0883,0.23019 -0.0423,0.41852 0.10226,0.41852 0.14457,0 0.31894,-0.38211 0.38749,-0.84914 z m -9.324988,-3.78107 c 0,-0.0728 -0.0595,-0.13229 -0.13229,-0.13229 -0.0728,0 -0.13229,0.0595 -0.13229,0.13229 0,0.0728 0.0595,0.13229 0.13229,0.13229 0.0728,0 0.13229,-0.0595 0.13229,-0.13229 z m 4.9025,-0.85725 c -0.17049,-0.67928 -0.55384,-1.11373 -0.99097,-1.12307 -0.10423,-0.002 0.0563,0.41266 0.35686,0.92199 0.65637,1.11246 0.88071,1.1836 0.63411,0.20108 z m -3.48648,-0.29008 c 0.41389,-0.45733 0.40076,-0.50361 -0.22357,-0.78807 -0.62717,-0.28576 -0.66328,-0.25931 -0.66328,0.48586 0,0.90545 0.26058,0.99424 0.88685,0.30221 z m 1.62669,-1.10163 c 0.0899,-0.14552 -0.0291,-0.26458 -0.26458,-0.26458 -0.23546,0 -0.35452,0.11906 -0.26459,0.26458 0.0899,0.14552 0.209,0.26458 0.26459,0.26458 0.0556,0 0.17464,-0.11906 0.26458,-0.26458 z m 4.101038,-0.66146 c 0,-0.0728 -0.0595,-0.13229 -0.13229,-0.13229 -0.0728,0 -0.13229,0.0595 -0.13229,0.13229 0,0.0728 0.0595,0.13229 0.13229,0.13229 0.0728,0 0.13229,-0.0595 0.13229,-0.13229 z m -6.614578,-0.26458 c 0,-0.0728 -0.0595,-0.13229 -0.13229,-0.13229 -0.0728,0 -0.1323,0.0595 -0.1323,0.13229 0,0.0728 0.0595,0.13229 0.1323,0.13229 0.0728,0 0.13229,-0.0595 0.13229,-0.13229 z m 4.945848,-2.70695 c -0.0671,-0.25743 -0.126378,-0.11086 -0.131768,0.3257 -0.005,0.43656 0.0495,0.64719 0.121968,0.46805 0.0725,-0.17913 0.0769,-0.53631 0.01,-0.79375 z m -3.622938,-1.65868 c 0,-0.14552 -0.12608,-0.26458 -0.28019,-0.26458 -0.15411,0 -0.20662,0.11906 -0.11668,0.26458 0.0899,0.14552 0.21603,0.26459 0.2802,0.26459 0.0642,0 0.11667,-0.11907 0.11667,-0.26459 z m 0.70991,-3.48919 c -0.0845,-0.21107 -0.14715,-0.14837 -0.15985,0.15985 -0.0115,0.27892 0.0511,0.43519 0.13896,0.34727 0.0879,-0.0879 0.0973,-0.31612 0.0209,-0.50712 z m 0.64719,-0.8158 c -0.4405,-0.44049 -0.68998,-0.003 -0.27999,0.49115 0.24796,0.29878 0.39137,0.33446 0.46434,0.11554 0.0581,-0.17421 -0.0249,-0.44722 -0.18435,-0.60669 z m 56.330268,-6.6851 c 0.27872,-0.33583 0.22818,-0.64034 -0.28987,-1.74639 -0.62736,-1.33944 -0.62748,-1.33952 -0.83506,-0.58543 -0.18765,0.68167 -0.0614,2.03244 0.23742,2.54014 0.18401,0.31264 0.52075,0.2336 0.88751,-0.20832 z m 11.09537,-1.66511 c 0.59702,-0.49841 0.79356,-0.81295 0.58754,-0.94028 -0.17385,-0.10745 -0.57991,0.079 -0.92611,0.42518 -0.50582,0.50582 -0.77885,0.58332 -1.52062,0.43161 -0.93186,-0.19058 -1.5809,0.22964 -0.96218,0.62297 0.6874,0.43699 1.9382,0.19782 2.82137,-0.53948 z m -2.18835,-1.63135 c -0.25711,-0.68115 -0.35164,-0.74041 -0.67126,-0.42079 -0.31574,0.31574 -0.31703,0.43412 -0.008,0.78273 0.64526,0.7291 1.01688,0.53122 0.67975,-0.36194 z m 2.14438,0.21072 c 0.73621,-0.73622 0.0879,-2.43671 -1.08479,-2.84552 -0.44011,-0.15342 -0.8504,-0.22874 -0.91177,-0.16736 -0.2159,0.21589 1.06581,3.33038 1.37055,3.33038 0.16968,0 0.45138,-0.14288 0.62601,-0.3175 z m 4.27594,-2.37822 c 0.29671,-0.31849 0.53947,-0.73776 0.53947,-0.93172 0,-0.19396 0.29766,-0.48828 0.66146,-0.65404 0.3638,-0.16575 0.66146,-0.43222 0.66146,-0.59214 0,-0.15992 0.23812,-0.43947 0.52917,-0.62123 0.51781,-0.32338 0.72423,-0.85635 0.33073,-0.85393 -0.10915,6.8e-4 -0.55563,0.32982 -0.99219,0.73142 -0.43656,0.40161 -1.3593,1.02593 -2.05052,1.38739 -1.342,0.70175 -1.4074,0.80831 -0.98288,1.60153 0.35334,0.66022 0.63928,0.64546 1.3033,-0.0673 z M 68.167792,144.66111 c 0.0939,-1.1355 0.0268,-1.59921 -0.2668,-1.8429 -0.21579,-0.17908 -0.49054,-0.56787 -0.61056,-0.86396 -0.3566,-0.87976 -0.29762,2.32528 0.0679,3.69209 0.38174,1.4273 0.63535,1.11861 0.80941,-0.98523 z m 15.06496,1.04155 c -0.36513,-0.45755 -0.66193,-3.15793 -0.61217,-5.56981 0.0321,-1.55443 -0.10858,-2.51939 -0.55918,-3.83645 -0.78201,-2.28572 -0.90976,-1.51538 -0.43034,2.59502 0.19589,1.6795 0.31816,3.50284 0.2717,4.05186 -0.0973,1.14924 0.35436,2.7479 0.97822,3.46277 0.38612,0.44245 0.43847,0.44785 0.51756,0.0534 0.0484,-0.24134 -0.0262,-0.58191 -0.16579,-0.75682 z m 18.151468,-1.25416 c -0.18077,-0.5236 -0.70483,0.2063 -0.86255,1.20133 l -0.16766,1.05773 0.5561,-1.01077 c 0.30586,-0.55592 0.51921,-1.11765 0.47411,-1.24829 z m -25.960108,0.0813 c -0.0671,-0.25743 -0.12638,-0.11087 -0.13177,0.32569 -0.005,0.43657 0.0495,0.64719 0.12197,0.46806 0.0725,-0.17913 0.0769,-0.53632 0.01,-0.79375 z m 19.63527,-2.2348 c -0.19976,-0.37325 -0.2525,-1.23507 -0.14978,-2.4474 l 0.15855,-1.87127 -1.96223,-3.99549 c -1.80546,-3.67627 -3.0485,-7.24588 -3.0485,-8.75435 0,-0.33639 -0.23539,-0.84702 -0.5231,-1.13473 -0.51904,-0.51904 -0.52526,-0.51907 -0.80059,-0.005 -0.58043,1.08453 -0.8527,4.79039 -0.50531,6.87771 0.32958,1.98037 1.22184,3.85389 1.97259,4.14199 0.38894,0.14925 0.53393,1.17771 0.21149,1.50016 -0.0957,0.0958 -0.34295,0.034 -0.54933,-0.13733 -0.29197,-0.24231 -0.43193,-0.22712 -0.63069,0.0684 -0.20117,0.29914 -0.23905,0.26741 -0.17828,-0.14931 0.0477,-0.32677 -0.0568,-0.50136 -0.27321,-0.45646 -0.19272,0.04 -0.29486,-0.0196 -0.22699,-0.13229 0.0679,-0.11275 -0.17146,-0.62171 -0.53186,-1.13104 l -0.65527,-0.92604 0.18779,1.19063 c 0.27598,1.7498 0.52883,2.25946 1.1439,2.30579 0.30293,0.0228 0.81016,0.28314 1.12718,0.57849 0.31703,0.29535 0.69583,0.46319 0.8418,0.37298 0.14597,-0.0902 0.19742,-0.054 0.11434,0.0804 -0.0831,0.13443 0.66002,0.9565 1.65134,1.82682 0.99132,0.87032 1.95399,1.85029 2.13926,2.17771 0.43308,0.76535 0.896,0.7836 0.4869,0.0192 z m 65.641798,-0.87909 c 0,-0.0728 -0.0595,-0.13229 -0.1323,-0.13229 -0.0728,0 -0.13229,0.0595 -0.13229,0.13229 0,0.0728 0.0595,0.13229 0.13229,0.13229 0.0728,0 0.1323,-0.0595 0.1323,-0.13229 z m -93.486118,-0.57326 c -0.097,-0.097 -0.17639,-0.0176 -0.17639,0.17638 0,0.19403 0.0794,0.27341 0.17639,0.17639 0.097,-0.097 0.097,-0.25576 0,-0.35277 z m 98.093688,-5.49829 c 0.49368,-1.02627 1.07509,-2.40173 1.29203,-3.05658 0.21693,-0.65484 0.48884,-1.42875 0.60424,-1.71979 0.18664,-0.47072 0.16051,-0.48906 -0.2366,-0.16604 -0.24552,0.19972 -0.44641,0.52123 -0.44641,0.71446 0,0.19323 -0.1522,0.44654 -0.33822,0.56291 -0.35179,0.22007 -3.35204,4.35621 -3.89274,5.36653 -0.25298,0.4727 -0.22486,0.67074 0.15479,1.09025 0.45669,0.50464 0.47561,0.50143 1.21461,-0.20658 0.41288,-0.39557 1.15462,-1.55889 1.6483,-2.58516 z m -1.16799,1.04447 c 0,-0.0728 0.0595,-0.1323 0.13229,-0.1323 0.0728,0 0.13229,0.0595 0.13229,0.1323 0,0.0728 -0.0595,0.13229 -0.13229,0.13229 -0.0728,0 -0.13229,-0.0595 -0.13229,-0.13229 z m -76.729168,-2.91042 c 0,-0.0728 -0.0595,-0.13229 -0.13229,-0.13229 -0.0728,0 -0.13229,0.0595 -0.13229,0.13229 0,0.0728 0.0595,0.1323 0.13229,0.1323 0.0728,0 0.13229,-0.0595 0.13229,-0.1323 z M 153.9984,131.8468 c -0.097,-0.097 -0.17639,-0.0176 -0.17639,0.17639 0,0.19402 0.0794,0.2734 0.17639,0.17639 0.097,-0.097 0.097,-0.25577 0,-0.35278 z m 1.40523,-1.85209 c 0.003,-0.16977 0.0957,-0.34836 0.20554,-0.39687 0.40168,-0.17744 2.44194,-3.58797 3.45577,-5.77674 1.27203,-2.74621 2.42999,-5.43603 2.42999,-5.64463 0,-0.33272 -2.17843,0.80353 -3.39815,1.77245 -1.27995,1.01674 -1.28748,1.0319 -1.3155,2.64583 -0.0344,1.9799 -0.6976,5.27906 -1.08736,5.40898 -0.15643,0.0521 -0.28441,0.35453 -0.28441,0.67199 0,0.31745 -0.23813,1.02147 -0.52917,1.56449 -0.29104,0.54302 -0.52652,1.07704 -0.52328,1.1867 0.009,0.31923 1.04007,-1.09119 1.04657,-1.4322 z m -8.72537,0.44098 c 0,-0.14552 -0.17859,-0.26459 -0.39688,-0.26459 -0.21828,0 -0.39687,0.11907 -0.39687,0.26459 0,0.14552 0.17859,0.26458 0.39687,0.26458 0.21829,0 0.39688,-0.11906 0.39688,-0.26458 z m 0.52511,-1.40468 c 0.002,-0.11773 -0.11501,-0.14047 -0.26053,-0.0505 -0.14552,0.0899 -0.26276,0.36485 -0.26053,0.61093 0.003,0.38557 0.0395,0.39255 0.26053,0.0505 0.14107,-0.21829 0.25831,-0.4932 0.26053,-0.61093 z m 0.26864,-0.5797 c 0,-0.0728 -0.0595,-0.13229 -0.13229,-0.13229 -0.0728,0 -0.13229,0.0595 -0.13229,0.13229 0,0.0728 0.0595,0.13229 0.13229,0.13229 0.0728,0 0.13229,-0.0595 0.13229,-0.13229 z m -6.53609,-1.03384 c -0.26145,-0.35034 -0.51757,-0.52138 -0.56915,-0.38011 -0.0516,0.14127 0.12701,0.42412 0.39687,0.62855 0.68746,0.52078 0.71583,0.47988 0.17228,-0.24844 z m 5.97556,-1.54953 c 0.14951,-0.47092 0.44155,-1.77895 0.64898,-2.90673 0.40937,-2.22575 0.25679,-2.51128 -0.84832,-1.5875 -0.44543,0.37234 -0.58782,0.8864 -0.72707,2.62499 -0.17576,2.19439 -0.0398,3.15462 0.40743,2.8782 0.13594,-0.084 0.36948,-0.53805 0.51898,-1.00896 z m -6.58322,0.20212 c 0,-0.0728 -0.0595,-0.13229 -0.13229,-0.13229 -0.0728,0 -0.13229,0.0595 -0.13229,0.13229 0,0.0728 0.0595,0.13229 0.13229,0.13229 0.0728,0 0.13229,-0.0595 0.13229,-0.13229 z m -1.94028,-1.6316 c -0.097,-0.097 -0.17639,-0.0176 -0.17639,0.17639 0,0.19403 0.0794,0.27341 0.17639,0.17639 0.097,-0.097 0.097,-0.25576 0,-0.35278 z m -0.44502,-0.6835 c -0.006,-0.47861 -0.46765,-1.13785 -0.66136,-0.94415 -0.0907,0.0908 -0.009,0.41473 0.18155,0.71994 0.40075,0.6417 0.48541,0.68126 0.47981,0.22421 z M 68.229302,96.681514 c 3.78249,-1.848841 4.67841,-2.676428 7.71854,-7.12984 1.48789,-2.179575 2.71139,-4.121403 2.71888,-4.315173 0.0154,-0.397374 -0.64472,-0.03707 -4.19156,2.28797 -3.01726,1.977885 -7.27473,6.239684 -8.07769,8.0859 l -0.24432,0.561772 -0.1025,-0.577711 c -0.0564,-0.317742 0.25587,-1.300007 0.69387,-2.182813 1.49188,-3.006891 -0.41247,-1.410395 -2.49723,2.093534 -0.64755,1.088364 -1.17737,2.242805 -1.17737,2.565426 0,0.582774 0.009,0.583948 1.38907,0.180725 0.76398,-0.223223 2.46062,-0.929628 3.77031,-1.56979 z m 15.15365,-23.353215 c 0.25741,-0.163364 0.21055,-0.328286 -0.19844,-0.698414 -0.52473,-0.474874 -0.53542,-0.470524 -0.53542,0.217917 0,0.73194 0.1662,0.84076 0.73386,0.480497 z M 146.41671,190.95912 c 0.002,-0.1819 0.47592,-0.55727 1.0539,-0.83415 1.70746,-0.81799 1.99744,-1.28655 1.70058,-2.74785 -0.41866,-2.06083 0.0209,-3.64215 1.3943,-5.0155 0.64253,-0.64254 1.71545,-1.4103 2.38427,-1.70616 1.1881,-0.52555 1.25161,-0.52714 2.76394,-0.0692 0.85134,0.25777 1.54789,0.56186 1.54789,0.67575 0,0.44784 -0.52187,0.48199 -1.59259,0.10422 -1.77582,-0.62655 -2.25493,-0.51422 -3.6753,0.86169 -1.48953,1.4429 -1.93381,2.66833 -1.84633,5.09252 0.0633,1.75422 -0.0942,2.03698 -1.78177,3.19804 -1.18573,0.8158 -1.95393,0.98951 -1.94889,0.44069 z m 4.36888,-12.92841 c -0.77882,-0.68381 -1.00617,-0.76728 -1.33852,-0.49146 -0.47567,0.39477 -0.78106,0.18067 -0.56084,-0.39319 0.26407,-0.68816 1.54743,-0.48181 2.48838,0.4001 1.50349,1.40914 0.96683,1.85062 -0.58902,0.48455 z M 99.516282,134.90315 c -0.73186,-0.54603 -0.95088,-1.02788 -0.4672,-1.02788 0.14323,0 0.64924,0.3537 1.124478,0.78599 0.99653,0.90649 0.48555,1.09454 -0.657278,0.24189 z m 2.807408,-1.23707 c -0.99464,-0.8584 -1.85312,-2.32587 -2.08559,-3.56503 -0.1382,-0.73669 -0.383528,-1.00771 -1.327198,-1.46618 -1.69605,-0.824 -2.44504,-2.59695 -2.09191,-4.95179 0.21675,-1.44543 1.03878,-2.51465 2.66676,-3.46872 0.940438,-0.55113 1.506238,-0.684 2.878918,-0.67608 1.49937,0.009 1.7702,-0.0687 2.21316,-0.63179 0.27759,-0.3529 0.57687,-0.64164 0.66507,-0.64164 0.29677,0 0.16361,0.48812 -0.2445,0.89622 -0.36341,0.36342 -0.32359,0.44688 0.38904,0.81539 0.90354,0.46724 1.4905,1.33837 1.07487,1.59524 -0.14592,0.0902 -0.2653,0.0632 -0.2653,-0.0599 0,-0.12314 -0.23813,-0.24183 -0.52917,-0.26375 -0.6566,-0.0495 -0.67365,0.32156 -0.0512,1.11294 l 0.47801,0.6077 0.55837,-0.83055 c 0.54689,-0.81347 1.39602,-3.31125 1.39602,-4.10649 0,-0.31249 -0.0706,-0.33121 -0.3175,-0.0843 -0.33176,0.33177 -1.54806,0.41328 -2.47013,0.16555 -0.29626,-0.0796 -0.93814,-0.73012 -1.42638,-1.44561 -0.48825,-0.71549 -1.11173,-1.37198 -1.38551,-1.45888 -0.86265,-0.2738 -2.02067,0.15007 -3.613468,1.32262 -2.68053,1.97329 -3.02156,2.66909 -3.48132,7.10296 -0.25274,2.43729 -0.2333,2.64267 0.41162,4.34916 0.37229,0.98509 0.77984,2.14827 0.90568,2.58483 0.12583,0.43656 0.31024,1.06164 0.4098,1.38906 0.13295,0.43723 0.0733,0.59531 -0.22468,0.59531 -0.3793,0 -1.5735,-2.18294 -2.24351,-4.10104 -0.15713,-0.44984 -0.23108,-2.05476 -0.17067,-3.70417 0.0586,-1.60072 0.11802,-3.2676 0.13198,-3.70416 0.0336,-1.0504 0.56987,-2.88226 1.29439,-4.4216 1.388,-2.94896 5.662388,-6.09551 8.302468,-6.11176 2.04597,-0.0126 3.23179,0.81101 4.18065,2.90368 0.87627,1.93257 1.00623,4.19924 0.36298,6.33086 -0.21557,0.71435 -0.57913,2.25132 -0.80791,3.41548 -0.54853,2.79129 -0.85489,3.56271 -1.75406,4.41686 -0.56094,0.53285 -0.75317,0.96683 -0.76178,1.71979 -0.0205,1.79494 -0.41584,3.15674 -1.20252,4.14267 -0.42368,0.53101 -0.82987,0.96063 -0.90263,0.95472 -0.0728,-0.006 -0.50607,-0.33333 -0.9629,-0.7276 z m 4.66707,-8.95756 c 0,-0.55946 -0.0676,-0.60525 -0.52917,-0.35825 -0.38649,0.20684 -0.52679,0.54822 -0.52036,1.26608 l 0.009,0.98288 0.52036,-0.62463 c 0.2862,-0.34354 0.52037,-0.91328 0.52037,-1.26608 z m -3.43959,1.36154 c 0,-0.0728 -0.0595,-0.13229 -0.13229,-0.13229 -0.0728,0 -0.13229,0.0595 -0.13229,0.13229 0,0.0728 0.0595,0.13229 0.13229,0.13229 0.0728,0 0.13229,-0.0595 0.13229,-0.13229 z m 0.44098,-5.33576 c -0.097,-0.097 -0.25577,-0.097 -0.35278,0 -0.097,0.097 -0.0176,0.17639 0.17639,0.17639 0.19403,0 0.2734,-0.0794 0.17639,-0.17639 z m 1.94027,1.63159 c 0,-0.0728 0.0595,-0.13229 0.1323,-0.13229 0.0728,0 0.13229,0.0595 0.13229,0.13229 0,0.0728 -0.0595,0.1323 -0.13229,0.1323 -0.0728,0 -0.1323,-0.0595 -0.1323,-0.1323 z M 86.331022,60.891816 c 0.46119,-0.861736 3.16213,-2.697879 4.96892,-3.377954 1.85619,-0.698669 4.73963,-1.101051 5.54965,-0.774448 0.45721,0.184351 0.45471,0.206045 -0.0453,0.393597 -0.29104,0.109171 -1.12448,0.21808 -1.85208,0.242019 -1.78487,0.05873 -1.7464,0.04705 -5.21564,1.583588 -0.68579,0.303739 -1.71225,0.972679 -2.28103,1.486534 -1.14687,1.03613 -1.51914,1.183994 -1.12453,0.446664 z"
       id="path12"
       sodipodi:nodetypes="sssssssssscsssscssssscsssccsccscssssssscsscsssssssccscssscscsssssscsssssssssssssssssssssssssscssssscsssssssccsssscsssssssssssssssssssssssssssssssssssssssssssscsssssssssssscssssscsssscsssscssscsssssscssssscsssscssscssssssssssssssccsscssscscssscssssssssccssssscscsscscsscssssssssssssssssssssssssssscssscssssscssssssssssssscsssssccssssssssssssssscsssssssssssssscssssscsssscssssssssssssscsscssssssssssccscsssssssssssssssssssssssssssscsscccsssscssssssssssssssscssssssssssscsccsssscscccssssssssssssssscsssccsccccsccccscccscsccsssssssssssscsssssssssscsscsscssscsssssscssscscccsscsssccsscsccsssssscssssccccccssscscsssssssssccsccccssscssccsccssccccccscssscssccscssscsssssssccssssssscsssssssssssssssssssssscsscssssscssccscssscscscssssssssssssssssssssscsscsccsscsscccssssssssssssssssssssssssssscssccssscsssssscccssssssssssssscssssssscsccccsccsccssssssssssssssssssssssss" /></g></svg>
