<?xml version="1.0" encoding="UTF-8" standalone="no"?>
<!-- Created with Inkscape (http://www.inkscape.org/) -->

<svg
   width="188.16736mm"
   height="175.98416mm"
   viewBox="0 0 188.16736 175.98416"
   version="1.1"
   id="svg1"
   xml:space="preserve"
   inkscape:version="1.3.2 (091e20e, 2023-11-25, custom)"
   sodipodi:docname="poids.svg"
   xmlns:inkscape="http://www.inkscape.org/namespaces/inkscape"
   xmlns:sodipodi="http://sodipodi.sourceforge.net/DTD/sodipodi-0.dtd"
   xmlns="http://www.w3.org/2000/svg"
   xmlns:svg="http://www.w3.org/2000/svg"><sodipodi:namedview
     id="namedview1"
     pagecolor="#ffffff"
     bordercolor="#000000"
     borderopacity="0.25"
     inkscape:showpageshadow="2"
     inkscape:pageopacity="0.0"
     inkscape:pagecheckerboard="0"
     inkscape:deskcolor="#d1d1d1"
     inkscape:document-units="mm"
     inkscape:zoom="0.69219276"
     inkscape:cx="450.7415"
     inkscape:cy="389.34241"
     inkscape:window-width="1920"
     inkscape:window-height="991"
     inkscape:window-x="-9"
     inkscape:window-y="-9"
     inkscape:window-maximized="1"
     inkscape:current-layer="layer1" /><defs
     id="defs1" /><g
     inkscape:label="Calque 1"
     inkscape:groupmode="layer"
     id="layer1"
     transform="translate(-11.180083,-60.504889)"><path
       sodipodi:type="spiral"
       style="fill:none;fill-rule:evenodd;stroke:#4675f4;stroke-width:7.965;stroke-dasharray:none;stroke-opacity:1"
       id="path1-3"
       sodipodi:cx="99.38224"
       sodipodi:cy="144.10425"
       sodipodi:expansion="1"
       sodipodi:revolution="4.0812249"
       sodipodi:radius="99.554665"
       sodipodi:argument="-24.757502"
       sodipodi:t0="0.046622954"
       d="m 99.38224,148.74578 c -3.959078,3.31149 -9.321214,-0.71704 -10.739865,-4.64153 -2.758905,-7.63211 3.475291,-15.16323 10.739866,-16.8382 11.025309,-2.54206 21.144459,6.25073 22.936529,16.8382 2.43262,14.37179 -9.02835,27.17517 -22.93653,29.03486 -17.704947,2.36737 -33.229334,-11.8058 -35.133194,-29.03486 -2.324203,-21.03297 14.582909,-39.29654 35.133195,-41.23153 24.358599,-2.29358 45.371739,17.35977 47.329859,41.23153 2.27075,27.68297 -20.13647,51.4522 -47.329861,53.42819 -31.006605,2.25307 -57.536327,-22.91305 -59.526523,-53.42819 -2.238987,-34.32979 25.689569,-63.62309 59.526526,-65.624859 37.652668,-2.227503 69.711808,28.466039 71.723188,65.624859 2.21796,40.97534 -31.24247,75.80204 -71.723192,77.82152 -44.297863,2.20991 -81.893445,-34.01888 -83.919851,-77.82152 -2.203019,-47.620287 36.795278,-87.985793 83.919856,-90.018188 50.942617,-2.19706 94.078887,39.571662 96.116517,90.018188 1.17743,29.15019 -11.29608,57.78524 -33.11513,77.08408"
       transform="translate(-0.2105624,10.484447)" /><path
       style="fill:#000000;stroke-width:1.23531"
       d="m 60.423486,195.22386 c -0.686083,-0.068 -2.877399,-0.34924 -4.869595,-0.62507 -1.992196,-0.27581 -5.25814,-0.95533 -7.257652,-1.51001 -1.999513,-0.5547 -4.393666,-1.38979 -5.320335,-1.8558 -0.92667,-0.46599 -2.32594,-1.49638 -3.109487,-2.28972 -0.783547,-0.79333 -1.69391,-1.9247 -2.023029,-2.51417 -0.329118,-0.58948 -0.695891,-1.79717 -0.815049,-2.68378 -0.153723,-1.14379 -0.05804,-2.16595 0.329416,-3.519 0.319061,-1.11423 1.049708,-2.53546 1.757577,-3.41881 0.666333,-0.83148 1.698624,-1.8425 2.293982,-2.24666 0.890288,-0.60438 1.082471,-0.94063 1.082471,-1.89387 0,-0.63748 0.224693,-1.8966 0.499317,-2.79811 0.274625,-0.9015 0.87105,-1.99569 1.325387,-2.43151 0.454339,-0.43584 1.816754,-1.31327 3.027587,-1.9499 1.24021,-0.65202 3.55517,-1.45837 5.301547,-1.84659 1.705016,-0.37904 4.639984,-0.85913 6.522154,-1.06688 1.882169,-0.20777 3.442319,-0.40754 3.467006,-0.44394 0.02469,-0.0364 0.141112,-0.65064 0.258737,-1.36497 l 0.213856,-1.29878 -1.533765,0.22348 c -1.150942,0.16771 -1.825891,0.0711 -2.70415,-0.38656 -0.643711,-0.33551 -1.441001,-1.08483 -1.771758,-1.66512 -0.447245,-0.78465 -0.554454,-1.40625 -0.418297,-2.42527 0.100697,-0.75361 0.738717,-3.89264 1.417832,-6.97562 0.679114,-3.08298 1.234754,-5.64988 1.234754,-5.70424 0,-0.0542 -0.441947,-0.26803 -0.982105,-0.47485 -0.540156,-0.20683 -1.214779,-0.37607 -1.499162,-0.37607 -0.378792,0 -0.669861,0.64713 -1.088459,2.4199 l -0.571398,2.4199 -1.281886,-0.21165 c -0.70504,-0.11651 -1.667809,-0.29272 -2.139492,-0.3918 -0.471681,-0.099 -0.857601,-0.27137 -0.857601,-0.38288 0,-0.1115 0.245584,-0.51113 0.545747,-0.88805 0.30016,-0.37692 0.3906,-0.58642 0.200977,-0.46553 -0.226623,0.14447 -0.294315,-0.0702 -0.197537,-0.62621 0.0945,-0.54296 0.357644,-0.84602 0.73459,-0.84602 0.323046,0 0.587357,-0.15416 0.587357,-0.34255 0,-0.18841 -0.140334,-0.34254 -0.311857,-0.34254 -0.17152,0 -0.311856,-0.32926 -0.311856,-0.73167 0,-0.40243 0.315756,-1.63335 0.701677,-2.73539 0.509894,-1.45606 0.862257,-2.0051 1.289205,-2.00873 0.323141,-0.003 1.141099,0.17715 1.817683,0.3998 1.017615,0.3349 1.278971,0.3201 1.51272,-0.0856 0.15541,-0.26975 0.284716,-0.6061 0.287342,-0.74738 0.0026,-0.14141 -0.214007,-0.25691 -0.481411,-0.25691 -0.267404,0 -0.399457,-0.15416 -0.293452,-0.34256 0.11955,-0.21249 -0.554313,-0.36434 -1.774766,-0.39994 -1.082126,-0.0315 -2.357155,-0.07 -2.833395,-0.0856 -0.47624,-0.0155 -0.988293,-0.2433 -1.137893,-0.50617 -0.180844,-0.31777 -0.578207,-0.41069 -1.185658,-0.27724 -0.674345,0.14814 -1.049394,0.0267 -1.431865,-0.46407 -0.285013,-0.36565 -0.718386,-0.66478 -0.963052,-0.66478 -0.244668,0 -0.50905,0.19268 -0.587518,0.42817 -0.09824,0.29488 -0.350371,0.19116 -0.809745,-0.33308 -0.497748,-0.56802 -0.892119,-0.71183 -1.553646,-0.56649 -0.657436,0.14441 -0.939321,0.0437 -1.090672,-0.38947 -0.159607,-0.45687 -0.433432,-0.53698 -1.256118,-0.36744 -0.811313,0.16716 -1.097075,0.0877 -1.248932,-0.34688 -0.147144,-0.4212 -0.433807,-0.51162 -1.134175,-0.35775 -0.699585,0.15368 -1.09907,0.0284 -1.575343,-0.49498 -0.473931,-0.52058 -0.742408,-0.60579 -1.043622,-0.33121 -0.29784,0.27154 -0.511881,0.22896 -0.805967,-0.16028 -0.32316,-0.42771 -0.325782,-0.89635 -0.01367,-2.42864 0.212759,-1.04428 0.468194,-1.80933 0.567638,-1.7001 0.09944,0.10932 0.437777,-0.0568 0.751858,-0.36905 0.31408,-0.31221 0.571054,-0.77501 0.571054,-1.02842 0,-0.2534 -0.210503,-0.46073 -0.467783,-0.46073 -0.257282,0 -0.467784,-0.0491 -0.467784,-0.10921 0,-0.06 0.206404,-0.86928 0.458678,-1.79839 0.446894,-1.6459 0.490946,-1.6906 1.715204,-1.7407 0.94068,-0.0384 1.256532,0.0802 1.256532,0.47301 0,0.40765 0.242115,0.48125 1.087347,0.3306 0.717745,-0.12802 1.16826,-0.0439 1.325385,0.24751 0.130916,0.24272 0.448543,0.52017 0.705824,0.61653 0.25728,0.0962 0.705878,0.041 0.996882,-0.12327 0.354958,-0.20031 0.611555,-0.14521 0.779639,0.16732 0.137792,0.25621 0.461044,0.54472 0.718324,0.64107 0.257282,0.0962 0.705067,0.0413 0.99508,-0.12228 0.383239,-0.2162 0.652735,-0.10069 0.986451,0.42259 0.363499,0.57006 0.654252,0.67299 1.395653,0.49413 0.706366,-0.17042 1.009891,-0.0818 1.235156,0.36026 0.22424,0.44015 0.539086,0.53337 1.263559,0.37423 0.71017,-0.15603 1.039786,-0.0651 1.248557,0.34476 0.244203,0.47933 0.514202,0.5067 1.941217,0.19675 1.281358,-0.27828 1.980128,-0.25242 3.078805,0.11392 0.781684,0.26063 1.596665,0.47554 1.811064,0.47759 0.214401,0.002 0.38982,-0.36163 0.38982,-0.80815 0,-0.66732 -0.235982,-0.87935 -1.325387,-1.19086 -0.728961,-0.20847 -1.621733,-0.42118 -1.983937,-0.47271 -0.469671,-0.0669 -0.603837,-0.25854 -0.467784,-0.66842 0.176599,-0.53199 0.317282,-0.52562 1.894003,0.0856 0.936779,0.36318 1.743706,0.66031 1.79317,0.66031 0.04947,0 0.08994,-0.22212 0.08994,-0.4936 0,-0.27147 0.114531,-0.57135 0.254513,-0.66638 0.139981,-0.0949 0.806575,0.0433 1.481315,0.30729 0.67474,0.26404 1.392763,0.48684 1.595606,0.49513 0.202842,0.007 0.459201,-0.33181 0.569686,-0.7557 0.110495,-0.42392 1.179883,-4.13475 2.37644,-8.2463 2.145105,-7.37091 2.190462,-7.48238 3.240529,-7.96432 0.585734,-0.26883 1.637789,-0.48876 2.337898,-0.48876 0.700108,0 1.6621,0.22105 2.137755,0.49123 0.475658,0.27018 1.047212,0.73264 1.270122,1.02766 0.222911,0.29503 0.509377,0.53642 0.636594,0.53642 0.127213,0 0.469383,-0.68479 0.760368,-1.52171 0.290986,-0.83692 0.81449,-1.92027 1.163342,-2.40742 0.348851,-0.48713 1.196313,-1.20066 1.883251,-1.5856 0.926494,-0.51919 1.556766,-0.64279 2.441059,-0.47868 0.655645,0.12169 1.814306,0.65466 2.574801,1.18444 0.931528,0.6489 1.612084,1.48365 2.085637,2.55816 0.589184,1.33689 0.668253,1.91131 0.488656,3.55001 -0.117837,1.07527 -0.550947,3.68464 -0.962446,5.79859 -0.411497,2.11396 -1.521906,7.19471 -2.467576,11.29056 -1.122409,4.86138 -1.613324,7.56355 -1.413898,7.78259 0.168027,0.18458 0.552507,0.39589 0.854405,0.46961 0.301896,0.0737 1.207892,0.18736 2.013323,0.25257 0.80543,0.0653 3.822634,0.8348 6.704897,1.71022 2.882263,0.87538 5.871986,1.79727 6.643833,2.04863 0.771838,0.25136 2.350608,0.72533 3.508368,1.05327 1.40124,0.3969 2.10503,0.76505 2.10503,1.10118 0,0.3576 -0.11373,0.40534 -0.38983,0.16364 -0.21438,-0.18771 -1.05715,-0.44737 -1.87279,-0.57703 -0.81564,-0.1296 -1.85405,-0.44722 -2.30758,-0.70567 -0.719868,-0.41023 -0.913638,-0.39664 -1.525488,0.10691 -0.385479,0.31726 -0.623482,0.71624 -0.528893,0.88666 0.09459,0.1704 0.0077,0.1983 -0.193146,0.062 -0.20082,-0.13638 -0.265734,-0.42991 -0.144243,-0.65238 0.166688,-0.3053 0.107991,-0.30429 -0.239263,0.005 -0.297947,0.26457 -0.621344,0.29663 -0.917465,0.0909 -0.251531,-0.17475 -0.667827,-0.31029 -0.925109,-0.30123 -0.261246,0.008 -0.157976,0.15325 0.233892,0.32627 0.385921,0.1704 0.701676,0.40223 0.701676,0.51518 0,0.11311 -0.315755,0.1194 -0.701676,0.0144 -0.385924,-0.10506 -0.526257,-0.10265 -0.311856,0.006 0.2144,0.10805 0.38982,0.33311 0.38982,0.49992 0,0.16678 -0.233525,0.20482 -0.518945,0.0846 -0.379227,-0.15986 -0.449412,-0.0951 -0.260694,0.24025 0.182653,0.32463 0.122261,0.40165 -0.206322,0.26315 -0.333891,-0.14083 -0.443312,0.0115 -0.389003,0.54126 0.04156,0.40538 0.08725,0.79448 0.101548,0.86463 0.01425,0.0702 0.263429,-0.084 0.553634,-0.34254 0.358528,-0.31946 0.452584,-0.33289 0.293451,-0.0421 -0.1288,0.23553 -0.08559,0.42819 0.09606,0.42819 0.181644,0 0.330262,0.17303 0.330262,0.38451 0,0.26565 -0.144596,0.25268 -0.467786,-0.042 -0.257279,-0.23453 -0.467782,-0.29965 -0.467782,-0.14471 0,0.15496 -0.175418,0.0891 -0.389819,-0.14646 -0.214402,-0.2355 -0.38982,-0.59549 -0.38982,-0.80001 0,-0.2045 -0.315755,-0.50011 -0.701676,-0.65693 -0.385921,-0.15682 -0.701674,-0.19147 -0.701674,-0.0771 0,0.1145 0.245585,0.42923 0.545747,0.69947 0.300161,0.27024 0.370328,0.39374 0.155927,0.27446 -0.2144,-0.11927 -0.389818,-0.0445 -0.389818,0.16608 0,0.21066 -0.162019,0.273 -0.360042,0.13867 -0.22486,-0.15265 -0.275314,-0.0938 -0.134383,0.15666 0.124112,0.22058 0.359774,0.31002 0.523694,0.19871 0.163919,-0.11115 0.259472,-0.0752 0.212344,0.08 -0.04713,0.1553 0.05464,0.28238 0.226162,0.28238 0.171523,0 0.266392,-0.14981 0.210822,-0.33295 -0.05559,-0.18313 0.166322,-0.0674 0.493091,0.25766 0.32677,0.32483 0.664048,0.5138 0.749504,0.41993 0.08545,-0.0938 0.464667,0.19096 0.842685,0.63294 0.62097,0.72607 0.639456,0.84725 0.191537,1.25556 -0.414169,0.37757 -0.48004,0.37193 -0.400208,-0.0341 0.05256,-0.26737 -0.09029,-0.4438 -0.317439,-0.39202 -0.256196,0.0584 -0.326014,-0.0716 -0.183893,-0.34258 0.126008,-0.24014 0.114267,-0.32239 -0.0261,-0.18271 -0.140363,0.13967 -0.457686,0.0693 -0.705169,-0.15627 -0.247485,-0.22561 -0.64632,-0.4555 -0.886296,-0.51085 -0.23998,-0.0554 -0.63267,-0.14594 -0.872647,-0.20131 -0.239978,-0.0554 -0.638812,-0.28524 -0.886299,-0.51086 -0.247482,-0.22561 -0.522313,-0.33073 -0.61073,-0.23362 -0.08841,0.0971 -0.338275,-0.0584 -0.555239,-0.34551 -0.320789,-0.42458 -0.314527,-0.52406 0.03353,-0.53253 0.291275,-0.007 0.254347,-0.12155 -0.115609,-0.35825 -0.387054,-0.24768 -0.666962,-0.22127 -0.971953,0.0916 -0.362063,0.37151 -0.350329,0.51079 0.07582,0.90005 0.45176,0.41265 0.439332,0.43937 -0.11955,0.25678 -0.515198,-0.16829 -0.488881,-0.0877 0.151268,0.46243 0.426238,0.36641 0.835856,0.59932 0.910259,0.51758 0.07441,-0.0816 0.392255,0.10668 0.706335,0.41909 0.31408,0.31222 0.571056,0.44782 0.571056,0.30135 0,-0.14647 0.198008,-0.0859 0.440019,0.13479 0.301671,0.27502 0.503724,0.28792 0.642636,0.0412 0.140584,-0.24988 0.387769,-0.25129 0.807404,-0.006 0.332632,0.19554 0.604784,0.25417 0.604784,0.13033 0,-0.12386 0.20896,-0.0348 0.464352,0.19804 0.255391,0.23281 0.39506,0.54645 0.31037,0.69697 -0.08469,0.15051 0.09229,0.22992 0.393253,0.17646 0.300978,-0.0534 0.74959,0.0759 0.996915,0.28697 0.359947,0.30752 0.394674,0.28166 0.17403,-0.1296 -0.243112,-0.45319 -0.20929,-0.45463 0.28648,-0.0115 0.309174,0.27588 0.929038,0.55555 1.37748,0.62153 0.44844,0.066 1.00596,0.2937 1.238938,0.50609 0.23299,0.2124 0.65749,0.43039 0.94333,0.48445 0.28586,0.0543 0.87059,0.1401 1.29938,0.19127 0.4288,0.0512 1.01265,0.37037 1.29742,0.7094 0.34967,0.41631 0.58721,0.49309 0.73161,0.23642 0.14282,-0.25383 0.35596,-0.17415 0.64177,0.23993 0.28077,0.40676 0.43133,0.4647 0.43784,0.16845 0.007,-0.31391 0.29506,-0.22849 0.94549,0.28022 0.51457,0.40248 0.93556,0.62533 0.93556,0.49522 0,-0.13004 0.23744,-0.025 0.52766,0.23361 0.29019,0.25854 0.4367,0.30313 0.32557,0.099 -0.11122,-0.2041 -0.004,-0.37108 0.23827,-0.37108 0.24219,0 0.37733,0.11207 0.3003,0.24891 -0.077,0.13694 0.2449,0.36841 0.71539,0.51445 0.4705,0.14605 0.92561,0.28046 1.01139,0.2987 0.0858,0.0183 0.33133,0.15552 0.54573,0.30506 0.22228,0.15503 0.38982,0.11609 0.38982,-0.0909 0,-0.19952 0.14861,-0.36276 0.33025,-0.36276 0.18165,0 0.24355,0.15415 0.13752,0.34255 -0.10594,0.18841 0.0982,0.34256 0.45361,0.34256 0.35549,0 0.94345,0.19266 1.30658,0.42818 0.53201,0.34504 0.68847,0.34225 0.80574,-0.0144 0.11887,-0.36163 0.23638,-0.36163 0.64281,0 0.41939,0.37313 0.45413,0.36195 0.22168,-0.0714 -0.23073,-0.43005 -0.19609,-0.44305 0.21246,-0.0799 0.26847,0.23874 0.73942,0.32816 1.04659,0.19869 0.42347,-0.17848 0.49735,-0.11781 0.30562,0.251 -0.20472,0.39388 -0.17294,0.40494 0.16715,0.0583 0.23099,-0.2355 0.74275,-0.4282 1.13725,-0.4282 0.39449,0 0.71727,-0.12328 0.71727,-0.27402 0,-0.15074 -0.15257,-0.44163 -0.33904,-0.64645 -0.24413,-0.26817 -0.23065,-0.44597 0.0482,-0.63525 0.24079,-0.16348 0.3081,-0.12228 0.178,0.10885 -0.11504,0.2045 -0.0763,0.46205 0.0861,0.57234 0.16248,0.11036 0.37237,0.0637 0.46646,-0.10345 0.0942,-0.16721 0.58882,-0.25061 1.09939,-0.18529 0.51057,0.0653 1.01713,-0.0391 1.12566,-0.23204 0.12753,-0.22659 0.32552,-0.23391 0.55942,-0.0207 0.19914,0.18155 0.5024,0.38173 0.67391,0.44485 0.17152,0.0631 0.26886,0.25646 0.2163,0.42965 -0.0525,0.17318 0.0982,0.13839 0.33485,-0.0775 0.32487,-0.29616 0.53161,-0.28939 0.84301,0.0277 0.32643,0.33236 0.36661,0.33066 0.19247,-0.007 -0.14178,-0.2757 -0.0132,-0.42819 0.35967,-0.42819 0.31885,0 0.77646,0.19266 1.01687,0.42819 0.36225,0.3548 0.37749,0.34012 0.0889,-0.0856 -0.19153,-0.2826 -0.3251,-0.6166 -0.29681,-0.7422 0.0283,-0.12559 -0.0763,-0.35682 -0.23244,-0.51382 -0.16495,-0.16585 -0.1899,-0.10599 -0.0595,0.1427 0.14017,0.26765 0.0351,0.42818 -0.28027,0.42818 -0.27755,0 -0.42384,-0.14356 -0.32518,-0.31888 0.0986,-0.17538 0.0454,-0.40984 -0.11846,-0.52102 -0.16377,-0.11116 -0.24188,-0.52094 -0.17357,-0.91055 0.0955,-0.54468 0.0317,-0.62408 -0.27607,-0.3435 -0.2854,0.26017 -0.50556,0.24925 -0.76709,-0.0382 -0.20175,-0.2216 -0.36679,-0.28488 -0.36679,-0.14069 0,0.14427 0.14531,0.56049 0.3228,0.92491 0.22255,0.45672 0.22255,0.66255 0,0.66255 -0.17755,0 -0.3228,-0.2312 -0.3228,-0.51379 0,-0.28263 -0.13591,-0.51386 -0.30208,-0.51386 -0.16613,0 -0.22675,0.21564 -0.13474,0.4792 0.092,0.26355 -0.006,0.59565 -0.2139,0.73803 -0.25133,0.17062 -0.30103,0.11608 -0.14576,-0.15968 0.14987,-0.26636 -0.003,-0.48695 -0.41959,-0.60672 -0.36031,-0.10357 -0.65508,-0.39231 -0.65508,-0.64182 0,-0.24952 -0.16419,-0.56512 -0.36487,-0.70135 -0.24531,-0.16654 -0.29961,-0.061 -0.16571,0.32234 0.10946,0.31351 0.0549,0.57 -0.12137,0.57 -0.17624,0 -0.22032,0.17799 -0.0979,0.3955 0.12578,0.22354 0.0867,0.30324 -0.0899,0.18336 -0.17185,-0.11666 -0.29382,-0.59555 -0.27103,-1.06417 0.0226,-0.46862 0.14179,-0.96221 0.2643,-1.09685 0.12254,-0.13464 0.22283,-0.45939 0.22283,-0.72173 0,-0.26231 -0.14267,-0.38012 -0.31694,-0.26177 -0.17431,0.11825 -0.23621,0.35864 -0.13753,0.53405 0.0986,0.17536 0.0307,0.31888 -0.15084,0.31888 -0.18165,0 -0.33027,0.23121 -0.33027,0.51381 0,0.2826 -0.11695,0.51383 -0.25988,0.51383 -0.14297,0 -0.25988,-0.23123 -0.25988,-0.51383 0,-0.2826 0.11608,-0.51381 0.25793,-0.51381 0.14193,0 0.21042,-0.34684 0.15238,-0.77077 -0.0655,-0.47892 -0.36007,-0.81217 -0.7777,-0.88019 -0.50385,-0.082 -0.67212,0.0679 -0.67212,0.59946 0,0.38992 0.14032,0.70894 0.31186,0.70894 0.17152,0 0.31184,0.26067 0.31184,0.5793 0,0.51835 -0.0442,0.51288 -0.42018,-0.052 -0.29114,-0.43735 -0.48833,-0.51006 -0.64211,-0.23676 -0.12195,0.21695 -0.13312,0.58716 -0.0245,0.82264 0.10858,0.23552 -0.006,0.15576 -0.25383,-0.17723 -0.28944,-0.38824 -0.65164,-0.52095 -1.00986,-0.36997 -0.41612,0.17539 -0.49272,0.11839 -0.30031,-0.22353 0.18769,-0.3336 0.11931,-0.40038 -0.25072,-0.24445 -0.27991,0.11796 -0.6053,0.0433 -0.72305,-0.16599 -0.1177,-0.20929 -0.0755,-0.28641 0.094,-0.17138 0.16945,0.11521 0.30809,-0.013 0.30809,-0.28418 0,-0.33912 -0.1146,-0.38887 -0.36655,-0.15919 -0.2016,0.18379 -0.48138,0.21986 -0.62174,0.0802 -0.14032,-0.13968 -0.15425,-0.0613 -0.0309,0.17423 0.12343,0.23552 0.0837,0.42818 -0.088,0.42818 -0.17179,0 -0.2583,0.30832 -0.19224,0.68511 0.066,0.37682 -0.0148,0.68511 -0.17992,0.68511 -0.16503,0 -0.23643,-0.3854 -0.15867,-0.85646 0.10168,-0.61563 -0.0394,-0.9627 -0.50133,-1.23429 -0.49344,-0.29007 -0.70486,-0.27016 -0.91017,0.0857 -0.2183,0.37838 -0.27509,0.36913 -0.30913,-0.0502 -0.0229,-0.28261 -0.0267,-0.6239 -0.007,-0.75843 0.0182,-0.13449 -0.2,-0.1463 -0.48499,-0.0262 -0.41568,0.1752 -0.4679,0.0881 -0.264,-0.44051 0.13973,-0.36242 0.3204,-1.08284 0.40138,-1.60095 0.081,-0.51812 0.026,-0.95381 -0.1221,-0.96822 -0.1481,-0.0144 -0.54996,-0.0949 -0.89299,-0.17879 -0.34304,-0.0838 -0.97456,-0.21566 -1.40335,-0.29273 -0.42881,-0.0772 -0.81472,-0.17006 -0.85761,-0.20661 -0.0429,-0.0366 -0.2066,-0.0858 -0.36382,-0.10932 -0.15723,-0.0236 -0.38145,-0.14779 -0.49828,-0.27611 -0.1168,-0.12832 -0.40919,-0.15037 -0.6497,-0.049 -0.24051,0.10139 -0.4373,0.006 -0.4373,-0.21512 0,-0.21967 -0.13062,-0.31071 -0.2903,-0.20231 -0.15966,0.10828 -0.38423,0.0301 -0.49901,-0.17386 -0.11476,-0.20402 -0.13679,-0.4499 -0.0489,-0.54641 0.0879,-0.0966 0.90884,0.0679 1.82439,0.36564 0.91556,0.29762 2.4856,0.78765 3.48899,1.08893 1.32679,0.39836 1.7308,0.65053 1.48132,0.92455 -0.18866,0.20726 -0.34303,0.5772 -0.34303,0.82213 0,0.24491 0.14861,0.44532 0.33026,0.44532 0.18165,0 0.24353,-0.15415 0.13753,-0.34254 -0.10594,-0.18841 -0.0545,-0.34256 0.11475,-0.34256 0.16909,0 0.36974,0.19266 0.44594,0.42819 0.0763,0.23552 0.0867,-0.0145 0.0231,-0.55559 -0.0989,-0.84154 -0.0479,-0.92215 0.35211,-0.55754 0.25718,0.23445 0.46758,0.3411 0.46758,0.23697 0,-0.10415 0.45611,-0.0402 1.01353,0.14184 0.55746,0.18211 2.62739,0.79634 4.59989,1.36492 1.97248,0.56859 5.26878,1.50488 7.32509,2.08066 2.05631,0.57577 4.01713,1.26105 4.3574,1.52283 0.34026,0.26178 0.83756,0.47597 1.10515,0.47597 0.34528,0 0.8337,-1.16828 1.68267,-4.02498 0.65789,-2.21374 1.82655,-5.79767 2.59703,-7.96431 0.77048,-2.16665 2.09395,-5.42918 2.94106,-7.25006 0.84713,-1.8209 2.12433,-4.03966 2.83824,-4.9305 0.71391,-0.89088 1.86479,-1.90259 2.55752,-2.24822 0.73288,-0.36567 1.97665,-0.62844 2.9747,-0.62844 1.00948,0 2.24337,0.26347 2.99883,0.64031 0.70601,0.35217 1.64892,1.16634 2.09538,1.8093 0.44646,0.64297 1.03285,1.75028 1.30309,2.46071 0.27025,0.71042 0.57491,2.27463 0.67705,3.47603 0.17692,2.08121 0.22945,2.19492 1.11263,2.40798 0.50981,0.12298 1.46467,0.75725 2.1219,1.40949 0.65725,0.6522 1.37791,1.75372 1.60147,2.4478 0.24861,0.77189 0.39515,2.72531 0.37729,5.03004 -0.0161,2.07243 -0.11127,4.71629 -0.21165,5.87523 -0.16334,1.88618 -0.11941,2.12532 0.41974,2.28015 0.39083,0.1122 0.60222,0.47119 0.60222,1.02254 0,0.73657 0.17625,0.87883 1.32537,1.06971 0.72898,0.12098 1.53183,0.36144 1.78415,0.5341 0.2523,0.17267 0.35847,0.42409 0.2359,0.55871 -0.12254,0.13464 -0.7663,0.0659 -1.4305,-0.15264 -0.6642,-0.2186 -1.51558,-0.39743 -1.89197,-0.39743 -0.59884,0 -0.67223,0.15857 -0.58754,1.26959 0.0906,1.18756 0.19248,1.3021 1.5781,1.77289 0.81474,0.27681 1.48132,0.63582 1.48132,0.79777 0,0.16194 -0.27144,0.13493 -0.60321,-0.06 -0.33176,-0.19504 -0.75276,-0.3546 -0.93556,-0.3546 -0.18279,0 -0.33236,0.22211 -0.33236,0.49361 0,0.27149 -0.15602,0.59952 -0.34673,0.72899 -0.19068,0.12932 -0.46279,0.0292 -0.60468,-0.22308 -0.20737,-0.36861 -0.3839,-0.33324 -0.90067,0.18048 -0.36218,0.36003 -0.64278,1.06435 -0.64278,1.61351 0,0.92397 0.0714,0.97455 1.37787,0.97455 0.75779,0 1.59983,0.0934 1.87111,0.20792 0.31891,0.13436 0.49332,0.0205 0.49332,-0.32234 0,-0.29164 0.15601,-0.63618 0.34671,-0.76563 0.19068,-0.12946 0.46066,-0.0328 0.59994,0.21467 0.20876,0.37104 0.34114,0.3699 0.75392,-0.007 0.42566,-0.38805 0.60748,-0.34624 1.21333,0.27895 0.39194,0.40444 0.86731,0.73536 1.05634,0.73536 0.18906,0 0.40636,-0.19265 0.48289,-0.42819 0.0955,-0.29432 0.39156,-0.17338 0.94657,0.38682 0.51143,0.51622 1.03739,0.74894 1.43465,0.63483 0.34498,-0.0991 0.79064,0.0361 0.99033,0.3004 0.19972,0.26433 0.75222,0.44801 1.22784,0.40822 0.47559,-0.04 1.0892,0.1322 1.36356,0.38238 0.35119,0.32015 0.61452,0.34931 0.88954,0.0985 0.27577,-0.25137 0.56858,-0.21332 0.99519,0.12946 0.33244,0.26702 0.85338,0.48549 1.1576,0.48549 0.30424,0 0.69841,0.29815 0.87596,0.66258 0.17756,0.36442 0.32282,1.22997 0.32282,1.92345 v 1.26084 l -0.79386,-0.57136 c -0.4366,-0.31424 -1.05334,-0.48089 -1.37047,-0.37032 -0.33184,0.1158 -0.79391,-0.0377 -1.08846,-0.36116 -0.30207,-0.33179 -0.77912,-0.48543 -1.16404,-0.37486 -0.35872,0.10311 -0.96543,-0.0382 -1.34823,-0.31357 -0.38282,-0.27551 -0.93152,-0.40166 -1.21936,-0.28035 -0.3038,0.12804 -0.77521,-0.0298 -1.1238,-0.37632 -0.33028,-0.32829 -0.82358,-0.50289 -1.09623,-0.38795 -0.27266,0.11508 -0.83814,-0.0374 -1.25665,-0.33867 -0.41847,-0.30119 -0.99024,-0.45096 -1.2706,-0.33279 -0.28035,0.1181 -0.7125,0.0301 -0.96035,-0.19595 -0.24785,-0.22594 -1.17732,-0.45809 -2.06551,-0.51587 -0.88818,-0.0577 -1.99219,-0.16896 -2.45335,-0.24701 -0.46115,-0.078 -0.95831,-0.2233 -1.10475,-0.32271 -0.1465,-0.0994 -0.29764,0.271 -0.33594,0.82318 -0.0661,0.95375 -0.007,1.00395 1.16244,1.00395 0.67764,0 1.59204,0.15034 2.03201,0.33407 0.43998,0.18375 0.79996,0.56911 0.79996,0.85638 0,0.28727 -0.0751,0.52231 -0.16692,0.52231 -0.0916,0 -0.47771,-0.21984 -0.85761,-0.48849 -0.37987,-0.26867 -1.21578,-0.59389 -1.85755,-0.72269 -1.03583,-0.2079 -1.19804,-0.14342 -1.44469,0.57414 -0.1528,0.44456 -0.21208,0.93067 -0.13165,1.08023 0.0804,0.14956 -0.0284,0.50293 -0.2417,0.78526 -0.22896,0.30302 -0.27188,0.62917 -0.10481,0.79607 0.15569,0.15552 0.71867,0.37184 1.25109,0.48077 0.5695,0.11651 1.12277,0.0295 1.34387,-0.21162 0.29227,-0.3186 0.33231,-0.28409 0.18013,0.15518 -0.10768,0.31063 -0.0428,0.66858 0.144,0.79538 0.20044,0.13609 0.54582,-0.30604 0.84266,-1.07863 0.43742,-1.13852 0.53221,-1.21988 0.72697,-0.62411 0.21909,0.67027 0.22854,0.66916 0.43686,-0.0505 0.14429,-0.49854 0.39656,-0.68282 0.78284,-0.57187 0.38818,0.11151 0.62403,-0.0636 0.73959,-0.549 0.0933,-0.39201 0.32315,-0.71272 0.51074,-0.71272 0.18757,0 0.34104,0.11666 0.34104,0.25917 0,0.14256 -0.13048,0.75913 -0.29009,1.37021 -0.16376,0.62729 -0.17053,1.11101 -0.0155,1.11101 0.15101,0 0.41764,-0.26974 0.59245,-0.59945 0.27869,-0.52552 0.31905,-0.49634 0.32736,0.23674 0.008,0.80914 0.0242,0.81468 0.46736,0.1713 0.25183,-0.36573 0.46234,-0.9347 0.46779,-1.26442 0.006,-0.3297 0.15023,-0.59946 0.32176,-0.59946 0.17152,0 0.32814,0.7322 0.34803,1.62712 0.02,0.89491 0.10038,1.35737 0.1788,1.02764 0.0785,-0.3297 0.27266,-0.59947 0.4316,-0.59947 0.15893,0 0.28899,0.26071 0.28899,0.57932 0,0.50515 0.0586,0.49419 0.45786,-0.0856 0.25183,-0.3657 0.46234,-0.9347 0.46779,-1.2644 0.006,-0.3297 0.16619,-0.59947 0.35719,-0.59947 0.23441,0 0.28234,0.52876 0.14749,1.62714 -0.17511,1.42628 -0.14634,1.55311 0.23286,1.02764 0.23795,-0.3297 0.52243,-0.59946 0.63214,-0.59946 0.10972,0 0.20397,0.26976 0.20943,0.59946 0.008,0.54242 0.0537,0.53618 0.46778,-0.0656 0.25184,-0.36571 0.45786,-0.94377 0.45786,-1.28457 0,-0.34079 0.15598,-0.61962 0.34657,-0.61962 0.22942,0 0.27651,0.4342 0.1393,1.28455 -0.11391,0.70652 -0.2794,1.55433 -0.36759,1.88404 -0.0882,0.32971 -0.0268,0.59946 0.13622,0.59946 0.16306,0 0.36988,-0.30829 0.45958,-0.68509 0.0896,-0.3768 0.32486,-0.68512 0.52256,-0.68512 0.1977,0 0.27374,0.1524 0.16893,0.33864 -0.10768,0.1912 0.012,0.25328 0.2744,0.1427 0.25571,-0.10771 0.55786,-0.66077 0.67146,-1.22886 0.11367,-0.56809 0.32564,-0.90205 0.47122,-0.74213 0.14561,0.15992 0.12636,0.96753 -0.0429,1.79467 -0.16919,0.82715 -0.24655,1.67498 -0.17186,1.88404 0.0745,0.20907 0.30397,-0.12068 0.50956,-0.73277 0.20558,-0.61207 0.50045,-1.02688 0.65526,-0.92178 0.1548,0.10506 0.27931,0.45174 0.2767,0.77033 -0.002,0.3186 -0.11834,0.77554 -0.2568,1.01545 -0.13856,0.23994 -0.55802,0.50096 -0.93198,0.58006 -0.37396,0.079 -0.81462,0.23525 -0.97924,0.34702 -0.16462,0.11173 -0.59447,-0.12098 -0.95525,-0.51735 -0.54236,-0.59574 -0.73844,-0.64531 -1.13227,-0.28627 -0.39723,0.3621 -0.57222,0.29482 -1.0538,-0.40527 -0.46222,-0.67201 -0.65548,-0.75407 -0.96852,-0.4113 -0.2151,0.23548 -0.49787,0.42817 -0.62842,0.42817 -0.13047,0 -0.51859,-0.33162 -0.86235,-0.7369 -0.53616,-0.63215 -0.69727,-0.67108 -1.13304,-0.2738 -0.43858,0.3998 -0.58739,0.34836 -1.08853,-0.37638 -0.52254,-0.7557 -0.6492,-0.79297 -1.26875,-0.3736 -0.61564,0.41675 -0.7445,0.384 -1.22133,-0.3104 -0.39377,-0.5734 -0.68613,-0.70331 -1.11872,-0.49713 -0.32211,0.15352 -0.6887,0.25547 -0.81462,0.22654 -0.12592,-0.0289 -0.81577,0.64664 -1.53293,1.50125 -0.71715,0.85462 -1.39088,1.3993 -1.49713,1.21044 -0.10637,-0.18889 -0.72976,-0.58967 -1.38548,-0.89062 -0.65573,-0.30094 -1.27454,-0.45677 -1.37515,-0.34625 -0.10061,0.11058 -0.2128,0.62051 -0.24931,1.13336 -0.0364,0.51283 -0.16455,1.20219 -0.28453,1.5319 -0.12886,0.35418 -0.0769,0.59945 0.12709,0.59945 0.18987,0 0.34521,0.22085 0.34521,0.49075 0,0.26991 0.31576,0.60916 0.70167,0.75392 0.38593,0.14473 0.80696,0.28998 0.93557,0.3228 0.12872,0.0327 0.37784,0.079 0.55378,0.10242 0.18539,0.025 0.10313,0.51079 -0.19559,1.1561 -0.28352,0.61231 -0.54992,1.1579 -0.59201,1.21242 -0.0422,0.0544 -0.98798,-0.27773 -2.10192,-0.73829 l -2.02538,-0.8374 -1.5775,3.4787 c -0.86762,1.91327 -2.10635,4.15474 -2.75273,4.98106 -0.64637,0.8263 -1.74442,1.78634 -2.44007,2.1334 -0.69564,0.34708 -1.88636,0.63446 -2.64604,0.63859 -0.75967,0.005 -1.82854,-0.17015 -2.37527,-0.38732 -0.89001,-0.35352 -1.10629,-0.30082 -2.066,0.50322 -0.58956,0.49396 -1.58612,1.13406 -2.21457,1.42251 -0.62846,0.28842 -1.78427,0.52443 -2.56845,0.52443 -0.80203,0 -1.95144,-0.29458 -2.62728,-0.67329 -0.66083,-0.37032 -1.69115,-1.30166 -2.28962,-2.06966 -0.59847,-0.768 -1.26557,-2.09246 -1.48243,-2.94325 -0.27633,-1.08407 -0.34049,-2.95024 -0.21448,-6.23723 0.10672,-2.78404 0.50491,-6.56982 0.9797,-9.31474 0.43995,-2.54346 0.99326,-5.51379 1.22957,-6.60076 0.2413,-1.10985 0.30823,-2.05874 0.15267,-2.16434 -0.15235,-0.10346 -0.80116,-0.2422 -1.44176,-0.30841 -0.64065,-0.0662 -5.79583,-1.51038 -11.45603,-3.20927 -5.66018,-1.6989 -15.33127,-4.57202 -21.491317,-6.38472 -6.160045,-1.81268 -11.488919,-3.51801 -11.84194,-3.78962 -0.353024,-0.2716 -0.996555,-0.49371 -1.430072,-0.49356 -0.451364,1.6e-4 -1.286745,0.48766 -1.954753,1.14071 -1.023376,1.00049 -1.373791,1.80973 -2.855271,6.59387 -0.928801,2.99936 -2.052021,6.50998 -2.496045,7.80137 -0.444022,1.29138 -0.729638,2.48603 -0.634701,2.65477 0.09495,0.16873 0.760755,0.30681 1.479593,0.30686 0.718843,4e-5 2.993721,0.30235 5.055289,0.67184 2.061567,0.36947 4.727932,0.99958 5.925256,1.40021 1.197325,0.40064 2.738295,1.08651 3.424378,1.52417 0.68608,0.43765 1.627893,1.2356 2.09291,1.77317 0.465021,0.53761 1.061442,1.64977 1.325388,2.47149 0.263944,0.82173 0.479898,1.85691 0.479898,2.3004 0,0.58571 0.320015,0.98755 1.169458,1.4685 0.643202,0.3642 1.753496,1.21552 2.46732,1.89182 0.713823,0.6763 1.661081,2.03028 2.105029,3.00883 0.60342,1.33011 0.80715,2.30735 0.80715,3.87147 0,1.70808 -0.16174,2.3719 -0.880878,3.61519 -0.48449,0.83759 -1.400567,2.02292 -2.035732,2.63407 -0.635163,0.61117 -1.678147,1.40445 -2.317741,1.76285 -0.639591,0.35842 -2.069633,0.97864 -3.177867,1.37826 -1.108232,0.39962 -3.392423,1.0299 -5.075977,1.40062 -1.683555,0.37072 -5.181,0.90758 -7.772104,1.19299 -2.863837,0.31547 -7.292433,0.49638 -11.294336,0.46138 -3.620784,-0.0318 -7.144583,-0.11323 -7.830664,-0.18116 z M 176.90158,163.7766 c 0,-0.0943 -0.0701,-0.17127 -0.15592,-0.17127 -0.0858,0 -0.15593,0.0771 -0.15593,0.17127 0,0.0943 0.0701,0.17128 0.15593,0.17128 0.0858,0 0.15592,-0.0771 0.15592,-0.17128 z m -2.30642,-1.10616 c -0.10361,-0.1138 -0.27264,-0.11449 -0.37557,-0.001 -0.10301,0.11312 -0.0771,0.40093 0.057,0.63968 0.19648,0.34921 0.26993,0.34948 0.37556,0.001 0.0721,-0.23799 0.0466,-0.52585 -0.057,-0.63969 z m 1.24742,-0.34255 c -0.1036,-0.1138 -0.27263,-0.11449 -0.37556,-0.001 -0.10301,0.11311 -0.0771,0.40096 0.057,0.63969 0.19649,0.34921 0.26994,0.34947 0.37558,0.001 0.0721,-0.23801 0.0466,-0.52587 -0.057,-0.63969 z m -3.61882,-0.0928 c 0,-0.18839 -0.14032,-0.34255 -0.31187,-0.34255 -0.17151,0 -0.31186,0.15416 -0.31186,0.34255 0,0.18842 0.14032,0.34256 0.31186,0.34256 0.17151,0 0.31187,-0.15414 0.31187,-0.34256 z m 0.98809,-0.76442 c -0.23141,-0.25418 -0.27202,-0.1204 -0.13634,0.44933 0.11031,0.46321 0.25162,0.61848 0.3295,0.36194 0.075,-0.24714 -0.012,-0.61221 -0.19314,-0.81127 z m -3.58177,-0.32746 c -0.0996,-0.27324 -0.17344,-0.19208 -0.1884,0.20697 -0.0132,0.36112 0.0601,0.56342 0.16379,0.4496 0.1036,-0.1138 0.11474,-0.40929 0.0247,-0.65657 z m 1.65812,0.427 c 0,-0.17729 -0.14032,-0.41758 -0.31188,-0.53405 -0.17151,-0.11623 -0.31185,0.0286 -0.31185,0.32234 0,0.29375 0.14032,0.53404 0.31185,0.53404 0.17151,0 0.31188,-0.14505 0.31188,-0.32233 z m -4.15297,-1.11208 c -0.0996,-0.27327 -0.17345,-0.19208 -0.18841,0.20696 -0.0132,0.36109 0.0601,0.56342 0.16379,0.4496 0.1036,-0.1138 0.11474,-0.4093 0.0247,-0.65656 z m 1.6581,0.25571 c 0,-0.27148 -0.14032,-0.58887 -0.31184,-0.70532 -0.17153,-0.11652 -0.31187,0.10553 -0.31187,0.49361 0,0.38793 0.14032,0.70532 0.31187,0.70532 0.17152,0 0.31184,-0.22211 0.31184,-0.49361 z m -3.84622,-0.41985 c -0.11427,-0.12558 -0.30147,-0.12558 -0.41579,0 -0.11427,0.12558 -0.0207,0.22836 0.20791,0.22836 0.22866,0 0.32225,-0.10288 0.20788,-0.22836 z m 1.35138,-0.26526 c 0,-0.27149 -0.14032,-0.58888 -0.31185,-0.7053 -0.17152,-0.11652 -0.31185,0.10564 -0.31185,0.49361 0,0.38792 0.14031,0.70531 0.31185,0.70531 0.17152,0 0.31185,-0.22212 0.31185,-0.49362 z m -8.13494,-1.56169 c -0.0156,-0.78431 -0.0399,-0.79871 -0.28516,-0.17126 -0.14742,0.37679 -0.27573,0.9934 -0.28517,1.37019 -0.0147,0.56546 0.0356,0.59536 0.28517,0.17129 0.16626,-0.28262 0.29459,-0.89921 0.28516,-1.37022 z m 4.39267,1.19893 c 0,-0.0943 -0.0701,-0.17127 -0.15593,-0.17127 -0.0858,0 -0.15593,0.0771 -0.15593,0.17127 0,0.0943 0.0701,0.17129 0.15593,0.17129 0.0858,0 0.15593,-0.0771 0.15593,-0.17129 z m 1.24744,-0.17127 c 0,-0.1884 -0.14862,-0.34256 -0.33027,-0.34256 -0.18165,0 -0.24352,0.15416 -0.13753,0.34256 0.10589,0.1884 0.25463,0.34256 0.33027,0.34256 0.0757,0 0.13753,-0.15416 0.13753,-0.34256 z m -0.31187,-0.85637 c 0,-0.0943 -0.0701,-0.17129 -0.15593,-0.17129 -0.0858,0 -0.15593,0.0771 -0.15593,0.17129 0,0.0943 0.0701,0.17125 0.15593,0.17125 0.0858,0 0.15593,-0.0771 0.15593,-0.17125 z m -29.00257,-3.72812 c 0,-0.26065 -0.30963,-0.56282 -0.68805,-0.67153 -0.37844,-0.10874 -0.73259,-0.14873 -0.787,-0.0891 -0.0545,0.0599 -0.0108,0.36194 0.0977,0.67151 0.10816,0.30958 0.46227,0.56287 0.78698,0.56287 0.32469,0 0.59033,-0.21327 0.59033,-0.47389 z m 0.82268,-2.16216 c -0.0817,-0.0898 -0.29965,0.14728 -0.48445,0.52657 -0.18479,0.37928 -0.23924,0.9666 -0.12092,1.30512 0.17165,0.49135 0.26936,0.38514 0.48443,-0.52658 0.1482,-0.62813 0.20263,-1.21544 0.12093,-1.30511 z m -3.06194,-0.0223 c 0.0757,-0.58271 -0.0556,-0.76724 -0.54576,-0.76724 -0.48543,0 -0.6454,0.21851 -0.6454,0.8815 0,0.65468 0.14048,0.85208 0.54576,0.76722 0.30015,-0.0629 0.59057,-0.45949 0.6454,-0.88148 z m -4.3495,-0.66009 c -0.3722,-0.5026 -0.36084,-0.55036 0.087,-0.36629 0.34119,0.14027 0.49273,0.0451 0.44905,-0.28187 -0.0363,-0.27148 -0.23295,-0.67699 -0.43704,-0.90117 -0.20409,-0.22418 -0.37106,-0.28081 -0.37106,-0.12587 0,0.15495 -0.23745,0.07 -0.52764,-0.1884 -0.35854,-0.31945 -0.45259,-0.33288 -0.29345,-0.0418 0.15264,0.2791 0.0376,0.42999 -0.32997,0.43342 -0.47832,0.005 -0.49298,0.0556 -0.0964,0.3373 0.2573,0.18264 0.34537,0.33443 0.19572,0.33731 -0.14965,0.003 -0.0986,0.23476 0.11331,0.5153 0.21196,0.28053 0.50012,0.43217 0.64033,0.33696 0.14017,-0.0951 0.34314,-0.0166 0.45087,0.17506 0.1078,0.19147 0.27494,0.34812 0.37158,0.34812 0.0965,0 -0.0168,-0.26007 -0.2523,-0.57795 z m -1.05566,-0.45671 c -0.10385,-0.18454 0.0182,-0.33553 0.27141,-0.33553 0.25311,0 0.51638,-0.1851 0.58501,-0.41133 0.0777,-0.25604 0.19764,-0.28191 0.31769,-0.0686 0.10612,0.18851 -0.0721,0.5246 -0.39624,0.74686 -0.37279,0.25573 -0.65839,0.2809 -0.77787,0.0686 z m -5.45353,0.17829 c 0,-0.0943 -0.0701,-0.17129 -0.15592,-0.17129 -0.0858,0 -0.15594,0.0771 -0.15594,0.17129 0,0.0943 0.0701,0.17127 0.15594,0.17127 0.0858,0 0.15592,-0.0771 0.15592,-0.17127 z m 4.05412,0.0201 c 0,-0.083 -0.16201,-0.26103 -0.36004,-0.39548 -0.22306,-0.15143 -0.27539,-0.0939 -0.13753,0.15106 0.12239,0.2175 0.2844,0.39549 0.36003,0.39549 0.0757,0 0.13753,-0.0679 0.13753,-0.15107 z m -5.30155,-0.36276 c 0,-0.0943 -0.0701,-0.17128 -0.15591,-0.17128 -0.0858,0 -0.15592,0.0771 -0.15592,0.17128 0,0.0943 0.0701,0.17127 0.15592,0.17127 0.0858,0 0.15591,-0.0771 0.15591,-0.17127 z m 6.23712,-1.34999 c 0,-0.0831 -0.162,-0.26104 -0.36004,-0.39548 -0.22307,-0.15144 -0.27539,-0.0939 -0.13752,0.15105 0.1224,0.21754 0.28441,0.39549 0.36005,0.39549 0.0757,0 0.13753,-0.068 0.13753,-0.15106 z m -1.12843,-1.06567 c 0.10648,-0.30484 0.0543,-0.44233 -0.12254,-0.32234 -0.16954,0.11522 -0.30828,0.35434 -0.30828,0.53163 0,0.17728 0.0551,0.32233 0.12255,0.32233 0.0674,0 0.20614,-0.23923 0.30829,-0.53162 z m 1.44029,0.0179 c 0,-0.0943 -0.0701,-0.17127 -0.15592,-0.17127 -0.0858,0 -0.15594,0.0771 -0.15594,0.17127 0,0.0943 0.0701,0.17127 0.15594,0.17127 0.0858,0 0.15592,-0.0771 0.15592,-0.17127 z m -4.32288,-0.67872 c 0.32852,0.2053 0.34257,0.16771 0.062,-0.16606 -0.19945,-0.23731 -0.51521,-0.3279 -0.70167,-0.20132 -0.18645,0.12674 -0.33688,0.41374 -0.33425,0.63813 0.004,0.26823 0.098,0.24627 0.27699,-0.0641 0.16122,-0.27961 0.44538,-0.36387 0.6969,-0.20666 z m -0.0432,-1.03734 c 0,-0.0521 -0.19891,-0.17849 -0.44197,-0.28095 -0.24309,-0.10243 -0.51327,0.0177 -0.6004,0.26712 -0.10814,0.30954 0.032,0.39871 0.44199,0.28096 0.33021,-0.0948 0.60038,-0.21506 0.60038,-0.26713 z m 0.93557,0.34584 c 0,-0.0943 -0.0701,-0.17127 -0.15594,-0.17127 -0.0858,0 -0.15593,0.0771 -0.15593,0.17127 0,0.0943 0.0701,0.17129 0.15593,0.17129 0.0858,0 0.15594,-0.0771 0.15594,-0.17129 z m 11.77255,-0.0446 c 0.38592,-0.11346 0.70168,-0.41979 0.70168,-0.68042 0,-0.26064 -0.18874,-0.47388 -0.41946,-0.47388 -0.23069,0 -0.67345,0.30828 -0.9839,0.6851 -0.31045,0.3768 -0.43744,0.68301 -0.28222,0.68043 0.15522,-0.002 0.59798,-0.0977 0.9839,-0.21123 z m -17.84041,-0.78808 c -0.0987,-0.17539 -0.0367,-0.41571 0.13753,-0.53405 0.17433,-0.11825 0.31694,-0.43727 0.31694,-0.70877 0,-0.27149 -0.16371,-0.49361 -0.36382,-0.49361 -0.2001,0 -0.26695,0.10633 -0.14857,0.23645 0.11842,0.13018 -0.17397,0.43682 -0.6497,0.68171 -0.64142,0.33018 -0.68159,0.3952 -0.15544,0.25156 0.39022,-0.10644 0.68936,-0.0664 0.66475,0.0891 -0.0247,0.15548 -0.0282,0.39832 -0.007,0.53963 0.0203,0.14127 0.11534,0.25692 0.21126,0.25692 0.0959,0 0.0936,-0.14356 -0.006,-0.31889 z m 6.37971,0.14759 c 0,-0.0943 -0.0701,-0.17127 -0.15593,-0.17127 -0.0858,0 -0.15592,0.0771 -0.15592,0.17127 0,0.0943 0.0701,0.17129 0.15592,0.17129 0.0858,0 0.15593,-0.0771 0.15593,-0.17129 z m -0.93556,-0.34255 c 0,-0.0943 -0.0701,-0.17126 -0.15594,-0.17126 -0.0858,0 -0.15592,0.0771 -0.15592,0.17126 0,0.0943 0.0701,0.17128 0.15592,0.17128 0.0858,0 0.15594,-0.0771 0.15594,-0.17128 z m -0.93557,-0.68509 c 0,-0.0943 -0.0701,-0.17128 -0.15593,-0.17128 -0.0858,0 -0.15594,0.0771 -0.15594,0.17128 0,0.0943 0.0701,0.17127 0.15594,0.17127 0.0858,0 0.15593,-0.0771 0.15593,-0.17127 z m -9.04381,-0.68511 c 0,-0.0943 -0.0701,-0.17127 -0.15594,-0.17127 -0.0858,0 -0.15593,0.0771 -0.15593,0.17127 0,0.0943 0.0701,0.17129 0.15593,0.17129 0.0858,0 0.15594,-0.0771 0.15594,-0.17129 z m 0.62371,0 c 0,-0.0943 -0.0701,-0.17127 -0.15594,-0.17127 -0.0858,0 -0.15593,0.0771 -0.15593,0.17127 0,0.0943 0.0701,0.17129 0.15593,0.17129 0.0858,0 0.15594,-0.0771 0.15594,-0.17129 z m 0.93557,0 c 0,-0.0943 -0.0701,-0.17127 -0.15594,-0.17127 -0.0858,0 -0.15592,0.0771 -0.15592,0.17127 0,0.0943 0.0701,0.17129 0.15592,0.17129 0.0858,0 0.15594,-0.0771 0.15594,-0.17129 z m 6.23709,0 c 0,-0.0943 -0.0701,-0.17127 -0.15592,-0.17127 -0.0858,0 -0.15591,0.0771 -0.15591,0.17127 0,0.0943 0.0701,0.17129 0.15591,0.17129 0.0858,0 0.15592,-0.0771 0.15592,-0.17129 z m -24.170533,-0.85848 c -0.311397,-0.37795 -0.63599,-0.61051 -0.721315,-0.51679 -0.08532,0.0937 -0.378548,-0.0208 -0.651611,-0.25481 -0.438572,-0.37563 -0.446889,-0.35575 -0.07132,0.17047 0.233836,0.32765 0.533687,0.52202 0.666341,0.43197 0.132649,-0.0902 0.414605,0.0657 0.62656,0.3463 0.211957,0.28053 0.460111,0.51007 0.551453,0.51007 0.09134,0 -0.08872,-0.30925 -0.400103,-0.68721 z m 16.997873,0.17337 c 0,-0.0943 -0.0701,-0.17126 -0.15594,-0.17126 -0.0858,0 -0.15593,0.0771 -0.15593,0.17126 0,0.0943 0.0701,0.17128 0.15593,0.17128 0.0858,0 0.15594,-0.0771 0.15594,-0.17128 z m 1.24741,0 c 0,-0.0943 -0.0701,-0.17126 -0.15592,-0.17126 -0.0858,0 -0.15592,0.0771 -0.15592,0.17126 0,0.0943 0.0701,0.17128 0.15592,0.17128 0.0858,0 0.15592,-0.0771 0.15592,-0.17128 z m 2.183,-0.17126 c 0,-0.18841 -0.14863,-0.34256 -0.33026,-0.34256 -0.18164,0 -0.24354,0.15415 -0.13753,0.34256 0.10594,0.18839 0.2546,0.34254 0.33026,0.34254 0.0757,0 0.13753,-0.15415 0.13753,-0.34254 z m 0.93555,0.17126 c 0,-0.0943 -0.0701,-0.17126 -0.15591,-0.17126 -0.0858,0 -0.15594,0.0771 -0.15594,0.17126 0,0.0943 0.0701,0.17128 0.15594,0.17128 0.0858,0 0.15591,-0.0771 0.15591,-0.17128 z m 0.62373,0 c 0,-0.0943 -0.0701,-0.17126 -0.15593,-0.17126 -0.0858,0 -0.15592,0.0771 -0.15592,0.17126 0,0.0943 0.0701,0.17128 0.15592,0.17128 0.0858,0 0.15593,-0.0771 0.15593,-0.17128 z m 0.93555,0 c 0,-0.0943 -0.0701,-0.17126 -0.15592,-0.17126 -0.0858,0 -0.15591,0.0771 -0.15591,0.17126 0,0.0943 0.0701,0.17128 0.15591,0.17128 0.0858,0 0.15592,-0.0771 0.15592,-0.17128 z m -6.86077,-0.34247 c 0,-0.0943 -0.0701,-0.17129 -0.15592,-0.17129 -0.0858,0 -0.15594,0.0771 -0.15594,0.17129 0,0.0943 0.0701,0.17127 0.15594,0.17127 0.0858,0 0.15592,-0.0771 0.15592,-0.17127 z m 3.32646,-0.39965 c -0.11432,-0.12558 -0.2079,-0.0228 -0.2079,0.22836 0,0.25119 0.0936,0.35396 0.2079,0.22836 0.11431,-0.12557 0.11431,-0.33112 0,-0.45672 z m -61.955326,-0.0395 c 0,-0.14731 -0.350837,-0.29975 -0.779638,-0.33873 -0.428802,-0.039 -0.77964,0.0816 -0.77964,0.26785 0,0.18629 0.350838,0.33871 0.77964,0.33871 0.428801,0 0.779638,-0.12055 0.779638,-0.26783 z m 1.195448,-0.42253 c 0.449541,-0.006 0.456562,-0.05 0.05198,-0.3373 -0.257281,-0.18263 -0.573035,-0.33442 -0.701675,-0.3373 -0.128639,-0.002 -0.222813,0.34158 -0.209273,0.76549 0.01352,0.42392 0.0954,0.57807 0.181915,0.34256 0.08653,-0.2355 0.391188,-0.43055 0.677056,-0.43345 z m 0.05198,0.51907 c 0,-0.0943 -0.07015,-0.17126 -0.155928,-0.17126 -0.08576,0 -0.155928,0.0771 -0.155928,0.17126 0,0.0943 0.07015,0.17129 0.155928,0.17129 0.08576,0 0.155928,-0.0771 0.155928,-0.17129 z m 60.188138,0 c 0,-0.0943 -0.0701,-0.17126 -0.15592,-0.17126 -0.0858,0 -0.15593,0.0771 -0.15593,0.17126 0,0.0943 0.0701,0.17129 0.15593,0.17129 0.0858,0 0.15592,-0.0771 0.15592,-0.17129 z m -0.62371,-0.51381 c 0,-0.18841 -0.14032,-0.34256 -0.31185,-0.34256 -0.17151,0 -0.31186,0.15415 -0.31186,0.34256 0,0.1884 0.14032,0.34255 0.31186,0.34255 0.17152,0 0.31185,-0.15415 0.31185,-0.34255 z m -28.378859,-0.17128 c 0,-0.0943 -0.07017,-0.17128 -0.155928,-0.17128 -0.08576,0 -0.155929,0.0771 -0.155929,0.17128 0,0.0943 0.07015,0.17128 0.155929,0.17128 0.08576,0 0.155928,-0.0771 0.155928,-0.17128 z m -32.432992,-0.34255 c 0,-0.0943 -0.07015,-0.17128 -0.155927,-0.17128 -0.08576,0 -0.155929,0.0771 -0.155929,0.17128 0,0.0943 0.07015,0.17127 0.155929,0.17127 0.08576,0 0.155927,-0.0771 0.155927,-0.17127 z m 33.056704,-0.34256 c 0,-0.0943 -0.07017,-0.17126 -0.155928,-0.17126 -0.08576,0 -0.15593,0.0771 -0.15593,0.17126 0,0.0943 0.07017,0.17128 0.15593,0.17128 0.08576,0 0.155928,-0.0771 0.155928,-0.17128 z m 2.182989,-0.005 c 0,-0.0335 -0.270033,-0.32951 -0.600071,-0.65759 -0.571727,-0.56834 -0.594951,-0.5668 -0.491645,0.0325 0.05964,0.34599 0.119166,0.64189 0.132282,0.65761 0.01308,0.0156 0.234365,0.0286 0.491646,0.0286 0.25728,0 0.467783,-0.0275 0.467783,-0.0611 z m -0.935567,-0.33855 c 0,-0.0943 0.07015,-0.17126 0.155927,-0.17126 0.08576,0 0.155927,0.0771 0.155927,0.17126 0,0.0943 -0.07017,0.17129 -0.155927,0.17129 -0.08576,0 -0.155927,-0.0771 -0.155927,-0.17129 z m 4.36598,0 c 0,-0.0943 -0.07017,-0.17126 -0.155929,-0.17126 -0.08576,0 -0.155928,0.0771 -0.155928,0.17126 0,0.0943 0.07017,0.17129 0.155928,0.17129 0.08575,0 0.155929,-0.0771 0.155929,-0.17129 z m 0.311856,-0.68509 c 0,-0.0943 -0.07017,-0.17128 -0.155929,-0.17128 -0.08576,0 -0.155927,0.0771 -0.155927,0.17128 0,0.0943 0.07017,0.17127 0.155927,0.17127 0.08576,0 0.155929,-0.0771 0.155929,-0.17127 z m -5.613403,-0.34256 c 0,-0.0943 -0.07017,-0.17126 -0.155929,-0.17126 -0.08575,0 -0.155926,0.0771 -0.155926,0.17126 0,0.0943 0.07015,0.17128 0.155926,0.17128 0.08576,0 0.155929,-0.0771 0.155929,-0.17128 z m 2.18299,0 c 0,-0.0943 -0.07017,-0.17126 -0.155929,-0.17126 -0.08576,0 -0.155927,0.0771 -0.155927,0.17126 0,0.0943 0.07015,0.17128 0.155927,0.17128 0.08576,0 0.155929,-0.0771 0.155929,-0.17128 z m 2.600886,-0.36184 c -0.0765,-0.219 -0.488203,-0.31929 -0.929979,-0.22652 -0.54625,0.11484 -0.668808,0.25055 -0.394214,0.43695 0.219163,0.14878 0.637652,0.25073 0.929979,0.22655 0.292326,-0.0241 0.469722,-0.22081 0.394214,-0.43698 z m 0.829527,0.0193 c 0,-0.0943 -0.07017,-0.17129 -0.155929,-0.17129 -0.08576,0 -0.155927,0.0771 -0.155927,0.17129 0,0.0943 0.07017,0.17127 0.155927,0.17127 0.08576,0 0.155929,-0.0771 0.155929,-0.17127 z m 1.559278,0 c 0,-0.0943 -0.07017,-0.17129 -0.155928,-0.17129 -0.08576,0 -0.155929,0.0771 -0.155929,0.17129 0,0.0943 0.07017,0.17127 0.155929,0.17127 0.08576,0 0.155928,-0.0771 0.155928,-0.17127 z m -0.935567,-0.34255 c 0,-0.0943 -0.07017,-0.17129 -0.155929,-0.17129 -0.08576,0 -0.155928,0.0771 -0.155928,0.17129 0,0.0943 0.07017,0.17126 0.155928,0.17126 0.08576,0 0.155929,-0.0771 0.155929,-0.17126 z m -10.616703,-4.38775 c 0.0075,-0.1524 -0.116484,-0.18882 -0.275496,-0.0808 -0.159007,0.10794 -0.453019,0.74181 -0.653361,1.40862 -0.205419,0.68368 -0.263464,1.61518 -0.13312,2.13615 0.204808,0.81856 0.27771,0.68962 0.639756,-1.13147 0.224735,-1.13042 0.414732,-2.18001 0.422215,-2.33243 z m 6.250723,4.04521 c 0,-0.0943 -0.07017,-0.17128 -0.155928,-0.17128 -0.08576,0 -0.155929,0.0771 -0.155929,0.17128 0,0.0943 0.07015,0.17125 0.155929,0.17125 0.08576,0 0.155928,-0.0771 0.155928,-0.17125 z m 5.301547,0.0201 c 0,-0.0831 -0.162019,-0.26104 -0.36004,-0.39545 -0.223071,-0.15145 -0.275389,-0.0939 -0.137527,0.15106 0.122393,0.2175 0.284403,0.39545 0.36004,0.39545 0.07564,0 0.137528,-0.0679 0.137527,-0.15106 z m -8.609396,-0.73332 c 0.10411,-0.29803 0.189291,-0.75562 0.189291,-1.01689 0,-0.28335 -0.190409,-0.39481 -0.471753,-0.27623 -0.259466,0.10932 -0.6583,0.0287 -0.886297,-0.17906 -0.227998,-0.20784 -0.50688,-0.27644 -0.619741,-0.15249 -0.112854,0.12399 -0.205198,0.60394 -0.205198,1.06663 0,0.70594 0.07462,0.77319 0.464094,0.41815 0.375847,-0.34263 0.500787,-0.31806 0.657076,0.12932 0.106146,0.30383 0.30329,0.55242 0.438108,0.55242 0.134825,0 0.330308,-0.24384 0.43442,-0.54185 z m 2.684136,0.37056 c 0,-0.0943 -0.07017,-0.17127 -0.155927,-0.17127 -0.08576,0 -0.155927,0.0771 -0.155927,0.17127 0,0.0943 0.07015,0.17129 0.155927,0.17129 0.08576,0 0.155927,-0.0771 0.155927,-0.17129 z m 2.960425,-0.1671 c 0.109261,-0.19416 -0.01593,-0.25158 -0.293454,-0.13464 -0.266187,0.11219 -0.483977,0.26457 -0.483977,0.33861 0,0.074 0.132046,0.13464 0.29345,0.13464 0.161398,0 0.379188,-0.15238 0.483981,-0.33863 z m 3.588545,-0.1752 c -0.213522,-0.2826 -0.546459,-0.50892 -0.739859,-0.50292 -0.1934,0.007 -0.07924,0.2372 0.253718,0.51383 0.332943,0.27661 0.665879,0.50293 0.739861,0.50293 0.07396,0 -0.0402,-0.23122 -0.25372,-0.51384 z m -1.871133,0 c 0,-0.0943 -0.07017,-0.17126 -0.155926,-0.17126 -0.08576,0 -0.155928,0.0771 -0.155928,0.17126 0,0.0943 0.07017,0.17128 0.155928,0.17128 0.08576,0 0.155926,-0.0771 0.155926,-0.17128 z m 2.494846,-0.51382 c 0,-0.18839 -0.210503,-0.34255 -0.467783,-0.34255 -0.257282,0 -0.467784,-0.225 -0.467784,-0.50004 0,-0.34 -0.289702,-0.47703 -0.905182,-0.42818 -0.497852,0.0395 -0.83285,0.20089 -0.744444,0.3586 0.08841,0.15771 0.439452,0.20671 0.780101,0.10886 0.34065,-0.0978 0.537496,-0.0879 0.437436,0.0218 -0.10005,0.1099 0.06148,0.40287 0.358975,0.651 0.297492,0.24815 0.646149,0.45608 0.774789,0.46208 0.128639,0.007 0.233892,-0.14327 0.233892,-0.33166 z m 2.182991,0.17128 c 0,-0.0943 -0.07015,-0.17128 -0.155929,-0.17128 -0.08576,0 -0.155928,0.0771 -0.155928,0.17128 0,0.0943 0.07017,0.17128 0.155928,0.17128 0.08576,0 0.155929,-0.0771 0.155929,-0.17128 z m 1.390029,-0.14761 c 0.0987,-0.1754 0.0367,-0.41569 -0.13753,-0.53405 -0.17432,-0.11824 -0.316944,0.0252 -0.316944,0.31889 0,0.29373 0.06189,0.53405 0.137528,0.53405 0.07564,0 0.218256,-0.14357 0.316936,-0.31889 z m -15.735391,-0.92047 c 0,-0.28261 -0.140334,-0.41857 -0.311855,-0.30213 -0.171522,0.11637 -0.311857,0.44295 -0.311857,0.72554 0,0.2826 0.140334,0.41856 0.311857,0.30209 0.17152,-0.11622 0.311855,-0.4429 0.311855,-0.7255 z m 4.677835,0.7255 c 0,-0.0943 -0.07017,-0.17125 -0.155929,-0.17125 -0.08576,0 -0.155927,0.0771 -0.155927,0.17125 0,0.0943 0.07015,0.1713 0.155927,0.1713 0.08576,0 0.155929,-0.0771 0.155929,-0.1713 z m 3.430414,0 c 0,-0.0943 -0.07017,-0.17125 -0.15593,-0.17125 -0.08576,0 -0.155928,0.0771 -0.155928,0.17125 0,0.0943 0.07015,0.1713 0.155928,0.1713 0.08576,0 0.15593,-0.0771 0.15593,-0.1713 z m 2.079037,-0.057 c -0.114352,-0.12559 -0.301461,-0.12559 -0.415808,0 -0.11434,0.12558 -0.02079,0.22836 0.207904,0.22836 0.228695,0 0.322249,-0.10288 0.207904,-0.22836 z m -36.69502,-0.53511 c 0,-0.1381 -0.315754,-0.32637 -0.701675,-0.4183 -0.385921,-0.0921 -0.982346,-0.18972 -1.325387,-0.21726 -0.34304,-0.0276 -0.834215,-0.0255 -1.091494,0.006 -0.257282,0.0301 -0.05849,0.24676 0.441736,0.48128 0.500235,0.23453 1.307162,0.42057 1.793169,0.41348 0.486008,-0.007 0.883651,-0.12601 0.883651,-0.26403 z m 33.68038,0.25009 c 0,-0.0943 -0.07017,-0.17128 -0.15593,-0.17128 -0.08576,0 -0.155926,0.0771 -0.155926,0.17128 0,0.0943 0.07017,0.17128 0.155926,0.17128 0.08576,0 0.15593,-0.0771 0.15593,-0.17128 z m 0.935567,-0.34255 c 0,-0.0943 -0.07017,-0.17127 -0.15593,-0.17127 -0.08576,0 -0.155928,0.0771 -0.155928,0.17127 0,0.0943 0.07015,0.17127 0.155928,0.17127 0.08576,0 0.15593,-0.0771 0.15593,-0.17127 z m 4.054122,0 c 0,-0.0943 -0.07017,-0.17127 -0.155929,-0.17127 -0.08575,0 -0.155926,0.0771 -0.155926,0.17127 0,0.0943 0.07017,0.17127 0.155926,0.17127 0.08576,0 0.155929,-0.0771 0.155929,-0.17127 z m -4.989689,-0.34256 c 0,-0.0943 -0.07017,-0.17126 -0.15593,-0.17126 -0.08576,0 -0.155926,0.0771 -0.155926,0.17126 0,0.0943 0.07017,0.17129 0.155926,0.17129 0.08576,0 0.15593,-0.0771 0.15593,-0.17129 z m 1.871133,0 c 0,-0.0943 -0.07017,-0.17126 -0.155929,-0.17126 -0.08576,0 -0.155928,0.0771 -0.155928,0.17126 0,0.0943 0.07017,0.17129 0.155928,0.17129 0.08575,0 0.155929,-0.0771 0.155929,-0.17129 z m -2.8067,-0.34255 c 0,-0.0943 -0.07017,-0.17127 -0.15593,-0.17127 -0.08575,0 -0.155926,0.0771 -0.155926,0.17127 0,0.0943 0.07017,0.17129 0.155926,0.17129 0.08576,0 0.15593,-0.0771 0.15593,-0.17129 z m 2.695611,-0.44328 c -0.318381,-0.0743 -0.714943,0.0147 -0.88125,0.19734 -0.195264,0.2145 0.0098,0.26224 0.578871,0.13478 0.652703,-0.14617 0.731125,-0.23231 0.302379,-0.33212 z m -6.395957,-0.84659 c -0.17152,-0.18842 -0.562941,-0.23675 -0.869825,-0.10737 -0.451252,0.1902 -0.475582,0.29113 -0.127199,0.52764 0.23692,0.16081 0.628342,0.20914 0.869826,0.10736 0.292708,-0.12342 0.335112,-0.29925 0.127198,-0.5276 z m 2.764777,0.60476 c 0,-0.0943 -0.07017,-0.17127 -0.155927,-0.17127 -0.08576,0 -0.15593,0.0771 -0.15593,0.17127 0,0.0943 0.07015,0.17129 0.15593,0.17129 0.08576,0 0.155927,-0.0771 0.155927,-0.17129 z m -31.283834,-2.59322 c 0.782645,-0.32684 0.817974,-0.40346 0.325597,-0.70614 -0.303769,-0.18674 -0.474005,-0.47868 -0.378306,-0.64877 0.0957,-0.17009 -0.462687,-0.29521 -1.240862,-0.27806 -0.778175,0.0171 -1.414864,0.11523 -1.414864,0.2177 0,0.10253 0.223687,0.45801 0.497084,0.78983 0.27828,0.33777 0.712611,0.51249 0.986724,0.39695 0.323354,-0.13637 0.413062,-0.0702 0.264152,0.19439 -0.124025,0.22041 -0.156176,0.40075 -0.07147,0.40075 0.08471,0 0.549089,-0.16498 1.031936,-0.36665 z m 25.670433,-0.14717 c 0,-0.0943 -0.07017,-0.17126 -0.155929,-0.17126 -0.08576,0 -0.155928,0.0771 -0.155928,0.17126 0,0.0943 0.07017,0.17127 0.155928,0.17127 0.08576,0 0.155929,-0.0771 0.155929,-0.17127 z m -30.873714,-1.02766 c 0,-0.0943 -0.07017,-0.17128 -0.155929,-0.17128 -0.08576,0 -0.155925,0.0771 -0.155925,0.17128 0,0.0943 0.07016,0.17128 0.155925,0.17128 0.08576,0 0.155929,-0.0771 0.155929,-0.17128 z m 0.155961,-0.85639 c 0.106015,-0.18841 0.04413,-0.34255 -0.137529,-0.34255 -0.181644,0 -0.33026,0.15414 -0.33026,0.34255 0,0.1884 0.06188,0.34255 0.137527,0.34255 0.07564,0 0.224256,-0.15415 0.330262,-0.34255 z m -2.650775,-0.85639 c 0,-0.28259 -0.05515,-0.5138 -0.122556,-0.5138 -0.06741,0 -0.203339,0.23121 -0.302067,0.5138 -0.09872,0.28262 -0.04357,0.51384 0.122555,0.51384 0.166139,0 0.302068,-0.23122 0.302068,-0.51384 z m 9.35567,0.0267 c 0,-0.26799 -0.45609,-0.63952 -1.01353,-0.82562 -0.557442,-0.18609 -1.390851,-0.42984 -1.852022,-0.54165 -0.461169,-0.11196 -0.92119,-0.0562 -1.022266,0.12327 -0.101068,0.17965 0.135912,0.51705 0.526636,0.74981 0.390725,0.23271 1.201583,0.53103 1.801905,0.66288 0.600323,0.13177 1.196746,0.25746 1.325388,0.27913 0.128637,0.0216 0.233889,-0.17987 0.233889,-0.44788 z m -11.850515,-0.54042 c 0,-0.1884 -0.148617,-0.34256 -0.330262,-0.34256 -0.181641,0 -0.243527,0.15416 -0.137527,0.34256 0.106015,0.1884 0.254622,0.34255 0.330261,0.34255 0.07564,0 0.137528,-0.15415 0.137528,-0.34255 z m 14.192126,0.006 c -0.10453,-0.18577 -0.460031,-0.2925 -0.790008,-0.2372 -0.329979,0.0553 -0.697135,0.20734 -0.815902,0.33779 -0.11876,0.13047 0.236736,0.23719 0.790007,0.23719 0.581721,0 0.925802,-0.14242 0.815903,-0.33778 z m -6.70759,-0.68987 c 0,-0.3768 -0.0538,-0.68511 -0.119538,-0.68511 -0.06576,0 -0.192954,0.30831 -0.28266,0.68511 -0.0897,0.37679 -0.0359,0.68509 0.11955,0.68509 0.155464,0 0.28266,-0.3083 0.28266,-0.68509 z m -3.440331,-1.42235 c 0.0054,-0.12284 -0.404656,-0.38215 -0.911363,-0.57616 -0.80232,-0.30721 -0.946937,-0.26398 -1.11997,0.33486 -0.109273,0.3782 -0.119011,0.77513 -0.02163,0.88212 0.09739,0.1069 0.265548,-0.0587 0.373695,-0.36837 0.108147,-0.30958 0.321955,-0.56287 0.475124,-0.56287 0.153171,0 0.278492,0.41485 0.278492,0.92186 0,0.88411 0.01875,0.89462 0.457863,0.25691 0.251828,-0.36571 0.46233,-0.76545 0.467787,-0.88835 z m 0.923567,0.28884 c -0.02113,-0.72359 -0.03155,-0.72594 -0.289936,-0.0654 -0.147409,0.37681 -0.277882,0.80982 -0.289937,0.96223 -0.01219,0.15243 0.118412,0.18187 0.289937,0.0654 0.17152,-0.11623 0.30199,-0.54943 0.289936,-0.96221 z m 0.858662,0.0417 c -0.09956,-0.27328 -0.173448,-0.1921 -0.188412,0.20695 -0.01352,0.36112 0.06015,0.56345 0.163792,0.4496 0.10362,-0.1138 0.114711,-0.40927 0.02463,-0.65655 z m -13.728147,-0.7065 c -0.08652,-0.2355 -0.157295,-0.0429 -0.157295,0.42818 0,0.47101 0.07078,0.6637 0.157295,0.42819 0.08653,-0.23552 0.08653,-0.62088 0,-0.85637 z m 2.808071,0.54235 c -0.11434,-0.12557 -0.301461,-0.12557 -0.415809,0 -0.11434,0.12558 -0.02079,0.22838 0.207905,0.22838 0.228692,0 0.322251,-0.10288 0.207904,-0.22838 z m 6.296878,-0.37109 c 0.200079,-0.41413 0.155264,-0.73603 -0.144948,-1.04116 -0.364405,-0.37039 -0.434572,-0.27357 -0.434572,0.59947 0,0.57262 0.06522,1.04116 0.144948,1.04116 0.07972,0 0.275283,-0.26976 0.434572,-0.59947 z m 8.776144,0.25692 c -0.385165,-0.27343 -0.389756,-0.33299 -0.02599,-0.33731 0.242987,-0.003 0.377193,-0.0762 0.298237,-0.16292 -0.07896,-0.0868 -0.465048,-0.0654 -0.857977,0.0475 -0.534756,0.15362 -0.609757,0.27811 -0.298239,0.495 0.228901,0.15939 0.626687,0.28979 0.883967,0.28979 0.415806,0 0.415806,-0.037 0,-0.33205 z m 1.871135,0.17129 c 0,-0.0943 -0.07016,-0.17129 -0.155928,-0.17129 -0.08576,0 -0.155927,0.0771 -0.155927,0.17129 0,0.0943 0.07015,0.17126 0.155927,0.17126 0.08576,0 0.155928,-0.0771 0.155928,-0.17126 z m -12.261193,-1.26316 c -0.09956,-0.27328 -0.173449,-0.19211 -0.188414,0.20694 -0.01352,0.36111 0.06016,0.56342 0.163792,0.44961 0.103632,-0.1138 0.114711,-0.40928 0.02463,-0.65655 z m -2.319696,-0.44962 c 0.08196,-0.471 0.04452,-0.85638 -0.0832,-0.85638 -0.127742,0 -0.30351,0.29937 -0.390619,0.66527 -0.08711,0.36589 -0.0801,0.75128 0.01561,0.85637 0.0957,0.10507 0.204406,0.19112 0.241583,0.19112 0.03718,0 0.134663,-0.38537 0.216634,-0.85638 z m 1.384129,-0.2355 c -0.09956,-0.27326 -0.17345,-0.19208 -0.188414,0.20694 -0.01352,0.36112 0.06016,0.56344 0.163792,0.44962 0.103632,-0.1138 0.114711,-0.40928 0.02463,-0.65656 z m 8.518924,0.57805 c 0,-0.0943 -0.07015,-0.17126 -0.155926,-0.17126 -0.08575,0 -0.155929,0.0771 -0.155929,0.17126 0,0.0943 0.07017,0.17129 0.155929,0.17129 0.08576,0 0.155926,-0.0771 0.155926,-0.17129 z m 1.143472,-0.39965 c -0.114339,-0.12558 -0.207905,-0.0228 -0.207905,0.22839 0,0.2512 0.09355,0.35396 0.207905,0.22836 0.11434,-0.12559 0.11434,-0.33113 0,-0.45675 z m -12.063194,-0.89842 c 0.0026,-0.14872 -0.190998,-0.0716 -0.430277,0.17129 -0.239278,0.24293 -0.362071,0.57374 -0.272875,0.73517 0.0892,0.16142 0.282822,0.0845 0.430278,-0.17128 0.147453,-0.25561 0.270246,-0.58644 0.272874,-0.73518 z m -1.55928,-0.15776 c -0.0038,-0.73406 -0.07151,-0.82858 -0.30708,-0.4282 -0.166266,0.2826 -0.304453,0.70651 -0.30708,0.94201 -0.0026,0.23551 0.135559,0.4282 0.30708,0.4282 0.171521,0 0.309707,-0.4239 0.30708,-0.94201 z m 11.538661,-0.19149 c -0.004,-0.61017 -0.06131,-0.65443 -0.307081,-0.23671 -0.166267,0.2826 -0.304452,0.71561 -0.307079,0.96224 -0.0026,0.24662 0.135559,0.35313 0.307079,0.23671 0.17152,-0.11653 0.309706,-0.54945 0.307081,-0.96224 z m 0.940341,0.96224 c 0,-0.0943 -0.07015,-0.17129 -0.155926,-0.17129 -0.08575,0 -0.155929,0.0771 -0.155929,0.17129 0,0.0943 0.07017,0.17126 0.155929,0.17126 0.08576,0 0.155926,-0.0771 0.155926,-0.17126 z m -14.90255,-1.19895 c 0.07552,-0.5652 0.03073,-1.02765 -0.09952,-1.02765 -0.130255,0 -0.325511,0.30692 -0.4339,0.68204 -0.108387,0.37511 -0.109561,0.83755 -0.0026,1.02767 0.10695,0.19007 0.24042,0.3456 0.296589,0.3456 0.05618,0 0.16392,-0.46244 0.239441,-1.02766 z m 12.407707,0.85637 c 0,-0.0943 -0.07015,-0.17127 -0.155929,-0.17127 -0.08576,0 -0.155928,0.0771 -0.155928,0.17127 0,0.0943 0.07017,0.17129 0.155928,0.17129 0.08576,0 0.155929,-0.0771 0.155929,-0.17129 z m -11.104242,-0.71311 c 0.104111,-0.29801 0.189293,-0.58061 0.189293,-0.62801 0,-0.0474 -0.210504,-0.0863 -0.467784,-0.0863 -0.25728,0 -0.467783,0.28265 -0.467783,0.62803 0,0.3454 0.125317,0.62801 0.278491,0.62801 0.153168,0 0.36367,-0.24381 0.467783,-0.54183 z m 7.669052,-1.25655 c 0.0026,-0.1414 -0.135559,-0.25691 -0.307079,-0.25691 -0.171521,0 -0.309708,0.34683 -0.30708,0.77073 0.004,0.62327 0.06262,0.67242 0.30708,0.25693 0.166268,-0.28262 0.304454,-0.62945 0.307079,-0.77075 z m 2.499622,0.94201 c 0,-0.0943 -0.07015,-0.17126 -0.155928,-0.17126 -0.08576,0 -0.155928,0.0771 -0.155928,0.17126 0,0.0943 0.07015,0.17128 0.155928,0.17128 0.08575,0 0.155928,-0.0771 0.155928,-0.17128 z m -5.224699,-1.37319 c 0.121042,-0.69558 0.06853,-0.78551 -0.275501,-0.47189 -0.233783,0.21313 -0.425059,0.59986 -0.425059,0.85939 0,0.25952 0.123981,0.47188 0.2755,0.47188 0.151526,0 0.342804,-0.38673 0.42506,-0.85938 z m -2.571693,-0.68211 c 0,-0.2826 -0.140335,-0.51382 -0.311856,-0.51382 -0.171521,0 -0.311856,0.23122 -0.311856,0.51382 0,0.2826 0.140335,0.51383 0.311856,0.51383 0.171521,0 0.311856,-0.23123 0.311856,-0.51383 z m -1.871135,0 c 0,-0.0943 -0.07015,-0.17127 -0.155928,-0.17127 -0.08576,0 -0.155926,0.0771 -0.155926,0.17127 0,0.0943 0.07017,0.17129 0.155926,0.17129 0.08576,0 0.155928,-0.0771 0.155928,-0.17129 z m -2.182991,-0.34255 c 0,-0.0943 -0.07016,-0.17127 -0.155926,-0.17127 -0.08576,0 -0.155929,0.0771 -0.155929,0.17127 0,0.0943 0.07017,0.17128 0.155929,0.17128 0.08576,0 0.155926,-0.0771 0.155926,-0.17128 z m 1.55928,-0.55425 c 0,-0.18842 -0.140333,-0.2473 -0.311856,-0.13076 -0.17152,0.11651 -0.311854,0.36586 -0.311854,0.55427 0,0.1884 0.140334,0.24728 0.311854,0.13075 0.17152,-0.11651 0.311856,-0.36585 0.311856,-0.55424 z m -1.55928,-0.13076 c 0,-0.0943 -0.07016,-0.17127 -0.155926,-0.17127 -0.08576,0 -0.155929,0.0771 -0.155929,0.17127 0,0.0943 0.07017,0.17129 0.155929,0.17129 0.08576,0 0.155926,-0.0771 0.155926,-0.17129 z M 157.0987,173.19743 c -0.10588,-0.18841 -0.0441,-0.34255 0.13753,-0.34255 0.18163,0 0.33027,0.15414 0.33027,0.34255 0,0.1884 -0.0618,0.34255 -0.13753,0.34255 -0.0757,0 -0.22424,-0.15415 -0.33025,-0.34255 z m 2.02706,-11.81801 c 0,-0.0943 0.0701,-0.17128 0.15593,-0.17128 0.0858,0 0.15592,0.0771 0.15592,0.17128 0,0.0943 -0.0701,0.17129 -0.15592,0.17129 -0.0858,0 -0.15593,-0.0771 -0.15593,-0.17129 z m 3.25662,-4.42517 c -0.33267,-0.26719 -0.51992,-0.57912 -0.4161,-0.69316 0.10385,-0.11403 0.41935,-0.11024 0.70118,0.009 0.28183,0.11883 0.51241,0.43074 0.51241,0.69319 0,0.26245 -0.0434,0.47718 -0.0964,0.47718 -0.0531,0 -0.36851,-0.21862 -0.70119,-0.48583 z m -48.78755,-5.33754 c 0,-0.2512 0.0936,-0.35396 0.2079,-0.22837 0.11432,0.12558 0.11432,0.33113 0,0.45674 -0.11431,0.12557 -0.2079,0.0228 -0.2079,-0.22837 z m 3.12139,-0.16751 c -0.21195,-0.28052 -0.54489,-0.40508 -0.73984,-0.27679 -0.19498,0.12832 -0.16189,-0.0276 0.0735,-0.34633 0.23541,-0.31876 0.58624,-0.5674 0.77963,-0.55253 0.20338,0.0156 0.17924,0.10289 -0.0572,0.2068 -0.31772,0.13968 -0.28955,0.32459 0.12637,0.82932 0.29434,0.35729 0.46045,0.64958 0.36909,0.64958 -0.0914,0 -0.33949,-0.22951 -0.55145,-0.51005 z m 1.24459,-0.005 c 0,-0.0943 0.0701,-0.17126 0.15592,-0.17126 0.0858,0 0.15592,0.0771 0.15592,0.17126 0,0.0943 -0.0701,0.17129 -0.15592,0.17129 -0.0858,0 -0.15592,-0.0771 -0.15592,-0.17129 z m -0.62371,-0.83615 c 0,-0.17729 0.1387,-0.41651 0.30827,-0.53162 0.17678,-0.11997 0.22906,0.0176 0.12255,0.32234 -0.10213,0.29239 -0.24087,0.5316 -0.3083,0.5316 -0.0674,0 -0.12254,-0.14503 -0.12254,-0.32232 z m 5.82821,0.0844 c -0.11619,-0.20648 0.006,-0.46754 0.27452,-0.58016 0.26717,-0.11265 0.40441,-0.34935 0.30497,-0.52605 -0.0994,-0.17673 -0.005,-0.43376 0.21413,-0.57116 0.21719,-0.13752 0.29088,-0.12386 0.16371,0.0303 -0.12709,0.15418 -0.0747,0.48719 0.11619,0.74003 0.26498,0.35072 0.23354,0.45971 -0.13268,0.45971 -0.26399,0 -0.53615,0.1851 -0.60482,0.41132 -0.0879,0.28946 -0.18739,0.30008 -0.33604,0.0359 z m 0.72076,0.0666 c 0,-0.0943 0.0701,-0.17126 0.15591,-0.17126 0.0858,0 0.15594,0.0771 0.15594,0.17126 0,0.0943 -0.0701,0.17128 -0.15594,0.17128 -0.0858,0 -0.15591,-0.0771 -0.15591,-0.17128 z M 112.9711,150.4165 c 0,-0.0943 0.0701,-0.17127 0.15594,-0.17127 0.0858,0 0.15594,0.0771 0.15594,0.17127 0,0.0943 -0.0701,0.17129 -0.15594,0.17129 -0.0858,0 -0.15594,-0.0771 -0.15594,-0.17129 z m 2.33893,-0.17127 c 0.10594,-0.1884 0.26291,-0.34255 0.34865,-0.34255 0.0858,0 0.0692,0.15415 -0.0367,0.34255 -0.10595,0.18841 -0.26291,0.34256 -0.34867,0.34256 -0.0858,0 -0.0692,-0.15415 0.0367,-0.34256 z m 5.53529,-0.0857 c 0.0714,-0.23551 0.39438,-0.48451 0.71775,-0.55334 0.50866,-0.10817 0.53155,-0.0505 0.16985,0.42819 -0.22993,0.30432 -0.55292,0.55333 -0.71775,0.55333 -0.16479,0 -0.24124,-0.19268 -0.16985,-0.42818 z m 0.5459,-0.0856 c 0,-0.0943 -0.0701,-0.17126 -0.15593,-0.17126 -0.0858,0 -0.15594,0.0771 -0.15594,0.17126 0,0.0943 0.0701,0.17128 0.15594,0.17128 0.0858,0 0.15593,-0.0771 0.15593,-0.17128 z m 0.93555,0.34257 c 0,-0.0943 0.0701,-0.17129 0.15594,-0.17129 0.0858,0 0.15593,0.0771 0.15593,0.17129 0,0.0943 -0.0701,0.17126 -0.15593,0.17126 -0.0858,0 -0.15594,-0.0771 -0.15594,-0.17126 z m -10.29123,-0.34257 c 0,-0.0943 0.0701,-0.17126 0.15593,-0.17126 0.0858,0 0.15594,0.0771 0.15594,0.17126 0,0.0943 -0.0701,0.17128 -0.15594,0.17128 -0.0858,0 -0.15593,-0.0771 -0.15593,-0.17128 z m 2.18299,0 c 0,-0.0943 0.0701,-0.17126 0.15593,-0.17126 0.0858,0 0.15594,0.0771 0.15594,0.17126 0,0.0943 -0.0701,0.17128 -0.15594,0.17128 -0.0858,0 -0.15593,-0.0771 -0.15593,-0.17128 z m 5.61342,0 c 0,-0.0943 0.0701,-0.17126 0.15592,-0.17126 0.0858,0 0.15591,0.0771 0.15591,0.17126 0,0.0943 -0.0701,0.17128 -0.15591,0.17128 -0.0858,0 -0.15592,-0.0771 -0.15592,-0.17128 z m 42.72421,0 c 0,-0.0943 0.0701,-0.17126 0.15594,-0.17126 0.0858,0 0.15593,0.0771 0.15593,0.17126 0,0.0943 -0.0701,0.17128 -0.15593,0.17128 -0.0858,0 -0.15594,-0.0771 -0.15594,-0.17128 z m 0.62371,0 c 0,-0.0943 0.0701,-0.17126 0.15593,-0.17126 0.0858,0 0.15593,0.0771 0.15593,0.17126 0,0.0943 -0.0701,0.17128 -0.15593,0.17128 -0.0858,0 -0.15593,-0.0771 -0.15593,-0.17128 z m 0.62373,0 c 0,-0.0943 0.0701,-0.17126 0.15592,-0.17126 0.0858,0 0.15594,0.0771 0.15594,0.17126 0,0.0943 -0.0701,0.17128 -0.15594,0.17128 -0.0858,0 -0.15592,-0.0771 -0.15592,-0.17128 z m -44.90724,-0.34255 c 0,-0.0943 0.0701,-0.17127 0.15594,-0.17127 0.0858,0 0.15592,0.0771 0.15592,0.17127 0,0.0943 -0.0701,0.17129 -0.15592,0.17129 -0.0858,0 -0.15594,-0.0771 -0.15594,-0.17129 z m 42.72423,0 c 0,-0.0943 0.0701,-0.17127 0.15594,-0.17127 0.0858,0 0.15594,0.0771 0.15594,0.17127 0,0.0943 -0.0701,0.17129 -0.15594,0.17129 -0.0858,0 -0.15594,-0.0771 -0.15594,-0.17129 z m -50.20876,-0.34231 c 0,-0.0943 0.0701,-0.17128 0.15593,-0.17128 0.0858,0 0.15592,0.0771 0.15592,0.17128 0,0.0943 -0.0701,0.17127 -0.15592,0.17127 -0.0858,0 -0.15593,-0.0771 -0.15593,-0.17127 z m 1.06172,-0.2242 c -0.13783,-0.24504 -0.0857,-0.30251 0.13753,-0.15106 0.19801,0.13435 0.36002,0.31239 0.36002,0.39548 0,0.0831 -0.0618,0.15105 -0.13753,0.15105 -0.0757,0 -0.23764,-0.17797 -0.36004,-0.39547 z m 5.48726,0.2242 c 0,-0.0943 0.0701,-0.17128 0.15592,-0.17128 0.0858,0 0.15592,0.0771 0.15592,0.17128 0,0.0943 -0.0701,0.17127 -0.15592,0.17127 -0.0858,0 -0.15592,-0.0771 -0.15592,-0.17127 z m -2.30365,-0.5765 c 0.0901,-0.16008 0.29439,-0.20238 0.45406,-0.0939 0.15965,0.10828 0.29031,0.23936 0.29031,0.29104 0,0.0516 -0.20434,0.0939 -0.45408,0.0939 -0.24974,0 -0.38036,-0.13091 -0.29029,-0.29103 z m -4.24533,-0.10863 c 0,-0.0943 0.0701,-0.17129 0.15593,-0.17129 0.0858,0 0.15592,0.0771 0.15592,0.17129 0,0.0943 -0.0701,0.17126 -0.15592,0.17126 -0.0858,0 -0.15593,-0.0771 -0.15593,-0.17126 z m 2.183,0 c 0,-0.0943 0.0701,-0.17129 0.15592,-0.17129 0.0858,0 0.15592,0.0771 0.15592,0.17129 0,0.0943 -0.0701,0.17126 -0.15592,0.17126 -0.0858,0 -0.15592,-0.0771 -0.15592,-0.17126 z m 1.09149,-0.17127 c 0.10594,-0.18839 0.2629,-0.34253 0.34865,-0.34253 0.0858,0 0.0692,0.15414 -0.0367,0.34253 -0.10593,0.18841 -0.26289,0.34256 -0.34867,0.34256 -0.0858,0 -0.0692,-0.15415 0.0367,-0.34256 z m 4.21004,0.17128 c 0,-0.0943 0.0701,-0.17128 0.15594,-0.17128 0.0858,0 0.15592,0.0771 0.15592,0.17128 0,0.0943 -0.0701,0.17128 -0.15592,0.17128 -0.0858,0 -0.15594,-0.0771 -0.15594,-0.17128 z m -11.2268,-0.34255 c 0,-0.0943 0.0701,-0.17126 0.15594,-0.17126 0.0858,0 0.15592,0.0771 0.15592,0.17126 0,0.0942 -0.0701,0.17127 -0.15592,0.17127 -0.0858,0 -0.15594,-0.0771 -0.15594,-0.17127 z m 4.98969,0 c 0,-0.0943 0.0701,-0.17126 0.15594,-0.17126 0.0858,0 0.15591,0.0771 0.15591,0.17126 0,0.0942 -0.0701,0.17127 -0.15591,0.17127 -0.0858,0 -0.15594,-0.0771 -0.15594,-0.17127 z m -4.05411,-0.34256 c 0,-0.0943 0.0701,-0.17126 0.15594,-0.17126 0.0858,0 0.15591,0.0771 0.15591,0.17126 0,0.0943 -0.0701,0.1713 -0.15591,0.1713 -0.0858,0 -0.15594,-0.0771 -0.15594,-0.1713 z m 1.37357,-0.2242 c -0.13782,-0.24503 -0.0857,-0.30248 0.13753,-0.15104 0.19803,0.13435 0.36004,0.3124 0.36004,0.39547 0,0.0831 -0.0619,0.15107 -0.13753,0.15107 -0.0757,0 -0.23766,-0.17799 -0.36004,-0.3955 z m -4.49214,-0.11825 c 0,-0.0943 0.0701,-0.17125 0.15592,-0.17125 0.0858,0 0.15594,0.0771 0.15594,0.17125 0,0.0943 -0.0701,0.17129 -0.15594,0.17129 -0.0858,0 -0.15592,-0.0771 -0.15592,-0.17129 z m 1.99728,-0.22419 c -0.13782,-0.24504 -0.0855,-0.3025 0.13753,-0.15108 0.19802,0.13437 0.36004,0.31241 0.36004,0.39549 0,0.0831 -0.0619,0.15107 -0.13752,0.15107 -0.0757,0 -0.23767,-0.17798 -0.36005,-0.39548 z m 5.27936,0.16711 c 0.11431,-0.12557 0.30147,-0.12557 0.4158,0 0.11431,0.12558 0.0207,0.22837 -0.20791,0.22837 -0.22868,0 -0.32225,-0.10288 -0.20789,-0.22837 z m 2.18299,0 c 0.11431,-0.12557 0.30146,-0.12557 0.41581,0 0.11432,0.12558 0.0207,0.22837 -0.2079,0.22837 -0.2287,0 -0.32227,-0.10288 -0.20791,-0.22837 z m 46.36254,0.0571 c 0,-0.0943 0.0701,-0.17128 0.15594,-0.17128 0.0858,0 0.15591,0.0771 0.15591,0.17128 0,0.0943 -0.0701,0.17127 -0.15591,0.17127 -0.0858,0 -0.15594,-0.0771 -0.15594,-0.17127 z m -59.56444,-0.34254 c 0,-0.0943 0.0701,-0.17129 0.15592,-0.17129 0.0858,0 0.15594,0.0771 0.15594,0.17129 0,0.0943 -0.0701,0.17126 -0.15594,0.17126 -0.0858,0 -0.15592,-0.0771 -0.15592,-0.17126 z m 2.63344,-0.20211 c -0.0999,-0.1776 -0.29357,-0.24694 -0.43032,-0.15413 -0.13679,0.0928 -0.49663,-0.13219 -0.79976,-0.50015 -0.30314,-0.36793 -0.65683,-0.59721 -0.78598,-0.50952 -0.12916,0.0876 -0.38496,-0.0393 -0.56847,-0.28212 -0.25644,-0.33942 -0.16121,-0.44155 0.41168,-0.44155 0.40988,0 0.71953,0.16187 0.68808,0.35968 -0.0314,0.19783 0.11828,0.32115 0.33265,0.27404 0.2144,-0.047 0.35473,0.0531 0.31186,0.22266 -0.0429,0.16957 0.0623,0.3083 0.23389,0.3083 0.17152,0 0.26638,-0.17294 0.21083,-0.38431 -0.0557,-0.21139 0.19001,-0.0949 0.54573,0.2586 0.49607,0.49313 0.65539,0.5308 0.68372,0.16167 0.0203,-0.2647 0.009,-0.63543 -0.0259,-0.82384 -0.0347,-0.18839 0.0539,-0.21407 0.19696,-0.0571 0.14296,0.15701 0.26625,0.46532 0.27406,0.68512 0.009,0.2198 0.16975,0.36602 0.3599,0.32494 0.19015,-0.0411 0.52786,0.19016 0.75043,0.51384 0.3323,0.48323 0.332,0.51798 -0.001,0.19419 -0.26398,-0.25621 -0.72157,-0.29505 -1.30614,-0.11082 -0.52846,0.16648 -0.97478,0.15021 -1.08148,-0.0395 z m 0.48512,-0.12026 c 0,-0.083 -0.16201,-0.26105 -0.36004,-0.39548 -0.22306,-0.15145 -0.27538,-0.0939 -0.13753,0.15105 0.1224,0.21753 0.2844,0.3955 0.36003,0.3955 0.0757,0 0.13753,-0.0679 0.13753,-0.15107 z m -2.49484,-1.39042 c 0,-0.0943 -0.0701,-0.17128 -0.15593,-0.17128 -0.0858,0 -0.15593,0.0771 -0.15593,0.17128 0,0.0943 0.0701,0.17126 0.15593,0.17126 0.0858,0 0.15593,-0.0771 0.15593,-0.17126 z m 58.00515,1.71275 c 0,-0.0943 0.0701,-0.17126 0.15592,-0.17126 0.0858,0 0.15594,0.0771 0.15594,0.17126 0,0.0943 -0.0701,0.17129 -0.15594,0.17129 -0.0858,0 -0.15592,-0.0771 -0.15592,-0.17129 z m -47.40207,-0.34256 c 0,-0.0943 0.0701,-0.17127 0.15594,-0.17127 0.0858,0 0.15594,0.0771 0.15594,0.17127 0,0.0943 -0.0701,0.1713 -0.15594,0.1713 -0.0858,0 -0.15594,-0.0771 -0.15594,-0.1713 z m -5.92525,-0.68509 c 0,-0.0943 0.0701,-0.17128 0.15593,-0.17128 0.0858,0 0.15592,0.0771 0.15592,0.17128 0,0.0943 -0.0701,0.17128 -0.15592,0.17128 -0.0858,0 -0.15593,-0.0771 -0.15593,-0.17128 z m 11.53867,0 c 0,-0.0943 0.0701,-0.17128 0.15592,-0.17128 0.0858,0 0.15592,0.0771 0.15592,0.17128 0,0.0943 -0.0701,0.17128 -0.15592,0.17128 -0.0858,0 -0.15592,-0.0771 -0.15592,-0.17128 z m -19.063488,-0.73797 c -0.18823,-0.24912 -0.45698,-0.37506 -0.59721,-0.27986 -0.140229,0.0951 -0.34453,0.0144 -0.453994,-0.18063 -0.109464,-0.19456 -0.319967,-0.27162 -0.467785,-0.17129 -0.147817,0.10047 -0.379759,-0.013 -0.515429,-0.25133 -0.135677,-0.23857 -0.274433,-0.63506 -0.308364,-0.88108 -0.04802,-0.34812 0.03648,-0.35782 0.38105,-0.0436 0.24351,0.22199 0.442743,0.26141 0.442743,0.0876 0,-0.17379 -0.166982,-0.4994 -0.37107,-0.72358 -0.204089,-0.22418 -0.403952,-0.6537 -0.444142,-0.95448 -0.0668,-0.49981 -0.02593,-0.50004 0.474341,-0.002 0.301079,0.2993 0.641277,0.46676 0.755999,0.37214 0.114711,-0.0946 0.138115,-0.0687 0.05198,0.0571 -0.08614,0.12602 0.08929,0.54726 0.389821,0.93611 0.51927,0.67186 0.5193,0.68393 6.8e-4,0.24277 -0.300162,-0.25534 -0.545747,-0.31008 -0.545747,-0.1217 0,0.18839 0.210502,0.53443 0.467782,0.769 0.257295,0.23453 0.467785,0.30657 0.467785,0.16011 0,-0.14647 0.25698,-0.0103 0.57107,0.30137 0.314078,0.31222 0.641508,0.49024 0.727658,0.39564 0.0861,-0.0947 0.1566,0.0334 0.1566,0.28471 0,0.25119 -0.18934,0.45672 -0.42075,0.45672 -0.23142,0 -0.574768,-0.20382 -0.763008,-0.45296 z m 0.663998,0.0953 c 0,-0.071 -0.245588,-0.3409 -0.545748,-0.59947 -0.49463,-0.42609 -0.50564,-0.41399 -0.11769,0.12932 0.2354,0.3297 0.480978,0.59946 0.545748,0.59946 0.0648,0 0.11769,-0.0583 0.11769,-0.12931 z m -1.493747,-0.9634 c -0.204089,-0.22417 -0.583661,-0.44186 -0.843495,-0.48373 -0.259835,-0.042 -0.391895,0.067 -0.293465,0.2419 0.09843,0.17493 0.299903,0.23597 0.44772,0.13564 0.147818,-0.10035 0.356905,-0.0258 0.46464,0.1657 0.107728,0.19148 0.285834,0.34816 0.395779,0.34816 0.10995,0 0.0329,-0.18343 -0.171179,-0.40762 z M 98.3139,143.26564 c 0,-0.0711 -0.245586,-0.34089 -0.545748,-0.59949 -0.494621,-0.42606 -0.505652,-0.41396 -0.117741,0.12933 0.235404,0.32971 0.480991,0.59947 0.545747,0.59947 0.06475,0 0.117754,-0.0583 0.117754,-0.12933 z m 12.78607,2.69846 c 0,-0.0943 0.0701,-0.17128 0.15593,-0.17128 0.0858,0 0.15593,0.0771 0.15593,0.17128 0,0.0943 -0.0701,0.17128 -0.15593,0.17128 -0.0858,0 -0.15593,-0.0771 -0.15593,-0.17128 z m -2.05683,-0.46091 c 0.13047,-0.23178 0.029,-0.39546 -0.24526,-0.39546 -0.25729,0 -0.558,-0.16033 -0.66826,-0.35629 -0.12989,-0.23102 0.0829,-0.27819 0.60532,-0.13407 0.67562,0.18628 0.80575,0.10541 0.80575,-0.50009 0,-0.39724 0.12108,-0.72225 0.26899,-0.72225 0.14793,0 0.22771,0.42391 0.1773,0.94201 -0.0868,0.89287 -0.0683,0.90733 0.35474,0.2771 0.3885,-0.57868 0.44641,-0.5898 0.44641,-0.0856 0,0.31862 -0.14032,0.59856 -0.31187,0.62213 -0.17151,0.0236 -0.41711,0.0645 -0.54573,0.0909 -0.12871,0.0264 -0.43101,0.1851 -0.6719,0.35264 -0.30111,0.2094 -0.36846,0.18098 -0.21549,-0.0909 z m -4.80399,-0.22421 c 0,-0.0943 0.0701,-0.17125 0.15593,-0.17125 0.0858,0 0.15592,0.0771 0.15592,0.17125 0,0.0943 -0.0701,0.17129 -0.15592,0.17129 -0.0858,0 -0.15593,-0.0771 -0.15593,-0.17129 z m -0.93557,-0.34255 c 0,-0.0943 0.0701,-0.17127 0.15594,-0.17127 0.0858,0 0.15592,0.0771 0.15592,0.17127 0,0.0943 -0.0701,0.1713 -0.15592,0.1713 -0.0858,0 -0.15594,-0.0771 -0.15594,-0.1713 z m -10.545909,-0.58799 c -0.202967,-0.22295 -0.369029,-0.27356 -0.369029,-0.11254 0,0.16109 -0.245587,0.0486 -0.545748,-0.24961 -0.300162,-0.29838 -0.650999,-0.55351 -0.779641,-0.56694 -0.128637,-0.013 -0.198807,-0.0778 -0.155926,-0.14299 0.04288,-0.0653 -0.104267,-0.35979 -0.326999,-0.65458 -0.312088,-0.41306 -0.318916,-0.5944 -0.02979,-0.79068 0.220329,-0.14958 0.293973,-0.11036 0.178427,0.095 -0.108219,0.19233 0.08059,0.62542 0.419597,0.96239 0.338997,0.33699 0.616359,0.48785 0.616359,0.33524 0,-0.15261 0.295403,0.0162 0.656452,0.3751 0.361049,0.35892 0.711887,0.61402 0.779639,0.56691 0.06775,-0.047 0.134883,0.005 0.149175,0.11426 0.01425,0.10989 -0.03015,0.26147 -0.09877,0.33684 -0.06862,0.0754 -0.290803,-0.0454 -0.493771,-0.26834 z m 0.566537,-0.0971 c 0,-0.0943 -0.07017,-0.17128 -0.155928,-0.17128 -0.08576,0 -0.155928,0.0771 -0.155928,0.17128 0,0.0943 0.07015,0.17127 0.155928,0.17127 0.08576,0 0.155928,-0.0771 0.155928,-0.17127 z M 92.388642,143.929 c 0,-0.0831 -0.162018,-0.26106 -0.360042,-0.39549 -0.223069,-0.15142 -0.275387,-0.0939 -0.137527,0.15107 0.122393,0.21752 0.284403,0.39548 0.360041,0.39548 0.07564,0 0.137528,-0.0679 0.137528,-0.15106 z m -1.247423,-0.70532 c 0,-0.0943 -0.07017,-0.17128 -0.155927,-0.17128 -0.08576,0 -0.15593,0.0771 -0.15593,0.17128 0,0.0943 0.07017,0.17127 0.15593,0.17127 0.08576,0 0.155927,-0.0771 0.155927,-0.17127 z m 9.481821,1.14601 c -0.13783,-0.24504 -0.0855,-0.30249 0.13752,-0.15108 0.19804,0.13437 0.36006,0.3124 0.36006,0.39549 0,0.0831 -0.0619,0.15104 -0.13753,0.15104 -0.0757,0 -0.23766,-0.17795 -0.36004,-0.39545 z m 0.80941,0.22419 c 0,-0.0943 0.0701,-0.17127 0.15592,-0.17127 0.0858,0 0.15593,0.0771 0.15593,0.17127 0,0.0943 -0.0701,0.17126 -0.15593,0.17126 -0.0858,0 -0.15592,-0.0771 -0.15592,-0.17126 z m 5.92525,0 c 0,-0.0943 0.0701,-0.17127 0.15594,-0.17127 0.0858,0 0.15592,0.0771 0.15592,0.17127 0,0.0943 -0.0701,0.17126 -0.15592,0.17126 -0.0858,0 -0.15594,-0.0771 -0.15594,-0.17126 z m -7.670238,-0.56674 c -0.13782,-0.24504 -0.0855,-0.30251 0.13753,-0.15108 0.198018,0.13436 0.360038,0.3124 0.360038,0.39547 0,0.0831 -0.0618,0.15108 -0.13753,0.15108 -0.0757,0 -0.237658,-0.17798 -0.360038,-0.39547 z m 2.368698,0.2242 c 0,-0.0943 0.0701,-0.17128 0.15593,-0.17128 0.0858,0 0.15593,0.0771 0.15593,0.17128 0,0.0943 -0.0701,0.17127 -0.15593,0.17127 -0.0858,0 -0.15593,-0.0771 -0.15593,-0.17127 z m 3.43041,-0.36278 c 0,-0.29371 0.14267,-0.43721 0.31695,-0.31888 0.17432,0.11824 0.2362,0.35864 0.13752,0.53404 -0.0986,0.17539 -0.2413,0.31889 -0.31694,0.31889 -0.0757,0 -0.13753,-0.24031 -0.13753,-0.53405 z m 0.93557,0.36278 c 0,-0.0943 0.0701,-0.17128 0.15593,-0.17128 0.0858,0 0.15593,0.0771 0.15593,0.17128 0,0.0943 -0.0701,0.17127 -0.15593,0.17127 -0.0858,0 -0.15593,-0.0771 -0.15593,-0.17127 z m 2.30915,-0.2242 c -0.13782,-0.24504 -0.0857,-0.30251 0.13753,-0.15108 0.19802,0.13436 0.36004,0.3124 0.36004,0.39547 0,0.0831 -0.0619,0.15108 -0.13753,0.15108 -0.0757,0 -0.23766,-0.17798 -0.36004,-0.39547 z m -7.61069,-0.11825 c 0,-0.0943 0.0701,-0.17126 0.15593,-0.17126 0.0858,0 0.15592,0.0771 0.15592,0.17126 0,0.0943 -0.0701,0.1713 -0.15592,0.1713 -0.0858,0 -0.15593,-0.0771 -0.15593,-0.1713 z m 6.67512,-0.22419 c -0.13783,-0.24502 -0.0855,-0.3025 0.13752,-0.15106 0.19803,0.13436 0.36005,0.3124 0.36005,0.39549 0,0.083 -0.0619,0.15106 -0.13753,0.15106 -0.0757,0 -0.23766,-0.17797 -0.36004,-0.39549 z m -4.18028,-0.11825 c 0,-0.0943 0.0701,-0.17127 0.15593,-0.17127 0.0858,0 0.15593,0.0771 0.15593,0.17127 0,0.0943 -0.0701,0.17129 -0.15593,0.17129 -0.0858,0 -0.15593,-0.0771 -0.15593,-0.17129 z m 3.2447,-0.2242 c -0.13782,-0.24504 -0.0855,-0.3025 0.13753,-0.15106 0.19802,0.13436 0.36003,0.31238 0.36003,0.39548 0,0.0831 -0.0618,0.15107 -0.13753,0.15107 -0.0757,0 -0.23765,-0.17799 -0.36004,-0.39549 z m -5.88216,-0.26595 c -0.0987,-0.17538 -0.0601,-0.39984 0.0855,-0.49876 0.14575,-0.099 0.26497,0.0445 0.26497,0.31887 0,0.27431 -0.0385,0.49877 -0.0855,0.49877 -0.047,0 -0.16628,-0.14356 -0.26497,-0.31888 z m 3.4171,-0.0237 c -0.10595,-0.18841 0.0342,-0.34256 0.31184,-0.34256 0.27754,0 0.41788,0.15415 0.31188,0.34256 -0.10593,0.1884 -0.24635,0.34255 -0.31188,0.34255 -0.0655,0 -0.20583,-0.15415 -0.31184,-0.34255 z m 4.21006,0.17126 c 0,-0.0943 0.0701,-0.17126 0.15594,-0.17126 0.0858,0 0.15591,0.0771 0.15591,0.17126 0,0.0943 -0.0701,0.17129 -0.15591,0.17129 -0.0858,0 -0.15594,-0.0771 -0.15594,-0.17129 z m 2.18299,-0.17126 c 0,-0.2512 0.0936,-0.35399 0.20789,-0.22836 0.11431,0.12558 0.11431,0.33112 0,0.45673 -0.11432,0.12558 -0.20789,0.0228 -0.20789,-0.22837 z m -10.6031,-0.17129 c 0,-0.0943 0.0702,-0.17127 0.15593,-0.17127 0.0858,0 0.15592,0.0771 0.15592,0.17127 0,0.0943 -0.0702,0.17129 -0.15592,0.17129 -0.0858,0 -0.15593,-0.0771 -0.15593,-0.17129 z m 1.87113,0 c 0,-0.0943 0.0701,-0.17127 0.15593,-0.17127 0.0858,0 0.15593,0.0771 0.15593,0.17127 0,0.0943 -0.0701,0.17129 -0.15593,0.17129 -0.0858,0 -0.15593,-0.0771 -0.15593,-0.17129 z m 1.37358,-0.2242 c -0.13783,-0.24502 -0.0855,-0.30249 0.13752,-0.15105 0.19804,0.13436 0.36006,0.31239 0.36006,0.39547 0,0.0831 -0.0618,0.15107 -0.13753,0.15107 -0.0757,0 -0.23766,-0.17797 -0.36004,-0.39549 z m -4.180278,-0.11825 c 0,-0.0943 0.0702,-0.17128 0.15592,-0.17128 0.0858,0 0.15594,0.0771 0.15594,0.17128 0,0.0943 -0.0702,0.17128 -0.15594,0.17128 -0.0858,0 -0.15592,-0.0771 -0.15592,-0.17128 z m 3.244718,-0.2242 c -0.13782,-0.24502 -0.0855,-0.30249 0.13753,-0.15106 0.19802,0.13436 0.36004,0.31238 0.36004,0.39549 0,0.0831 -0.0618,0.15105 -0.13753,0.15105 -0.0757,0 -0.23765,-0.17797 -0.36003,-0.39548 z m 7.04651,0.2242 c 0,-0.0943 0.0701,-0.17128 0.15594,-0.17128 0.0858,0 0.15592,0.0771 0.15592,0.17128 0,0.0943 -0.0701,0.17128 -0.15592,0.17128 -0.0858,0 -0.15594,-0.0771 -0.15594,-0.17128 z m -5.30154,-0.34253 c 0,-0.0943 0.0701,-0.17129 0.15593,-0.17129 0.0858,0 0.15592,0.0771 0.15592,0.17129 0,0.0943 -0.0701,0.17125 -0.15592,0.17125 -0.0858,0 -0.15593,-0.0771 -0.15593,-0.17125 z m 2.18299,0 c 0,-0.0943 0.0701,-0.17129 0.15593,-0.17129 0.0858,0 0.15593,0.0771 0.15593,0.17129 0,0.0943 -0.0701,0.17125 -0.15593,0.17125 -0.0858,0 -0.15593,-0.0771 -0.15593,-0.17125 z m -8.459077,-0.30062 c -0.02144,-0.11739 -0.05652,-0.35453 -0.07798,-0.52721 -0.02144,-0.17273 -0.166733,-0.44248 -0.322872,-0.59947 -0.164938,-0.16585 -0.189894,-0.10598 -0.05955,0.1427 0.123378,0.23548 0.08399,0.42818 -0.08753,0.42818 -0.17152,0 -0.398587,-0.15415 -0.504593,-0.34255 -0.106015,-0.18841 -0.0091,-0.36082 0.215488,-0.38312 0.224524,-0.0223 0.481008,-0.034 0.569966,-0.0264 0.08897,0.007 0.565976,0.12558 1.060044,0.26179 0.695456,0.19173 0.841706,0.14708 0.647676,-0.1978 -0.16655,-0.29601 -0.12813,-0.36226 0.11446,-0.19756 0.20081,0.13637 0.28971,0.38191 0.19754,0.54571 -0.0921,0.16381 0.081,0.45677 0.384728,0.65103 0.30378,0.19424 0.38518,0.35787 0.1809,0.36358 -0.20428,0.006 -0.462358,-0.15121 -0.573518,-0.34875 -0.13591,-0.24148 -0.3659,-0.21343 -0.70198,0.0856 -0.422391,0.37587 -0.457147,0.36516 -0.224221,-0.0689 0.237761,-0.44316 0.203111,-0.44919 -0.251992,-0.0436 -0.290205,0.25857 -0.545189,0.37419 -0.566629,0.25692 z m 3.283687,-0.26616 c -0.13783,-0.24501 -0.0855,-0.30248 0.13752,-0.15104 0.19801,0.13436 0.36003,0.31239 0.36003,0.39547 0,0.0831 -0.0618,0.15106 -0.13753,0.15106 -0.0757,0 -0.23765,-0.17797 -0.36004,-0.39549 z m 2.05683,0.22421 c 0,-0.0943 0.0701,-0.17128 0.15594,-0.17128 0.0858,0 0.15592,0.0771 0.15592,0.17128 0,0.0943 -0.0701,0.17128 -0.15592,0.17128 -0.0858,0 -0.15594,-0.0771 -0.15594,-0.17128 z m -7.17267,-0.34254 c 0,-0.0943 0.07017,-0.17127 0.155927,-0.17127 0.08575,0 0.155929,0.0771 0.155929,0.17127 0,0.0943 -0.07017,0.17126 -0.155929,0.17126 -0.08576,0 -0.155927,-0.0771 -0.155927,-0.17126 z m 5.61339,-0.51383 c 0,-0.25121 0.0936,-0.35398 0.20791,-0.22836 0.11431,0.12557 0.11431,0.33113 0,0.45674 -0.11432,0.12558 -0.20791,0.0228 -0.20791,-0.22838 z m 0.93557,0.17127 c 0,-0.0943 0.0701,-0.17127 0.15592,-0.17127 0.0858,0 0.15594,0.0771 0.15594,0.17127 0,0.0943 -0.0701,0.17129 -0.15594,0.17129 -0.0858,0 -0.15592,-0.0771 -0.15592,-0.17129 z m 0.93557,-0.34257 c 0,-0.0943 0.0701,-0.17125 0.15593,-0.17125 0.0858,0 0.15593,0.0771 0.15593,0.17125 0,0.0943 -0.0701,0.1713 -0.15593,0.1713 -0.0858,0 -0.15593,-0.0771 -0.15593,-0.1713 z m -2.8067,-0.68509 c 0,-0.0943 0.0701,-0.17126 0.15593,-0.17126 0.0858,0 0.15593,0.0771 0.15593,0.17126 0,0.0943 -0.0701,0.17129 -0.15593,0.17129 -0.0858,0 -0.15593,-0.0771 -0.15593,-0.17129 z m -0.77965,-0.51382 c 0.10595,-0.18842 0.26291,-0.34257 0.34867,-0.34257 0.0858,0 0.0692,0.15415 -0.0367,0.34257 -0.10608,0.1884 -0.2629,0.34256 -0.348668,0.34256 -0.0858,0 -0.0692,-0.15416 0.0369,-0.34256 z m -62.83885,-14.7302 c 0,-0.2512 0.09355,-0.35397 0.207902,-0.22837 0.11434,0.12557 0.11434,0.33113 0,0.45674 -0.114339,0.12558 -0.207902,0.0228 -0.207902,-0.22837 z m 22.975245,-3.1389 c -0.289618,-0.17803 -0.669721,-0.22652 -0.844673,-0.10771 -0.174955,0.11868 -0.582681,-0.1427 -0.906058,-0.58092 -0.390689,-0.52953 -0.488031,-0.92937 -0.290126,-1.19176 0.196381,-0.26036 0.160612,-0.44859 -0.104997,-0.55257 -0.221561,-0.0868 -0.315433,-0.26194 -0.208607,-0.38939 0.106829,-0.12745 0.868927,0.16237 1.693559,0.64396 1.105946,0.64592 1.560479,0.767 1.732398,0.46145 0.131798,-0.23424 0.018,-0.58698 -0.261889,-0.81179 -0.42762,-0.34346 -0.382135,-0.42124 0.334323,-0.57168 0.552833,-0.11623 0.829286,-0.0262 0.829286,0.26989 0,0.24423 -0.140878,0.85103 -0.313066,1.34852 -0.172186,0.49746 -0.497678,1.10724 -0.723317,1.3551 -0.280587,0.3082 -0.576679,0.34832 -0.936825,0.12688 z m -0.313734,-0.85754 c -0.11434,-0.12559 -0.301459,-0.12559 -0.415806,0 -0.114339,0.12558 -0.02079,0.22838 0.207904,0.22838 0.228694,0 0.322251,-0.10288 0.207902,-0.22838 z m -0.831615,-0.24879 c 0,-0.0741 -0.21779,-0.22642 -0.48398,-0.33863 -0.277527,-0.11696 -0.402705,-0.0596 -0.29345,0.13464 0.104793,0.18624 0.322582,0.33862 0.48398,0.33862 0.161399,0 0.29345,-0.0606 0.29345,-0.13464 z m -0.311854,-5.17492 c 0,-0.0943 0.07017,-0.17129 0.155927,-0.17129 0.08576,0 0.155927,0.0771 0.155927,0.17129 0,0.0943 -0.07016,0.17126 -0.155927,0.17126 -0.08576,0 -0.155927,-0.0771 -0.155927,-0.17126 z"
       id="path1" /></g></svg>
