<?xml version="1.0" encoding="UTF-8" standalone="no"?>
<!-- Created with Inkscape (http://www.inkscape.org/) -->

<svg
   width="132.94048mm"
   height="123.58362mm"
   viewBox="0 0 132.94048 123.58362"
   version="1.1"
   id="svg1"
   inkscape:version="1.3.2 (091e20e, 2023-11-25, custom)"
   sodipodi:docname="poid.svg"
   xmlns:inkscape="http://www.inkscape.org/namespaces/inkscape"
   xmlns:sodipodi="http://sodipodi.sourceforge.net/DTD/sodipodi-0.dtd"
   xmlns="http://www.w3.org/2000/svg"
   xmlns:svg="http://www.w3.org/2000/svg">
  <sodipodi:namedview
     id="namedview1"
     pagecolor="#ffffff"
     bordercolor="#000000"
     borderopacity="0.25"
     inkscape:showpageshadow="2"
     inkscape:pageopacity="0.0"
     inkscape:pagecheckerboard="0"
     inkscape:deskcolor="#d1d1d1"
     inkscape:document-units="mm"
     inkscape:zoom="0.50000001"
     inkscape:cx="-47.999999"
     inkscape:cy="-274.99999"
     inkscape:window-width="1920"
     inkscape:window-height="991"
     inkscape:window-x="-9"
     inkscape:window-y="-9"
     inkscape:window-maximized="1"
     inkscape:current-layer="layer1" />
  <defs
     id="defs1" />
  <g
     inkscape:label="Calque 1"
     inkscape:groupmode="layer"
     id="layer1"
     transform="translate(-20.509921,-85.853855)">
    <path
       style="fill:#ffffff;fill-opacity:0;stroke:#4675f4;stroke-width:8.51194;stroke-opacity:1"
       d="m 115.76495,90.115905 c 0,0 30.74012,-1.565287 33.3126,37.419055 2.30905,34.99232 -28.68901,39.18875 -28.68901,39.18875 0,0 -40.052278,9.95568 -42.234534,-33.72827 C 75.971743,89.311494 115.76495,90.115905 115.76495,90.115905 Z"
       id="path1-7"
       sodipodi:nodetypes="cscsc" />
    <path
       style="fill:#ffffff;fill-opacity:1;stroke:#4675f4;stroke-width:9.3521;stroke-opacity:1"
       d="m 66.359415,119.00956 c 0,0 33.578993,-1.72979 36.389035,41.35162 2.5223,38.66984 -31.338442,43.30729 -31.338442,43.30729 0,0 -43.751143,11.00198 -46.134931,-37.27294 -2.383797,-48.27492 41.084338,-47.38597 41.084338,-47.38597 z"
       id="path1"
       sodipodi:nodetypes="cscsc" />
    <rect
       style="fill:#ffffff;fill-opacity:1;stroke:#4675f4;stroke-width:3.26501;stroke-linecap:round;stroke-linejoin:round;stroke-opacity:1"
       id="rect2"
       width="15.946763"
       height="15.81162"
       x="56.219086"
       y="154.0619"
       ry="7.9058099" />
    <rect
       style="fill:#ffffff;fill-opacity:1;stroke:#4675f4;stroke-width:3.26501;stroke-linecap:round;stroke-linejoin:round;stroke-opacity:1"
       id="rect2-0"
       width="15.946763"
       height="15.81162"
       x="103.59065"
       y="120.9938"
       ry="7.9058099" />
    <rect
       style="fill:#ffffff;fill-opacity:1;stroke:#4675f4;stroke-width:2.51585;stroke-linecap:round;stroke-linejoin:round;stroke-opacity:1"
       id="rect3"
       width="13.984893"
       height="1.2468349"
       x="-0.37710726"
       y="162.46086"
       ry="0.62341744"
       transform="matrix(0.77466829,-0.63236781,0.58183856,0.81330431,0,0)" />
    <rect
       style="fill:#ffffff;fill-opacity:1;stroke:#4675f4;stroke-width:2.80269;stroke-linecap:round;stroke-linejoin:round;stroke-opacity:1"
       id="rect3-2"
       width="18.351065"
       height="0.20057411"
       x="-28.275743"
       y="164.15839"
       ry="0"
       transform="matrix(0.76722204,-0.64138159,0.40370473,0.91488933,0,0)" />
    <rect
       style="fill:#ffffff;fill-opacity:1;stroke:#4675f4;stroke-width:2.80269;stroke-linecap:round;stroke-linejoin:round;stroke-opacity:1"
       id="rect3-2-1"
       width="18.351065"
       height="0.20057411"
       x="-21.49334"
       y="180.46371"
       ry="0"
       transform="matrix(0.76722204,-0.64138159,0.40370473,0.91488933,0,0)" />
    <rect
       style="fill:#ffffff;fill-opacity:1;stroke:#4675f4;stroke-width:3.26501;stroke-linecap:round;stroke-linejoin:round;stroke-opacity:1"
       id="rect2-5"
       width="15.946763"
       height="15.81162"
       x="41.233837"
       y="167.58226"
       ry="7.9058099" />
    <path
       style="fill:#ffffff;fill-opacity:1;stroke:#4675f4;stroke-width:12.606;stroke-linecap:round;stroke-linejoin:round;stroke-opacity:1"
       d="m 222.69704,659.14313 c 0,-3.34075 -3.26841,-11.95106 -6.2388,-16.43554 -5.18234,-7.8239 -13.51923,-13.25527 -23.70355,-15.44252 -2.82042,-0.60573 -2.72978,-0.73448 5.10773,-7.2548 l 7.97911,-6.63812 0.76125,5.16513 c 1.98749,13.48527 12.41243,24.85624 26.57836,28.99024 l 3.95515,1.15422 -7.21963,5.93441 c -3.97079,3.26392 -7.21962,5.30106 -7.21962,4.52698 z"
       id="path3"
       transform="scale(0.26458333)" />
    <path
       style="fill:#ffffff;fill-opacity:1;stroke:#4675f4;stroke-width:12.606;stroke-linecap:round;stroke-linejoin:round;stroke-opacity:1"
       d="m 232.14802,632.74105 c -14.05923,-6.9592 -16.98096,-25.79571 -5.74411,-37.03256 4.85251,-4.8525 8.42216,-6.2225 16.21328,-6.2225 7.79112,0 11.36077,1.37 16.21328,6.2225 4.57446,4.57447 6.7715,9.82728 6.7715,16.18971 0,9.46035 -4.8532,17.49591 -12.72706,21.07251 -5.78323,2.62695 -15.16589,2.52299 -20.72689,-0.22966 z"
       id="path4"
       transform="scale(0.26458333)" />
    <path
       style="fill:#ffffff;fill-opacity:1;stroke:#4675f4;stroke-width:12.606;stroke-linecap:round;stroke-linejoin:round;stroke-opacity:1"
       d="m 234.1801,625.76175 c -4.6175,-2.89753 -7.38846,-7.84141 -7.39306,-13.19051 -0.008,-9.09842 5.55015,-15.42773 14.28457,-16.267 15.79388,-1.51759 23.64301,17.28357 11.8251,28.32486 -3.79141,3.54225 -13.90168,4.15409 -18.71661,1.13265 z"
       id="path5"
       transform="scale(0.26458333)" />
    <path
       style="fill:#ffffff;fill-opacity:1;stroke:#4675f4;stroke-width:12.606;stroke-linecap:round;stroke-linejoin:round;stroke-opacity:1"
       d="m 236.15521,618.22491 c -5.22662,-5.56348 -1.16106,-15.00197 6.46198,-15.00197 7.72565,0 11.86903,9.93097 6.31882,15.14512 -3.31675,3.11593 -9.78714,3.04345 -12.7808,-0.14315 z"
       id="path6"
       transform="scale(0.26458333)" />
    <path
       style="fill:#ffffff;fill-opacity:1;stroke:#4675f4;stroke-width:0.787877;stroke-linecap:round;stroke-linejoin:round;stroke-opacity:1"
       d="m 241.56372,614.21087 c -0.68181,-0.16788 -0.97916,-0.41198 -1.25132,-1.02724 -0.49624,-1.12183 0.15132,-2.80546 1.30724,-3.39879 0.47237,-0.24247 1.26225,-0.27806 1.78636,-0.0805 0.76676,0.28904 1.47414,1.21335 1.67844,2.19317 0.31941,1.53192 -0.61981,2.4101 -2.56302,2.39645 -0.35116,-0.002 -0.78212,-0.0399 -0.9577,-0.0831 z"
       id="path7"
       transform="scale(0.26458333)" />
    <path
       style="fill:#ffffff;fill-opacity:1;stroke:#4675f4;stroke-width:0.278557;stroke-linecap:round;stroke-linejoin:round;stroke-opacity:1"
       d="m 241.9959,613.86437 c -0.48747,-0.047 -0.8272,-0.17985 -1.03565,-0.40501 -0.14958,-0.16155 -0.30994,-0.47302 -0.36559,-0.71006 -0.0454,-0.19338 -0.0507,-0.571 -0.0111,-0.80135 0.13962,-0.81382 0.68919,-1.57955 1.3253,-1.84659 0.19714,-0.0828 0.50304,-0.12419 0.80942,-0.10964 0.51066,0.0243 0.76707,0.14038 1.15441,0.52283 0.44599,0.44036 0.72741,0.96988 0.8314,1.56437 0.0633,0.36177 0.0277,0.74474 -0.0911,0.97944 -0.19976,0.39486 -0.63864,0.65502 -1.30784,0.77526 -0.24689,0.0444 -0.98759,0.0617 -1.30925,0.0308 z"
       id="path8"
       transform="scale(0.26458333)" />
    <path
       style="fill:#ffffff;fill-opacity:1;stroke:#4675f4;stroke-width:0.278557;stroke-linecap:round;stroke-linejoin:round;stroke-opacity:1"
       d="m 241.92818,613.70545 c -0.55074,-0.07 -0.85916,-0.26205 -1.05427,-0.65663 -0.13426,-0.27153 -0.16085,-0.39514 -0.15912,-0.7397 0.002,-0.38202 0.0645,-0.642 0.24249,-1.00741 0.26987,-0.554 0.68053,-0.95611 1.11763,-1.09435 0.29615,-0.0937 0.85089,-0.0812 1.13617,0.0255 0.33749,0.12627 0.77281,0.55517 1.04083,1.02549 0.27321,0.47943 0.3913,1.09356 0.2932,1.52486 -0.11704,0.51461 -0.66432,0.85066 -1.50676,0.92524 -0.30078,0.0266 -0.88924,0.025 -1.11017,-0.003 z"
       id="path9"
       transform="scale(0.26458333)" />
    <path
       style="fill:#ffffff;fill-opacity:1;stroke:#4675f4;stroke-width:0.278557;stroke-linecap:round;stroke-linejoin:round;stroke-opacity:1"
       d="m 241.88304,613.54801 c -0.32409,-0.0471 -0.588,-0.17685 -0.74187,-0.36463 -0.48652,-0.59373 -0.31562,-1.69618 0.37577,-2.42412 0.17634,-0.18566 0.38062,-0.32675 0.57176,-0.3949 0.25393,-0.0905 0.85025,-0.0802 1.08729,0.0188 0.35422,0.148 0.85882,0.71349 1.05792,1.18556 0.13836,0.32807 0.17582,0.51155 0.17662,0.865 7e-4,0.3127 -1.8e-4,0.3183 -0.0734,0.46692 -0.17049,0.34631 -0.60198,0.57275 -1.23519,0.64821 -0.23722,0.0283 -1.02248,0.0277 -1.21895,-8.7e-4 z"
       id="path10"
       transform="scale(0.26458333)" />
    <path
       style="fill:#ffffff;fill-opacity:1;stroke:#4675f4;stroke-width:0.278557;stroke-linecap:round;stroke-linejoin:round;stroke-opacity:1"
       d="m 241.857,613.39049 c -0.56779,-0.0949 -0.87506,-0.52151 -0.83569,-1.16038 0.0169,-0.27406 0.0837,-0.51927 0.21525,-0.79006 0.19675,-0.40499 0.49172,-0.72799 0.80714,-0.88385 l 0.17566,-0.0868 h 0.38488 0.38488 l 0.151,0.0715 c 0.10491,0.0497 0.21106,0.12892 0.34782,0.25959 0.34489,0.32953 0.56565,0.67108 0.69784,1.0797 0.0552,0.17068 0.0624,0.22801 0.0648,0.51918 0.002,0.30192 -0.001,0.33519 -0.0501,0.42889 -0.14801,0.28497 -0.49717,0.47559 -1.01379,0.55346 -0.24335,0.0367 -1.12761,0.0425 -1.32967,0.009 z"
       id="path11"
       transform="scale(0.26458333)" />
    <path
       style="fill:#ffffff;fill-opacity:1;stroke:#4675f4;stroke-width:0.278557;stroke-linecap:round;stroke-linejoin:round;stroke-opacity:1"
       d="m 241.81532,613.22713 c -0.27638,-0.0704 -0.48302,-0.24318 -0.57947,-0.48457 -0.0446,-0.1117 -0.0514,-0.16898 -0.0514,-0.43344 3e-5,-0.29171 0.004,-0.31465 0.0811,-0.5364 0.0446,-0.12741 0.13067,-0.31533 0.19125,-0.4176 0.14223,-0.2401 0.46238,-0.56587 0.65507,-0.66656 l 0.1386,-0.0724 h 0.35852 0.35853 l 0.14312,0.0847 c 0.18336,0.10844 0.54658,0.48372 0.68838,0.71122 0.13541,0.21726 0.25294,0.50505 0.28341,0.69396 0.0382,0.23711 0.0298,0.53822 -0.0181,0.64334 -0.0854,0.18748 -0.33286,0.34592 -0.69151,0.44274 -0.1606,0.0434 -0.25054,0.0496 -0.81264,0.0563 -0.45951,0.005 -0.66285,-3.1e-4 -0.74491,-0.0212 z"
       id="path12"
       transform="scale(0.26458333)" />
    <path
       style="fill:#ffffff;fill-opacity:1;stroke:#4675f4;stroke-width:0.278557;stroke-linecap:round;stroke-linejoin:round;stroke-opacity:1"
       d="m 241.78896,613.0574 c -0.22249,-0.0769 -0.39129,-0.25435 -0.43477,-0.45708 -0.0351,-0.16362 -0.0297,-0.48645 0.0108,-0.64173 0.11072,-0.42509 0.44504,-0.89633 0.79201,-1.11637 0.10709,-0.0679 0.1082,-0.0681 0.4452,-0.0681 0.33753,0 0.33794,6e-5 0.4443,0.0683 0.12457,0.0799 0.47634,0.4375 0.58216,0.59174 0.1058,0.15422 0.24537,0.45693 0.28744,0.62343 0.0255,0.10099 0.034,0.21609 0.0287,0.38836 l -0.008,0.24482 -0.0866,0.0886 c -0.14609,0.14952 -0.42426,0.26395 -0.72599,0.29865 -0.0994,0.0114 -0.41428,0.0205 -0.69984,0.0202 -0.43881,-4.8e-4 -0.53724,-0.007 -0.63583,-0.0409 z"
       id="path13"
       transform="scale(0.26458333)" />
    <path
       style="fill:#ffffff;fill-opacity:1;stroke:#4675f4;stroke-width:0.278557;stroke-linecap:round;stroke-linejoin:round;stroke-opacity:1"
       d="m 241.83146,612.9128 c -0.11264,-0.0361 -0.26697,-0.18419 -0.31037,-0.29783 -0.0546,-0.14289 -0.0377,-0.55819 0.0302,-0.74419 0.11487,-0.3145 0.40477,-0.70374 0.64956,-0.87217 0.0952,-0.0655 0.10114,-0.0665 0.39953,-0.0665 0.2971,0 0.30462,0.001 0.39096,0.0641 0.15693,0.11431 0.49975,0.49363 0.58679,0.64926 0.0463,0.0828 0.11286,0.23294 0.14794,0.33368 0.0534,0.15356 0.0638,0.21986 0.0641,0.41012 3e-4,0.2266 1.9e-4,0.22705 -0.0731,0.29787 -0.0989,0.0956 -0.29216,0.18061 -0.50211,0.22078 -0.20734,0.0397 -1.26329,0.0433 -1.38354,0.005 z"
       id="path14"
       transform="scale(0.26458333)" />
    <path
       style="fill:#ffffff;fill-opacity:1;stroke:#4675f4;stroke-width:0.278557;stroke-linecap:round;stroke-linejoin:round;stroke-opacity:1"
       d="m 241.83789,612.74208 c -0.0372,-0.0238 -0.0931,-0.0708 -0.12415,-0.10456 -0.0541,-0.0589 -0.0564,-0.0729 -0.0552,-0.34724 0.001,-0.24289 0.009,-0.30418 0.0516,-0.40743 0.097,-0.23354 0.31315,-0.53073 0.51,-0.70111 l 0.10581,-0.0916 h 0.26737 0.26737 l 0.0961,0.0803 c 0.11621,0.0971 0.36311,0.36952 0.45275,0.49958 0.0358,0.052 0.0978,0.17389 0.13765,0.27088 0.0604,0.14688 0.0739,0.21265 0.0809,0.39373 l 0.008,0.21739 -0.0803,0.0613 c -0.0442,0.0337 -0.14415,0.0825 -0.22212,0.10834 -0.12741,0.0423 -0.20695,0.0479 -0.78511,0.0554 -0.60315,0.008 -0.64757,0.006 -0.71106,-0.0349 z"
       id="path15"
       transform="scale(0.26458333)" />
    <path
       style="fill:#ffffff;fill-opacity:1;stroke:#4675f4;stroke-width:0.278557;stroke-linecap:round;stroke-linejoin:round;stroke-opacity:1"
       d="m 241.86315,612.56073 -0.065,-0.0684 0.0105,-0.24398 c 0.009,-0.21065 0.0191,-0.26096 0.0738,-0.36814 0.0946,-0.18555 0.22411,-0.36785 0.36037,-0.50741 l 0.12168,-0.12464 h 0.22255 c 0.21304,0 0.22598,0.003 0.3032,0.0665 0.15836,0.13053 0.4027,0.44427 0.48684,0.62512 0.0683,0.14667 0.0844,0.20975 0.0928,0.36364 l 0.0102,0.18618 -0.13262,0.0618 -0.13262,0.0618 -0.64334,0.008 -0.64334,0.008 z"
       id="path16"
       transform="scale(0.26458333)" />
    <path
       style="fill:#ffffff;fill-opacity:1;stroke:#4675f4;stroke-width:0.278557;stroke-linecap:round;stroke-linejoin:round;stroke-opacity:1"
       d="m 241.97355,612.44835 c -0.02,-0.0522 -0.0122,-0.32763 0.0117,-0.41355 0.0283,-0.10198 0.21496,-0.39092 0.34046,-0.52706 l 0.0936,-0.10155 h 0.17413 0.17413 l 0.13484,0.14108 c 0.25641,0.2683 0.41408,0.5541 0.41408,0.7506 0,0.15436 -0.008,0.15626 -0.71648,0.16926 -0.49915,0.009 -0.61706,0.006 -0.62641,-0.0188 z"
       id="path17"
       transform="scale(0.26458333)" />
    <path
       style="fill:#ffffff;fill-opacity:1;stroke:#4675f4;stroke-width:0.278557;stroke-linecap:round;stroke-linejoin:round;stroke-opacity:1"
       d="m 242.12363,612.19417 c 0.008,-0.12643 0.023,-0.16597 0.11801,-0.31394 0.17041,-0.26537 0.22747,-0.31603 0.35598,-0.31603 0.10023,0 0.11488,0.008 0.21566,0.1155 0.13816,0.14757 0.26371,0.33241 0.31242,0.45994 0.0634,0.16599 0.057,0.16946 -0.31081,0.16961 -0.17731,8e-5 -0.40746,0.007 -0.51146,0.0149 l -0.18909,0.0147 z"
       id="path18"
       transform="scale(0.26458333)" />
    <path
       style="fill:#ffffff;fill-opacity:1;stroke:#4675f4;stroke-width:0.278557;stroke-linecap:round;stroke-linejoin:round;stroke-opacity:1"
       d="m 242.27813,612.14819 c 8e-5,-0.0424 0.14891,-0.28783 0.22069,-0.3639 0.0903,-0.0957 0.14,-0.0811 0.26745,0.079 0.12174,0.15288 0.19698,0.26507 0.18516,0.2761 -0.004,0.004 -0.15728,0.0143 -0.34041,0.0233 -0.27496,0.0135 -0.33294,0.011 -0.33289,-0.0145 z"
       id="path19"
       transform="scale(0.26458333)" />
    <path
       style="fill:#ffffff;fill-opacity:1;stroke:#4675f4;stroke-width:0.0482037;stroke-linecap:round;stroke-linejoin:round;stroke-opacity:1"
       d="m 242.502,612.02113 c 0.0112,-0.019 0.0742,-0.10962 0.0848,-0.12195 l 0.0128,-0.0149 0.0334,0.0403 c 0.0184,0.0222 0.0425,0.0519 0.0536,0.0661 l 0.0202,0.0258 -0.0497,0.003 c -0.15862,0.008 -0.15849,0.008 -0.1551,0.002 z"
       id="path20"
       transform="scale(0.26458333)" />
    <path
       style="fill:#ffffff;fill-opacity:1;stroke:#4675f4;stroke-width:0.0482037;stroke-linecap:round;stroke-linejoin:round;stroke-opacity:1"
       d=""
       id="path21"
       transform="scale(0.26458333)" />
    <path
       style="fill:#ffffff;fill-opacity:1;stroke:#4675f4;stroke-width:0.0482037;stroke-linecap:round;stroke-linejoin:round;stroke-opacity:1"
       d="m 242.55636,611.98788 c 0.0123,-0.0193 0.0416,-0.0602 0.0431,-0.0602 0.003,0 0.0538,0.0628 0.0524,0.0643 -8e-4,7.9e-4 -0.0242,0.003 -0.0521,0.004 l -0.0506,0.003 z"
       id="path22"
       transform="scale(0.26458333)" />
    <path
       style="fill:#ffffff;fill-opacity:1;stroke:#4675f4;stroke-width:4.3629;stroke-linecap:round;stroke-linejoin:round;stroke-opacity:1"
       d="m 240.84057,613.5212 c -0.47124,-0.47124 -0.55475,-1.6815 -0.15369,-2.22739 0.35786,-0.48709 1.14364,-0.60855 1.14364,-0.17678 0,0.19446 -0.13258,0.35356 -0.29463,0.35356 -0.16204,0 -0.29463,0.24778 -0.29463,0.55062 0,0.36686 0.2641,0.21941 0.79137,-0.44184 0.53911,-0.67611 0.66446,-1.07089 0.39325,-1.23851 -0.21896,-0.13532 -0.28836,-0.35579 -0.15421,-0.48993 0.35785,-0.35785 2.09575,0.87972 1.83281,1.30516 -0.1229,0.19885 0.0398,0.55403 0.36153,0.78929 0.35964,0.26298 0.4952,0.6617 0.35191,1.03511 -0.29882,0.77871 -0.89696,0.43473 -0.64717,-0.37218 0.17122,-0.5531 0.15233,-0.55183 -0.21135,0.0141 -0.21966,0.34183 -0.30184,0.77935 -0.18261,0.97227 0.31441,0.50871 -2.42251,0.44019 -2.93622,-0.0735 z m 2.139,-0.16344 c -0.24307,-0.0981 -0.64082,-0.0981 -0.88389,0 -0.24306,0.0981 -0.0442,0.17832 0.44195,0.17832 0.48613,0 0.685,-0.0802 0.44194,-0.17832 z m -0.16941,-1.11378 c 0.077,-0.23091 -0.0418,-0.41984 -0.26394,-0.41984 -0.22213,0 -0.31395,0.14551 -0.20403,0.32336 0.10991,0.17784 0.0358,0.40456 -0.16475,0.50381 -0.20053,0.0992 -0.17169,0.14267 0.0641,0.0965 0.23578,-0.0462 0.49166,-0.2729 0.56864,-0.50382 z"
       id="path23"
       transform="scale(0.26458333)" />
    <rect
       style="fill:#ffffff;fill-opacity:1;stroke:#4675f4;stroke-width:2.51585;stroke-linecap:round;stroke-linejoin:round;stroke-opacity:1"
       id="rect3-1"
       width="13.984893"
       height="1.2468349"
       x="0.57061762"
       y="177.53851"
       ry="0.62341744"
       transform="matrix(0.77466829,-0.63236781,0.58183856,0.81330431,0,0)" />
    <path
       style="fill:#ffffff;fill-opacity:1;stroke:#4675f4;stroke-width:8.72581;stroke-linecap:round;stroke-linejoin:round;stroke-opacity:1"
       d="m 417.71025,510.09699 c -10.45385,-1.59067 -18.76445,-10.774 -19.4734,-21.51837 -0.33627,-5.09631 0.46726,-8.35289 3.16486,-12.82667 4.76809,-7.90755 11.4264,-11.71469 20.47079,-11.70496 20.10545,0.0216 30.71768,23.82547 17.2106,38.60436 -5.5048,6.02313 -13.1707,8.6937 -21.37285,7.44564 z"
       id="path24"
       transform="scale(0.26458333)" />
    <path
       style="fill:#ffffff;fill-opacity:1;stroke:#4675f4;stroke-width:8.72581;stroke-linecap:round;stroke-linejoin:round;stroke-opacity:1"
       d=""
       id="path25"
       transform="scale(0.26458333)" />
    <path
       style="fill:#ffffff;fill-opacity:1;stroke:#4675f4;stroke-width:8.72581;stroke-linecap:round;stroke-linejoin:round;stroke-opacity:1"
       d="m 393.41034,537.26919 c -3.35056,-9.80566 -11.60499,-27.42283 -16.26166,-34.70678 -1.31015,-2.04932 -2.38209,-3.98808 -2.38209,-4.30836 0,-0.32028 2.30694,-2.40846 5.12653,-4.64041 l 5.12652,-4.05809 0.47036,3.23046 c 1.17137,8.04506 5.62034,16.26655 11.69694,21.61539 3.50314,3.08358 12.27049,7.79696 14.50314,7.79696 0.75797,0 1.27206,0.29141 1.14243,0.64759 -0.20615,0.5664 -16.48116,14.15864 -18.29684,15.28079 -0.37795,0.23359 -0.88435,-0.15231 -1.12533,-0.85755 z"
       id="path26"
       transform="scale(0.26458333)" />
    <path
       style="fill:#ffffff;fill-opacity:1;stroke:#4675f4;stroke-width:8.72581;stroke-linecap:round;stroke-linejoin:round;stroke-opacity:1"
       d="m 395.53102,529.54245 c -0.26304,-0.73353 -2.04517,-4.83387 -3.96029,-9.11186 -1.91512,-4.278 -3.67736,-8.25547 -3.91607,-8.83884 -0.23872,-0.58336 1.42546,0.94267 3.69818,3.39118 2.27271,2.44851 5.59586,5.28753 7.38478,6.30894 5.25697,3.00155 5.21624,2.90816 2.33065,5.34475 -5.47182,4.62041 -5.00942,4.37776 -5.53725,2.90583 z"
       id="path27"
       transform="scale(0.26458333)" />
    <path
       style="fill:#ffffff;fill-opacity:1;stroke:#4675f4;stroke-width:1.09073;stroke-linecap:round;stroke-linejoin:round;stroke-opacity:1"
       d="m 384.71894,506.9284 c -1.32343,-2.4946 -2.55006,-4.64589 -3.7495,-6.57597 -0.39752,-0.63968 -0.72277,-1.20198 -0.72277,-1.24956 0,-0.0476 0.39235,-0.40732 0.8719,-0.79942 l 0.87189,-0.7129 0.15785,0.59245 c 0.28435,1.06727 1.1956,3.64786 1.73626,4.91696 0.29148,0.68417 0.88256,1.93043 1.31353,2.76946 l 0.78359,1.52551 -0.34492,0.17597 c -0.18971,0.0968 -0.37634,0.17557 -0.41473,0.17509 -0.0384,-4.8e-4 -0.26479,-0.36839 -0.5031,-0.81759 z"
       id="path28"
       transform="scale(0.26458333)" />
    <path
       style="fill:#ffffff;fill-opacity:1;stroke:#4675f4;stroke-width:1.09073;stroke-linecap:round;stroke-linejoin:round;stroke-opacity:1"
       d="m 381.91286,500.7625 -0.94127,-1.57403 0.33779,-0.27146 0.33779,-0.27145 0.32924,0.99302 c 0.18108,0.54616 0.46375,1.34751 0.62816,1.78077 0.1644,0.43326 0.28781,0.81687 0.27424,0.85247 -0.0136,0.0356 -0.44825,-0.6436 -0.96595,-1.50932 z"
       id="path29"
       transform="scale(0.26458333)" />
    <path
       style="fill:#ffffff;fill-opacity:1;stroke:#4675f4;stroke-width:8.72581;stroke-linecap:round;stroke-linejoin:round;stroke-opacity:1"
       d="m 417.82751,505.30075 c -6.1897,-1.27214 -11.95191,-6.62648 -14.04689,-13.05259 -4.64104,-14.2359 11.50828,-28.14155 25.43319,-21.8997 9.36665,4.19861 13.76696,16.01295 9.25682,24.85356 -1.62227,3.1799 -6.37468,7.65993 -9.51168,8.96653 -3.01408,1.25539 -8.04317,1.76691 -11.13144,1.1322 z"
       id="path30"
       transform="scale(0.26458333)" />
    <path
       style="fill:#ffffff;fill-opacity:1;stroke:#4675f4;stroke-width:8.72581;stroke-linecap:round;stroke-linejoin:round;stroke-opacity:1"
       d="m 415.71323,499.35386 c -7.29949,-3.82094 -9.85354,-12.39361 -5.6617,-19.00347 2.82773,-4.45887 8.55473,-7.3286 13.3215,-6.67524 4.53308,0.62133 8.24387,3.37577 10.41357,7.72979 3.11462,6.25023 2.09951,10.95739 -3.40853,15.80576 -4.69346,4.13135 -9.51929,4.83661 -14.66484,2.14316 z"
       id="path31"
       transform="scale(0.26458333)" />
    <path
       style="fill:#ffffff;fill-opacity:1;stroke:#4675f4;stroke-width:8.72581;stroke-linecap:round;stroke-linejoin:round;stroke-opacity:1"
       d="m 417.45231,494.67913 c -4.57877,-2.79199 -5.80435,-7.45921 -3.11636,-11.86765 3.70586,-6.07782 12.07983,-5.69204 15.11123,0.69616 1.93068,4.0686 1.54265,5.98809 -1.90809,9.43882 -3.54103,3.54103 -6.33427,4.02084 -10.08678,1.73267 z"
       id="path32"
       transform="scale(0.26458333)" />
    <path
       style="fill:#ffffff;fill-opacity:1;stroke:#4675f4;stroke-width:8.72581;stroke-linecap:round;stroke-linejoin:round;stroke-opacity:1"
       d="m 419.07036,489.79254 c -1.55446,-1.71766 -1.48028,-3.86398 0.18565,-5.37163 1.84625,-1.67083 4.38457,-1.15789 5.67382,1.14656 0.99902,1.7857 0.95912,2.02081 -0.62996,3.71231 -2.00362,2.13275 -3.62001,2.29124 -5.22951,0.51276 z"
       id="path33"
       transform="scale(0.26458333)" />
    <path
       style="fill:#ffffff;fill-opacity:1;stroke:#4675f4;stroke-width:0.0964075;stroke-linecap:round;stroke-linejoin:round;stroke-opacity:1"
       d="m 421.55469,487.79339 c -0.0966,-0.0102 -0.24853,-0.046 -0.27035,-0.0637 -0.0165,-0.0134 -0.0417,-0.29503 -0.0419,-0.46792 -8e-5,-0.058 0.003,-0.15469 0.008,-0.21485 0.01,-0.13114 0.0444,-0.37989 0.0545,-0.38992 0.01,-0.01 0.25553,0.008 0.3671,0.0272 0.11174,0.019 0.22155,0.0467 0.32813,0.0828 0.0852,0.0289 0.2436,0.097 0.26779,0.11524 0.0326,0.0246 0.0539,0.23721 0.0376,0.37678 -0.0158,0.13517 -0.0639,0.28746 -0.11785,0.37246 -0.0185,0.0291 -0.0344,0.0418 -0.0837,0.0666 -0.15127,0.076 -0.37114,0.11415 -0.54916,0.0953 z"
       id="path34"
       transform="scale(0.26458333)" />
    <path
       style="fill:#ffffff;fill-opacity:1;stroke:#4675f4;stroke-width:0.0964075;stroke-linecap:round;stroke-linejoin:round;stroke-opacity:1"
       d="m 421.53125,487.73784 c -0.0895,-0.0132 -0.19171,-0.0391 -0.20029,-0.0507 -0.009,-0.0121 -0.0131,-0.042 -0.0263,-0.1911 -0.0112,-0.12649 -0.009,-0.3783 0.004,-0.50608 0.0132,-0.12731 0.0342,-0.27709 0.0395,-0.2824 0.005,-0.005 0.22645,0.0144 0.30787,0.0277 0.16233,0.0265 0.3376,0.079 0.49528,0.14845 l 0.082,0.0361 0.009,0.0401 c 0.0163,0.072 0.0186,0.25786 0.004,0.34051 -0.0161,0.0926 -0.0612,0.22966 -0.0933,0.28352 -0.0211,0.0355 -0.0324,0.045 -0.0831,0.07 -0.14521,0.0717 -0.37717,0.10782 -0.53906,0.0839 z"
       id="path35"
       transform="scale(0.26458333)" />
    <path
       style="fill:#ffffff;fill-opacity:1;stroke:#4675f4;stroke-width:0.0964075;stroke-linecap:round;stroke-linejoin:round;stroke-opacity:1"
       d="m 421.53516,487.68687 c -0.009,-0.002 -0.048,-0.0109 -0.0875,-0.0196 -0.0517,-0.0114 -0.073,-0.0196 -0.0757,-0.0291 -0.0257,-0.0892 -0.0247,-0.57003 0.002,-0.76142 0.008,-0.0592 0.0171,-0.10986 0.0198,-0.11263 0.009,-0.009 0.25494,0.0206 0.34879,0.0415 0.17385,0.0387 0.43071,0.13198 0.44706,0.1623 0.005,0.009 0.0103,0.0704 0.0123,0.142 0.003,0.0977 5.7e-4,0.14002 -0.01,0.19043 -0.0174,0.0861 -0.048,0.1815 -0.0758,0.23661 -0.0196,0.0389 -0.0285,0.0478 -0.0674,0.0673 -0.0544,0.0272 -0.12658,0.0512 -0.205,0.0682 -0.0564,0.0122 -0.27484,0.0224 -0.30859,0.0143 z"
       id="path36"
       transform="scale(0.26458333)" />
    <path
       style="fill:#ffffff;fill-opacity:1;stroke:#4675f4;stroke-width:0.0964075;stroke-linecap:round;stroke-linejoin:round;stroke-opacity:1"
       d="m 421.47825,487.62192 c -0.0313,-0.008 -0.0591,-0.0166 -0.0618,-0.0192 -0.003,-0.003 -0.007,-0.10074 -0.009,-0.21792 -0.004,-0.2562 0.0119,-0.54544 0.032,-0.56557 0.007,-0.007 0.20525,0.02 0.30227,0.0415 0.0991,0.022 0.27384,0.0781 0.3493,0.11223 0.0366,0.0165 0.0497,0.0268 0.0535,0.0419 0.003,0.011 0.003,0.0789 0.002,0.15102 -0.003,0.11246 -0.006,0.14054 -0.0237,0.19773 -0.0317,0.10432 -0.0534,0.15751 -0.0715,0.17567 -0.0199,0.0199 -0.10132,0.052 -0.18807,0.0742 -0.0926,0.0237 -0.30633,0.0284 -0.38503,0.009 z"
       id="path37"
       transform="scale(0.26458333)" />
    <path
       style="fill:#ffffff;fill-opacity:1;stroke:#4675f4;stroke-width:0.0964075;stroke-linecap:round;stroke-linejoin:round;stroke-opacity:1"
       d="m 421.50755,487.57482 c -0.0152,-0.003 -0.0319,-0.008 -0.0371,-0.0113 -0.0169,-0.0104 -0.009,-0.67256 0.009,-0.6898 0.004,-0.004 0.2006,0.0264 0.25916,0.04 0.0759,0.0176 0.19719,0.0553 0.28414,0.0885 l 0.0732,0.0279 -0.004,0.13729 c -0.004,0.13336 -0.005,0.13984 -0.0336,0.22693 -0.0164,0.0493 -0.0372,0.097 -0.0462,0.10604 -0.0212,0.0212 -0.15548,0.064 -0.2308,0.0737 -0.0663,0.008 -0.232,0.009 -0.2737,7.6e-4 z"
       id="path38"
       transform="scale(0.26458333)" />
    <path
       style="fill:#ffffff;fill-opacity:1;stroke:#4675f4;stroke-width:0.0964075;stroke-linecap:round;stroke-linejoin:round;stroke-opacity:1"
       d="m 421.51568,487.28406 c 3e-5,-0.13475 0.002,-0.26907 0.005,-0.29848 l 0.005,-0.0535 0.0437,0.005 c 0.11229,0.0133 0.26946,0.0538 0.41481,0.10688 l 0.0508,0.0185 v 0.11319 c 0,0.1179 -0.005,0.14885 -0.0409,0.23952 -0.021,0.0536 -0.0259,0.0568 -0.13718,0.0896 -0.0453,0.0133 -0.0843,0.0173 -0.19893,0.0203 l -0.14258,0.004 z"
       id="path39"
       transform="scale(0.26458333)" />
    <path
       style="fill:#ffffff;fill-opacity:1;stroke:#4675f4;stroke-width:0.0964075;stroke-linecap:round;stroke-linejoin:round;stroke-opacity:1"
       d="m 421.57031,487.23138 v -0.2434 l 0.0176,0.004 c 0.01,0.002 0.0541,0.0111 0.0988,0.0203 0.0446,0.009 0.1304,0.0325 0.19053,0.0518 l 0.10934,0.0352 -0.004,0.10286 c -0.004,0.1023 -0.0192,0.16848 -0.048,0.21235 -0.0196,0.0299 -0.11725,0.0522 -0.24869,0.0567 l -0.11524,0.004 z"
       id="path40"
       transform="scale(0.26458333)" />
    <path
       style="fill:#ffffff;fill-opacity:1;stroke:#4675f4;stroke-width:0.0964075;stroke-linecap:round;stroke-linejoin:round;stroke-opacity:1"
       d="m 421.625,487.23507 v -0.1829 l 0.0488,0.0111 c 0.0563,0.0129 0.21099,0.056 0.23903,0.0666 0.0189,0.007 0.019,0.008 0.0146,0.091 -0.005,0.0924 -0.0219,0.15359 -0.0465,0.16676 -0.0256,0.0137 -0.12993,0.0297 -0.19544,0.03 l -0.0605,2.7e-4 z"
       id="path41"
       transform="scale(0.26458333)" />
    <path
       style="fill:#ffffff;fill-opacity:1;stroke:#4675f4;stroke-width:0.0964075;stroke-linecap:round;stroke-linejoin:round;stroke-opacity:1"
       d="m 421.67969,487.24134 v -0.12194 l 0.0215,0.005 c 0.0118,0.003 0.0562,0.0146 0.0986,0.0262 l 0.0772,0.0211 -0.004,0.0625 c -0.002,0.0344 -0.008,0.0734 -0.0131,0.0868 -0.008,0.0225 -0.0128,0.025 -0.0627,0.0332 -0.0296,0.005 -0.0681,0.009 -0.0856,0.009 h -0.0317 z"
       id="path42"
       transform="scale(0.26458333)" />
    <path
       style="fill:#ffffff;fill-opacity:1;stroke:#4675f4;stroke-width:0.0964075;stroke-linecap:round;stroke-linejoin:round;stroke-opacity:1"
       d="m 421.73437,487.25089 c 0,-0.0366 0.003,-0.0595 0.008,-0.0595 0.005,0 0.0243,0.004 0.0438,0.009 l 0.0356,0.009 -0.003,0.0418 c -0.002,0.023 -0.005,0.0432 -0.007,0.045 -0.002,0.002 -0.02,0.006 -0.0404,0.009 l -0.0371,0.006 z"
       id="path43"
       transform="scale(0.26458333)" />
    <path
       style="fill:#ffffff;fill-opacity:1;stroke:#4675f4;stroke-width:2.18145;stroke-linecap:round;stroke-linejoin:round;stroke-opacity:1"
       d=""
       id="path44"
       transform="scale(0.26458333)" />
    <path
       style="fill:#ffffff;fill-opacity:1;stroke:#4675f4;stroke-width:2.18145;stroke-linecap:round;stroke-linejoin:round;stroke-opacity:1"
       d="m 421.38624,487.4687 c -0.0634,-0.24263 0.0139,-0.42368 0.2305,-0.53961 0.54263,-0.29041 0.72961,-0.20347 0.67033,0.31167 -0.0709,0.61658 -0.754,0.78941 -0.90083,0.22794 z m 0.75651,0.10307 c 0,-0.0367 -0.13921,-0.17592 -0.30936,-0.30936 -0.28038,-0.21989 -0.28663,-0.21363 -0.0668,0.0667 0.23094,0.29447 0.37611,0.38811 0.37611,0.24262 z"
       id="path45"
       transform="scale(0.26458333)" />
    <path
       style="fill:#ffffff;fill-opacity:1;stroke:#4675f4;stroke-width:0.545363;stroke-linecap:round;stroke-linejoin:round;stroke-opacity:1"
       d="m 421.7229,487.74174 c -0.47785,-0.26364 -0.43273,-0.67711 0.0956,-0.87588 0.2274,-0.0856 0.22853,-0.0855 0.3425,0.004 0.127,0.0999 0.14966,0.27842 0.0659,0.51884 l -0.0485,0.13914 -0.20561,-0.18105 c -0.4101,-0.36111 -0.50642,-0.30449 -0.14581,0.0857 0.21045,0.22773 0.21275,0.23329 0.12275,0.29633 -0.10811,0.0757 -0.11227,0.076 -0.22675,0.0128 z"
       id="path46"
       transform="scale(0.26458333)" />
  </g>
</svg>
